<svg xmlns="http://www.w3.org/2000/svg" viewBox="0 0 1922.23 1080.25"><defs><style>.cls-1{fill:#fff}</style></defs><title>stars</title><g id="Layer_2" data-name="Layer 2"><path class="cls-1" d="M0 944.09a10.58 10.58 0 0 1 2.81.65 3.53 3.53 0 0 1 2 4.08C4.4 950.57 3 951 1.47 951.1H0zm1922.23 133.15c-1.15.2-2.52.4-2.32 1.88.06.47 1.51.76 2.32 1.13zM1233.43 0l1 1.4 1-1.4zM1033.2 0l1 1.4 1-1.4zm863.12 879.14a4 4 0 0 0 3.93 3.74 3.71 3.71 0 0 0 3.67-3.88c-.25-2.18-2-3.92-3.9-3.83a4 4 0 0 0-3.7 3.97zM70.25 323.11a3.74 3.74 0 0 0 3.68-3.37 2.91 2.91 0 0 0-2.93-3.3c-2.25-.22-3.66.85-3.85 2.91a3.28 3.28 0 0 0 3.1 3.76zm1621.37-6.87a2.9 2.9 0 0 0 3.28-2.88 3.26 3.26 0 0 0-3.05-3.73c-1.63-.13-3.4 1.64-3.46 3.47-.06 1.47 1.49 2.98 3.23 3.14zM263.46 834.78c-.11 2 1.3 3.23 3.52 3.15 1.83-.06 3.1-1.1 3.08-2.52a3.82 3.82 0 0 0-3.67-3.32 2.76 2.76 0 0 0-2.93 2.69zm1526.33 176.68a3.6 3.6 0 0 0-3.29-3.07 3.7 3.7 0 0 0-3.18 3.2 3.39 3.39 0 0 0 3.32 3 3.24 3.24 0 0 0 3.15-3.12zm.3-730.58a3.05 3.05 0 0 0 2.94-3.3 2.89 2.89 0 0 0-3.08-3.13 2.75 2.75 0 0 0-2.75 2.9c.01 1.76 1.4 3.45 2.89 3.53zm-113 29.1a2.91 2.91 0 0 0 5.74-.91c-.15-1.74-1.74-3.41-3.1-3.25-1.59.18-2.97 2.37-2.63 4.18zM761.69 888.9a2.78 2.78 0 0 0 3.07-3 2.87 2.87 0 1 0-3.07 3zM579.2 141.35c.13-1.27-1.4-2.85-2.85-2.95s-3.46 1.38-3.13 2.55a9.78 9.78 0 0 0 2 2.92c2.16.13 3.85-1.2 3.98-2.52zm483.18 702.27a2.75 2.75 0 0 0 2.33 3.2 2.68 2.68 0 0 0 3.26-2.19 3.57 3.57 0 0 0-3.08-3.38c-1.51-.04-2.28.92-2.51 2.36zM562 146.1a2.63 2.63 0 0 0 3-2.5c0-1.49-1.37-3-2.63-3a3 3 0 0 0-2.67 2.94 2.26 2.26 0 0 0 2.3 2.56zM300.89 553.73c-.38 1.12 1.56 2.67 2.93 2.67a2.61 2.61 0 0 0 2.39-3.07c-.18-1.46-.94-2.39-3.25-2.48a10.72 10.72 0 0 0-2.07 2.88zm1606.2 63.45c1.06.49 2.72-1.29 2.85-2.73a2.52 2.52 0 0 0-2.83-2.61c-1.48.06-2.44.77-2.79 3a11.93 11.93 0 0 0 2.77 2.35zM1439.23 4.88a3 3 0 0 0-2.74-2.43c-1.31.13-2.87 1.89-2.48 3.2.28.92 1.25 1.63 1.66 2.13 2.1-.1 3.64-1.61 3.56-2.9zM256.17 952.43a2.56 2.56 0 0 0-2.39-3.07 2.39 2.39 0 0 0-2.33 2.63 2.5 2.5 0 0 0 2.1 2.82 2.43 2.43 0 0 0 2.62-2.38zM535.48 962c1.71.07 3.06-1.12 2.85-2.59a2.42 2.42 0 0 0-2.8-2.15 2.45 2.45 0 0 0-2.65 2.27 2.54 2.54 0 0 0 2.6 2.47zm-198.4-60.46c-.44 0-1.21 1-1.12 1.37.16.68.83 1.76 1.31 1.77 2.1 0 4.33.08 5.76-1.94.12-.17-.12-.6-.28-1.26-1.84-.03-3.75-.12-5.68.04zm-27.16 35.3a2.19 2.19 0 0 0 2.2-2.72 3.78 3.78 0 0 0-2.09-2.28c-1.25-.47-2.51.9-2.52 2.36a2.46 2.46 0 0 0 2.41 2.61zm1289.56-522.67a2.23 2.23 0 0 0 3-1.71 2.17 2.17 0 0 0-2.1-2.73c-.92 0-1.81.79-3.29 1.51 1.1 1.37 1.57 2.61 2.39 2.93zm-182 479.68c1.46 0 2-1 2-2.26s-.46-2.3-1.93-2.36a2.33 2.33 0 1 0-.11 4.61zm354.43 96a2.12 2.12 0 0 0 2.78-2 2.09 2.09 0 0 0-2.4-2.44c-.88.08-1.68 1-3.08 1.93 1.28 1.2 1.89 2.3 2.79 2.53zM434 1018a2.37 2.37 0 0 0-1.75-1.32c-2-.11-3.79 1.27-3.46 2.64.18.75 1.09 1.32 1.47 1.75 2.21-.13 4.09-1.76 3.74-3.07zm608 45a2.2 2.2 0 0 0 2.85-2 2 2 0 0 0-2-2.4c-1.65-.15-2.37.89-2.66 2.83.54.38 1.09 1.36 1.81 1.57zm697.2-267.31a2 2 0 0 0 2.47-2.24 3.21 3.21 0 0 0-2-2.16c-1.5-.33-2.26.86-2.58 2.94.52.4 1.25 1.32 2.11 1.46zM1367.45 30.87a1.82 1.82 0 0 0 2-2.19c-.11-1.46-1-2.59-2.49-2.3-.89.17-1.61 1.17-2.25 1.68.37 1.94 1.21 2.81 2.74 2.81zm-1063 132.7c.44.08 1.69-1.53 1.69-2.37s-1.24-2.46-1.68-2.38c-1.07.2-2 1.19-3.71 2.37 1.67 1.17 2.59 2.17 3.65 2.37zM1519.58 997.3a1.83 1.83 0 0 0-2.2-2c-1.45.13-2.59 1-2.28 2.5.18.89 1.18 1.61 1.64 2.18 2.08-.28 2.85-1.18 2.84-2.68zM403.72 449.64a2.8 2.8 0 0 0 2 1.63 2 2 0 0 0 2.36-2.45c-.18-.88-1.25-1.58-1.87-2.29-1.92.67-2.91 1.6-2.49 3.11zm-296.2-151.73a3.35 3.35 0 0 0 2.1 2.11 2 2 0 0 0 2.16-2.47c-.33-.88-1.29-1.52-2.41-2.75-.91 1.41-1.96 2.34-1.85 3.11zm1640.32 680.83a4 4 0 0 0 2-2.33 1.63 1.63 0 0 0-2-2 7.22 7.22 0 0 0-2.33 1.34c-.07 1.86 1.32 3.46 2.33 2.99zm-1270.67-1.85a1.94 1.94 0 0 0-2.19-2.41 3.33 3.33 0 0 0-2.05 2.13c-.09.77 1 1.68 1.91 3.07 1.08-1.24 2.03-1.9 2.33-2.79zm-305.57 25.95a2 2 0 0 0 2.24-2.42 3.33 3.33 0 0 0-2.3-1.88c-.79 0-1.62 1.11-3 2.14 1.4 1.01 2.15 1.92 3.07 2.16zm747.65 77.22a2.38 2.38 0 0 0 1.4-1.65c.09-1.44-1.63-2.46-3.32-1.92-.78.25-1.36 1.12-1.86 1.56a2.84 2.84 0 0 0 3.79 2.02zM412.92 74.08c.38-1.08-1.33-2.8-2.42-2.46a2.85 2.85 0 0 0-1.75 1.93c0 .86.77 1.76 1.55 3.31 1.27-1.3 2.31-1.91 2.62-2.78zm93.88 50.8c1.22.45 2.52-.06 2.51-1.46 0-.93-.92-1.86-1.42-2.78l-3.64 2c1.21 1.09 1.75 1.95 2.55 2.23zm1206.64 287.41c.27-1.12-1.62-2.73-2.61-2.28a3 3 0 0 0-1.6 2.09c0 .86.92 1.69 1.85 3.18 1.15-1.4 2.15-2.1 2.36-2.99zM1233.83 236a3.51 3.51 0 0 0-2.24-2.18c-1.38-.31-2.12 1-1.92 2.2.14.88 1 1.63 2.06 3.09 1.07-1.48 2.27-2.44 2.1-3.11zm322.28 453.25c1.22.09 2.67-1.84 2.12-2.77a2.81 2.81 0 0 0-2.26-1.28c-.87.23-1.52 1.3-2.63 2.36 1.27.83 1.99 1.64 2.77 1.7zM147.69 399.82a3.94 3.94 0 0 0-2.16 2.14c-.16.41.9 1.71 1.62 2 1.09.37 2.56-1.24 2.55-2.89-.55-.4-1.48-1.42-2.01-1.25zm279.8 584.78c1.15.31 2.81-1.34 2.45-2.46-.23-.73-1.38-1.73-2-1.64-.91.13-1.71 1.09-2.93 2 1.14.97 1.72 1.89 2.48 2.1zm1013.17-894c1.12.31 2.8-1.34 2.45-2.45-.22-.72-1.36-1.73-1.95-1.65-.91.13-1.71 1.09-2.93 2 1.1.93 1.67 1.85 2.44 2.06zM144.15 469c1.12.32 2.81-1.35 2.46-2.45-.23-.73-1.36-1.73-2-1.65-.91.13-1.71 1.09-2.93 2 1.14.97 1.71 1.89 2.47 2.1zm1554.35 600.08a2.87 2.87 0 0 0 1.84 1.83 1.84 1.84 0 0 0 2.29-2c0-.81-.75-1.6-1.05-2.18-1.58-.17-3.31 1.17-3.07 2.36zM548.18 57.08c.23.73 1.53 1.8 1.95 1.65a4 4 0 0 0 2.17-2.16c.18-.53-.84-1.47-1.19-2-1.68-.05-3.29 1.43-2.93 2.51zM1451 685.35c-.06.61.91 1.69 1.63 1.91 1.17.36 2.64-1.23 2.26-2.4-.25-.77-1.1-1.34-2.07-2.45-.82 1.24-1.69 2.05-1.82 2.94zM271.59 1043.18a1.73 1.73 0 0 0 3.45-.05c0-.89-.82-1.77-1.77-3.56-.89 1.79-1.68 2.7-1.68 3.61zm274.31-48.12a1.73 1.73 0 0 0 3.46.07c0-.9-.77-1.81-1.66-3.62-.96 1.77-1.78 2.65-1.8 3.55zm22.47-37c.1-1.46-1.07-2.07-2.31-1.67-.76.24-1.29 1.19-1.92 1.82l2.54 2.46c.8-1.21 1.64-1.89 1.69-2.67zm677.42-895.14c.16.68 1.26 1.13 1.94 1.68.43-.6 1.25-1.23 1.22-1.81a15 15 0 0 0-1.1-3.45c-1.73.86-2.42 2.1-2.06 3.58zM478.23 224.55a1.7 1.7 0 0 0-2.28-1.83 2.66 2.66 0 0 0-1.09 2.28c.1.74 1.06 1.37 2 2.45.64-1.3 1.35-2.09 1.37-2.9zM1417 911.64c.24.1 1.29-.94 1.41-1.57.23-1.22-.31-2.48-1.71-2.44-.7 0-1.38 1-2.58 2a15.13 15.13 0 0 0 2.88 2.01zM260.55 240a2.66 2.66 0 0 0 2.29-1.09 1.69 1.69 0 0 0-1.81-2.28c-.8 0-1.6.72-2.9 1.37 1.07.91 1.69 1.88 2.42 2zM814.08 69.48c-.17-.77-1.5-1.3-2.33-1.93-.52.72-1.42 1.44-1.43 2.17s.91 1.42 1.77 2.61c.91-1.24 2.14-2.19 1.99-2.85zm989.19 372.66a2.47 2.47 0 0 0-1.8 1.7 2.58 2.58 0 0 0 1.48 2.06c.56.14 1.41-.89 2.47-1.64-.91-.96-1.5-2.08-2.14-2.11zm2.15-6c.73 0 1.46-.94 2.19-1.46-.62-.64-1.17-1.71-1.87-1.82s-1.56.73-2.87 1.43c1.13.87 1.86 1.84 2.55 1.84zm-78.74 636.6c-.07-.72-1.09-1.35-1.69-2-.59.68-1.59 1.33-1.64 2.05s.87 1.47 1.69 2.68c.79-1.25 1.71-2.04 1.65-2.74zM1415 433.17a2.65 2.65 0 0 0 2-1.49c.29-1.37-.85-2.09-2.08-1.88-.76.13-1.41.94-2.51 1.74 1.2.77 1.94 1.66 2.59 1.63zm-81.8-6.17c-.06-.72-1.07-1.36-1.67-2-.59.68-1.61 1.32-1.66 2s.87 1.48 1.68 2.7c.79-1.23 1.71-2.01 1.65-2.7zM561.62 565a1.91 1.91 0 0 0 0-3.78c-.61-.07-1.34 1-2.33 1.87 1 .91 1.71 2 2.33 1.91zm1230.76 58.39c1.24.25 2.36-.5 2.13-1.84a2.62 2.62 0 0 0-2-1.54c-.7 0-1.45.83-2.61 1.58 1.1.85 1.71 1.68 2.47 1.83zM322.77 211.29c.08.56 1.32 1 2 1.44.44-.77 1.26-1.56 1.22-2.3s-1-1.32-2.1-2.6c-.56 1.62-1.24 2.59-1.12 3.46zm91.07 725.83a1.89 1.89 0 0 0-3.76 0c-.07.6 1 1.34 1.85 2.33.87-1.01 1.96-1.71 1.92-2.33zm243.47-719.34a17.3 17.3 0 0 0 3.61.95c.42 0 1.11-1 1.28-1.68.08-.32-.79-1.28-1.16-1.25a24 24 0 0 0-3.67.83zm-551.2 663.64a1.9 1.9 0 0 0 0-3.78c-.61-.06-1.33 1-2.32 1.9.98.85 1.7 1.94 2.32 1.88zm706.32 120.4c.72-.06 1.36-1.07 2-1.67-.68-.6-1.32-1.61-2-1.67s-1.48.86-2.7 1.67c1.22.85 2 1.72 2.7 1.67zM299.34 685.18a1.9 1.9 0 0 0 0-3.77c-.61-.06-1.33 1-2.31 1.88.97.86 1.7 1.95 2.31 1.89zM46.66 362.78c-.11-.7-1.15-1.26-1.79-1.88-.53.73-1.47 1.45-1.48 2.18s1 1.4 1.84 2.56c.71-1.31 1.54-2.15 1.43-2.86zm1284.21 667.51a1.68 1.68 0 0 0 3.35-.22c0-.63-1-1.28-1.82-2.33-.75 1.15-1.63 1.93-1.53 2.55zm-717.51-203.7c.7-.11 1.25-1.16 1.87-1.79-.73-.53-1.45-1.46-2.18-1.46s-1.4 1-2.55 1.84c1.31.69 2.15 1.52 2.86 1.41zm-274.29 194.72c0-.65-1-1.28-1.57-1.92-.64.56-1.68 1.06-1.79 1.7s.79 1.39 1.52 2.54c.88-1.03 1.86-1.69 1.84-2.32zM148.3 977.53a2.58 2.58 0 0 0 1.5-2.05c0-.66-1.16-1.25-1.8-1.87l-2.15 2.26c1.04.75 1.89 1.79 2.45 1.66zM662.88 81.76c.65-.12 1.36-1.18 1.57-2 .09-.34-1.05-1.45-1.55-1.4-.76.08-1.44.86-2.66 1.69 1.23.88 2.03 1.83 2.64 1.71zM489.24 984.63c-.06-.71-1.08-1.34-1.68-2-.58.68-1.58 1.33-1.64 2s.87 1.47 1.68 2.67c.79-1.18 1.7-1.97 1.64-2.67zm71.59-3.87a2.47 2.47 0 0 0-1.81 1.69 2.59 2.59 0 0 0 1.48 2.07c.56.14 1.41-.89 2.48-1.64-.92-.96-1.51-2.09-2.15-2.12zm994.48-807.88c.72-.06 1.35-1.09 2-1.69-.68-.59-1.33-1.6-2.05-1.65s-1.47.87-2.69 1.68c1.26.78 2.04 1.72 2.74 1.66zM1748.16 496a2.57 2.57 0 0 0 1.49-2.05c0-.66-1.16-1.25-1.81-1.87l-2.14 2.27c1.05.72 1.89 1.75 2.46 1.65zM345 450.68a2.55 2.55 0 0 0 2 1.5c.66 0 1.25-1.15 1.87-1.79l-2.23-2.16c-.7 1.03-1.73 1.85-1.64 2.45zm57 402.26c0-.5-1-1.37-1.59-1.39a1.66 1.66 0 0 0-1.71 2.27c.19.75 1.05 1.32 2.15 2.59.65-1.62 1.23-2.55 1.21-3.47zm6.69.76c.17.77.93 1.41 1.44 2.1.65-.53 1.83-1 1.83-1.58 0-.7-.91-1.4-1.68-2.43-.68.86-1.62 1.49-1.53 1.91zM1604.24 29.64a1.73 1.73 0 0 0 2.07 2 2.06 2.06 0 0 0 1.26-1.62c-.12-.74-.9-1.36-1.64-2.35-.8.9-1.63 1.39-1.69 1.97zM464.12 211.24a1.28 1.28 0 0 0-1.59-1.72 3 3 0 0 0-1.71 1.8c-.15.44.66 1.19 1.26 2.18.92-.96 1.79-1.5 2.04-2.26zM454 499.66c-.07.49 1.05 1.15 1.64 1.73.57-.64 1.39-1.2 1.61-1.94.13-.43-.7-1.15-1.35-2.1-.9.96-1.81 1.58-1.9 2.31zM408.17 547c.56.1 1.72-.83 1.91-1.5.38-1.33-.64-2.16-1.9-2.12-.57 0-1.12.83-1.94 1.49.76.93 1.26 2.02 1.93 2.13zm65.21 37.37c.75-.22 1.33-1 2-1.6-.58-.59-1.21-1.71-1.72-1.66-.71.07-1.34 1-2.33 1.86.92.69 1.67 1.54 2.05 1.42zm787.55-168.3a1.72 1.72 0 0 0 2.15-1.92c0-.53-1-1.44-1.48-1.39-.75.08-1.43.81-2.5 1.5.81.86 1.25 1.74 1.82 1.83zM437.24 165.36a23.09 23.09 0 0 0-3 2.12 1.79 1.79 0 0 0 .21 1.68c.61.28 1.85.4 2.08.07a16.52 16.52 0 0 0 1.41-3.34zM68.25 3.63c-.6 0-1.67 1-1.79 1.65-.25 1.34.8 2.08 2.07 2A9.08 9.08 0 0 0 71 6.21c-1.5-1.49-2.09-2.55-2.75-2.58zm1379 862c.06-.39-1-1.31-1.54-1.33s-1.69.83-1.65 1.2c.08.78.77 1.49 1.51 2.74.84-1.24 1.58-1.87 1.7-2.64zm193.06-217.23c0 .37 1.14 1.15 1.72 1.11s1.52-1 1.44-1.41c-.16-.76-.92-1.39-1.78-2.54-.69 1.27-1.32 2.03-1.36 2.81zm-32.86-555.79c0-.36-1.07-1.23-1.64-1.22s-1.62.93-1.56 1.3c.12.77.85 1.45 1.65 2.65.76-1.25 1.46-1.95 1.55-2.73zm-26 373.43a7.05 7.05 0 0 0-1.6-2c-.57.65-1.36 1.24-1.61 2-.11.34.87 1 1.6 1.83.72-.81 1.71-1.5 1.6-1.87zm-143.4 416.56a6.87 6.87 0 0 0 2.13-1.42c-.61-.62-1.12-1.45-1.86-1.75-.34-.14-1.1.76-2 1.41.77.79 1.37 1.83 1.73 1.76zm-384.41 166.3c0-.42-1.36-1.42-1.63-1.28a3.24 3.24 0 0 0-1.51 1.93c-.09.42.85 1.05 1.66 2 .71-1.18 1.44-1.9 1.48-2.65zM1352 162.16c.1-.41-.88-1.09-1.37-1.65-.62.55-1.51 1-1.77 1.7-.16.43.63 1.22 1.24 2.28.85-1 1.68-1.58 1.9-2.33zM371.81 922.63c.26.76 1.06 1.33 1.64 2 .56-.67 1.41-1.27 1.59-2s-.53-1.41-1-2.5c-1.36 1.45-2.34 2.17-2.23 2.5zm1125.33-187.32c-.05.37 1 1.26 1.61 1.26s1.65-.89 1.6-1.27c-.11-.77-.82-1.46-1.61-2.7-.74 1.24-1.49 1.93-1.6 2.71zm-640.5 268.44c.74-.28 1.28-1.1 1.9-1.7a6.9 6.9 0 0 0-2.11-1.47c-.36-.09-1 .94-1.74 1.73.85.69 1.59 1.57 1.94 1.44zm513.29-779.91c.38.08 1.34-.92 1.37-1.47s-.77-1.72-1.15-1.69c-.78.05-1.52.71-2.81 1.42 1.17.85 1.82 1.59 2.58 1.75zM278.9 86.51c0-.38-1.13-1.18-1.72-1.14s-1.53 1-1.45 1.41c.16.76.92 1.4 1.78 2.57.69-1.35 1.35-2.06 1.39-2.84zm618.89 11.57A1.36 1.36 0 0 0 896 96.5c-.6.18-1.48 1.21-1.37 1.61.21.75 1.05 1.31 1.95 2.31.56-1.07 1.16-1.68 1.21-2.34zm456.36 81.47c-.3-.74-1.14-1.25-1.75-1.86a6.83 6.83 0 0 0-1.42 2.14c-.08.36 1 1 1.76 1.69.66-.86 1.56-1.63 1.42-1.97zM204.26 271.73c.39.11 1.09-.88 1.64-1.38-.56-.62-1-1.51-1.71-1.77-.43-.16-1.22.63-2.27 1.24 1 .87 1.58 1.7 2.34 1.91zm326 178.27c.4 0 1.14-1.16 1.08-1.73s-1.07-1.48-1.46-1.38c-.75.18-1.37 1-2.51 1.87 1.33.65 2.11 1.24 2.89 1.24zm676.15-389.5c.4.11 1.4-.78 1.58-1.39a1.35 1.35 0 0 0-1.58-1.8c-.66.07-1.26.67-2.32 1.27 1 .89 1.58 1.72 2.32 1.92zm-149.87 499.58c.42 0 1.42-1.36 1.27-1.63a3.23 3.23 0 0 0-1.93-1.5c-.42-.09-1.05.85-2 1.67 1.19.68 1.91 1.38 2.66 1.46zM558.66 4.41c.41.1 1.08-.88 1.64-1.38-.56-.62-1-1.5-1.71-1.76-.43-.16-1.21.64-2.27 1.26 1.01.87 1.6 1.7 2.34 1.88zm8.47 588.88a7 7 0 0 0 2.06-1.55c-.64-.59-1.2-1.4-2-1.67-.34-.12-1.07.83-1.89 1.54.82.76 1.49 1.78 1.84 1.68zM551.28 33.76c.75-.15 1.37-.91 2.05-1.42-.45-.6-.92-1.71-1.35-1.7-.75 0-1.47.74-2.62 1.41.89.84 1.5 1.79 1.92 1.71zM310.92 278.92c.75-.26 1.32-1.06 2-1.65-.67-.56-1.27-1.4-2-1.58s-1.42.52-2.53 1c1.49 1.37 2.2 2.31 2.53 2.23zm825.82-251.28c0 .38 1.15 1.15 1.73 1.11s1.51-1 1.43-1.42c-.16-.76-.93-1.39-1.8-2.55-.68 1.32-1.33 2.08-1.36 2.86zM595 73.5c.43 0 1.43-1.36 1.29-1.63a3.24 3.24 0 0 0-1.93-1.51c-.42-.09-1.06.85-2 1.66 1.17.7 1.89 1.43 2.64 1.48zm959.19 661c0-.43-1.11-.9-1.72-1.35-.5.69-1.27 1.32-1.41 2.08-.08.42.88 1 1.72 1.92.68-1.15 1.4-1.89 1.42-2.65zM1491 620.43a3.15 3.15 0 0 0 1.53 1.87c.28.14 1.63-.88 1.59-1.3-.06-.75-.8-1.44-1.51-2.54-.77.92-1.69 1.54-1.61 1.97zM142.89 174.91a3.17 3.17 0 0 0 1.87-1.55c.14-.28-.89-1.62-1.31-1.59-.75.06-1.44.81-2.55 1.52.93.79 1.58 1.71 1.99 1.62zm514.78 857c.7-.25 1.19-1.11 1.77-1.72-.54-.51-1.19-1.52-1.6-1.43-.75.17-1.36 1-2.39 1.82 1.04.67 1.8 1.49 2.22 1.34zm-449.15-821a3.19 3.19 0 0 0 1.54 1.88c.28.14 1.62-.88 1.59-1.3-.06-.75-.8-1.44-1.51-2.55-.79.95-1.72 1.6-1.62 2zm740-118.26a6.92 6.92 0 0 0 2.15-1.44c-.61-.62-1.14-1.45-1.88-1.76-.34-.14-1.11.77-2 1.44.73.83 1.35 1.87 1.7 1.79zM653.16 939.57c.17.76 1 1.36 1.56 2 .58-.64 1.39-1.2 1.65-2 .12-.34-.84-1.06-2.23-2.68-.47 1.25-1.14 2.05-.98 2.68zm1186.4-692.09a4.61 4.61 0 0 0-1.76-1.85c-.15-.1-1.32.76-1.27 1a13.69 13.69 0 0 0 1.34 2.81c.83-.92 1.81-1.67 1.69-1.96zm-11 510.25a2.26 2.26 0 0 0 1.43 1.58c.5.07 1.68-.92 1.61-1.22a9.62 9.62 0 0 0-1.69-2.55c-.73 1.03-1.48 1.68-1.39 2.19zM569.1 123.33a4.78 4.78 0 0 0-1.79-1.85c-.15-.1-1.32.77-1.27 1a13.68 13.68 0 0 0 1.35 2.8c.84-.91 1.83-1.68 1.71-1.95zm187.43 758.23c.08-.27-1-1.27-1.16-1.19a4.83 4.83 0 0 0-1.94 1.7c-.15.27.76 1.11 1.5 2.13a12.81 12.81 0 0 0 1.6-2.64zm22.94-581.81c.06-.27-1.09-1.13-1.24-1a4.72 4.72 0 0 0-1.78 1.83c-.12.28.86 1 1.69 2a13.25 13.25 0 0 0 1.33-2.83zM532.24 58.38a2.34 2.34 0 0 0-1.3-1.73c-.48-.13-1.77.76-1.73 1.07.11.78.76 1.5 1.46 2.7.78-.96 1.61-1.54 1.57-2.04zm1210.09 915.39c.28.11 1.36-.86 1.3-1a4.91 4.91 0 0 0-1.49-2.1c-.26-.17-1.19.64-2.3 1.3a12.6 12.6 0 0 0 2.49 1.8zM553 969.8a2.33 2.33 0 0 0 1.32 1.73c.49.13 1.77-.77 1.73-1.08-.1-.78-.76-1.5-1.46-2.69-.79.97-1.59 1.55-1.59 2.04zm978.72-695.06c.31.11 1.47-.9 1.46-1.38a2.28 2.28 0 0 0-1.37-1.64c-.52-.16-1.27.46-2.45 1 1.06.95 1.64 1.75 2.37 2.02zm-231.61 757.78a2.34 2.34 0 0 0-1.29-1.74c-.48-.13-1.78.76-1.74 1.07.1.79.75 1.51 1.46 2.72.8-.97 1.62-1.57 1.58-2.05zm108-478.48c1.28 1.9 2.82 1.67 5.5 1.08-2.14-1.94-3.43-3.19-5.5-1.12zM231.67 280.18a2.28 2.28 0 0 0 1.44 1.58c.5.07 1.68-.93 1.61-1.23A9.67 9.67 0 0 0 233 278c-.66 1-1.42 1.67-1.33 2.18zm156.74 654.34a4.84 4.84 0 0 0 1.7-1.93c.08-.14-.91-1.24-1.18-1.16a12.92 12.92 0 0 0-2.64 1.6c1.01.74 1.84 1.63 2.12 1.49zM255.5 561.22a4.65 4.65 0 0 0-1.84 1.77c-.1.15.77 1.32 1 1.26a13.61 13.61 0 0 0 2.81-1.35c-.93-.83-1.68-1.8-1.97-1.68zm1305.34 465.39c.28.11 1.43-.95 1.4-1.44a2.26 2.26 0 0 0-1.41-1.6c-.52-.14-1.26.51-2.4 1a10.26 10.26 0 0 0 2.41 2.05zm-707.65-19c.3.07 1.3-1.13 1.22-1.63a2.29 2.29 0 0 0-1.6-1.42c-.51-.09-1.15.67-2.2 1.35a9.78 9.78 0 0 0 2.58 1.69zM10 951.7a2.24 2.24 0 0 0 1.42-1.57c0-.49-1.09-1.55-1.38-1.45-.76.27-1.35 1-2.42 2 1.15.5 1.88 1.15 2.38 1.02zm368.4-312.53c.31.12 1.47-.89 1.46-1.37a2.28 2.28 0 0 0-1.36-1.64c-.51-.16-1.28.46-2.45 1 1.05.92 1.6 1.73 2.35 2.01zm-54.92-271.31a4.91 4.91 0 0 0 1.53-2.08c.06-.13-1-1.12-1.29-1a12.82 12.82 0 0 0-2.53 1.78c1.1.64 2.02 1.44 2.29 1.3zm302.67-147.41a4.61 4.61 0 0 0-1.75-1.85c-.15-.1-1.33.76-1.27 1a13.72 13.72 0 0 0 1.33 2.81c.83-.92 1.81-1.67 1.69-1.96zm1207.6 182.33a2.34 2.34 0 0 0-1.31-1.73c-.48-.13-1.77.77-1.73 1.08.11.79.76 1.5 1.47 2.7.82-.97 1.62-1.55 1.57-2.05zM794.4 1027.86c.27.08 1.28-1 1.2-1.16a4.89 4.89 0 0 0-1.71-2c-.28-.15-1.13.76-2.15 1.5a13.07 13.07 0 0 0 2.66 1.66zm-201.75-90.4c.32-.67 1-1.41.86-2s-.95-1.32-1.46-2c-.41.6-1.1 1.17-1.17 1.8s.46 1.38.72 2.07zM393 135.06a4.81 4.81 0 0 0 1.87 1.76c.15.09 1.28-.85 1.2-1.12a13.06 13.06 0 0 0-1.49-2.7c-.76 1-1.7 1.79-1.58 2.06zm1236.19.5c.3 0 1.21-1.24 1.08-1.72a2.34 2.34 0 0 0-1.72-1.31c-.49-.05-1.08.77-2.05 1.54 1.22.72 1.92 1.38 2.71 1.5zM576.1 384.34a4.86 4.86 0 0 0-2.07-1.5c-.13-.06-1.1 1-1 1.28a12.75 12.75 0 0 0 1.77 2.49c.65-1.09 1.47-2 1.3-2.27zm170.42 614.22a10.66 10.66 0 0 0-1.76-2c-.41.43-1.24 1-1.15 1.25a14.45 14.45 0 0 0 1.74 2.58c.65-.88 1.31-1.59 1.17-1.83zm-615.57-835c.57 0 1.17-.79 1.76-1.23-.45-.59-.82-1.54-1.37-1.66s-1.26.61-2.32 1.21c.86.84 1.38 1.71 1.93 1.73zm572.67 22c.57 0 1.16-.78 1.75-1.22-.45-.58-.82-1.52-1.37-1.65s-1.24.61-2.3 1.2c.86.88 1.38 1.75 1.92 1.76zM262.76 672.75c-.08-.56-1-1-1.51-1.52-.5.54-1.36 1.05-1.4 1.62s.8 1.13 1.52 2.05c.63-.97 1.47-1.62 1.39-2.15zm1293.6-214.39c0 .28 1 1 1.4.92.63-.17 1.13-.86 1.68-1.33l-1.9-1.8a7.44 7.44 0 0 0-1.18 2.21zm358.69 282c.27 0 1-1 .91-1.4-.17-.63-.85-1.13-1.32-1.68l-1.8 1.89a7.41 7.41 0 0 0 2.16 1.15zm-9.38-65.46c0-.57-.9-1.08-1.4-1.61-.53.5-1.43 1-1.5 1.53s.72 1.18 1.4 2.15c.71-.97 1.53-1.58 1.49-2.11zM781 930.81a5.75 5.75 0 0 0 .69-2.06c0-.46-.8-1.25-1.21-1.23-1.25.06-1.52 1-1.28 2.12.14.64.37 1.26.56 1.89zm870.23-156.27c.11.61.93 1.09 1.44 1.62.52-.72 1.31-1.4 1.44-2.18.07-.43-1-1-1.91-1.94-.53 1.14-1.12 1.89-1.01 2.51zm259.06-98.33c.56-.07 1-1 1.53-1.49-.53-.5-1-1.37-1.6-1.41s-1.14.78-2.06 1.5c.91.68 1.55 1.47 2.08 1.4zM425.43 926.51c.57 0 1.09-.88 1.63-1.38-.5-.54-.94-1.44-1.51-1.52s-1.19.71-2.17 1.38c.93.73 1.51 1.55 2.05 1.52zM32.18 631.16c.56-.12.94-1.05 1.4-1.63-.57-.46-1.15-1.27-1.72-1.27s-1.08.87-1.94 1.65c1.08.62 1.74 1.37 2.26 1.25zm1369.18 143c-2 .95-2 .95-2 3 2.43-.96 2.43-.96 2-2.96zm122.73-686.33c.51-.15.79-1.1 1.18-1.7a6.38 6.38 0 0 0-2.09-.69c-.41 0-.8.76-1.58 1.57 1.14.41 1.92.99 2.49.82zM1406.42 986.6a1.46 1.46 0 0 0 .39-2.9c-.52-.13-1.24.6-2.3 1.2.85.81 1.37 1.69 1.91 1.7zM515.16 170.14c0 .56.89 1.07 1.38 1.6.53-.49 1.42-.94 1.49-1.5s-.7-1.17-1.36-2.14c-.72.9-1.54 1.5-1.51 2.04zm27.92 282.23a1.46 1.46 0 0 0-2.89.35c0 .54.88 1.07 1.67 1.91.6-1.03 1.34-1.74 1.22-2.27zm77.84 363.17c-.57 0-1.16.79-1.74 1.23.45.58.83 1.52 1.38 1.64s1.25-.62 2.3-1.21c-.86-.8-1.39-1.66-1.93-1.67zm217.32 5.18c.46 0 .9-.74 1.34-1.15-.54-.48-1-1.27-1.63-1.34s-1.17.67-2.39 1.46c1.33.53 2.01 1.03 2.68 1.01zM644.3 149.22c.07.56 1 1 1.49 1.52.5-.53 1.36-1 1.41-1.6s-.78-1.14-1.49-2.07c-.71.93-1.47 1.61-1.41 2.15zm309.23 209.16c-.07-.56-1-1-1.48-1.52-.5.53-1.36 1-1.39 1.59s.78 1.13 1.49 2c.67-.9 1.45-1.54 1.38-2.07zM814.86 27.49c.57 0 1.08-.9 1.62-1.4-.5-.54-1-1.43-1.52-1.5s-1.18.71-2.16 1.38c.93.73 1.53 1.55 2.06 1.52zm-306.12 985.12a1.46 1.46 0 0 0-.33-2.9c-.54 0-1.07.88-1.93 1.66 1.02.63 1.73 1.35 2.26 1.24zm798.12-953.8c.46 0 1.24-.83 1.21-1.23-.09-1.23-1.07-1.59-2.14-1.22-.49.17-.82.79-1.6 1.6a7.86 7.86 0 0 0 2.53.85zm-99 849.77c-.09.22.79 1.23 1.17 1.2a5.7 5.7 0 0 0 2-1l-1.38-2.14c-.87.86-1.53 1.36-1.8 1.94zM419.24 382.12c0-.46-.8-1.24-1.21-1.22-1.25.06-1.59 1.05-1.24 2.11.16.49.78.83 1.58 1.63a7.94 7.94 0 0 0 .87-2.52zM1118.95 92.8a2 2 0 0 0-1.47-1.34c-.48 0-1.38.94-1.34 1.4s.86 1.14 1.6 2.14c.58-1 1.26-1.67 1.21-2.2zM746.7 85.54c.3-.65.94-1.38.81-1.93a2 2 0 0 0-1.63-1.14c-.47 0-1.17 1-1.18 1.56a6 6 0 0 0 .89 2.16zM565.12 71.75a2 2 0 0 0 1.16-1.63c0-.47-1-1.19-1.55-1.2-.71 0-1.43.6-2.93 1.31 2.05.99 2.77 1.65 3.32 1.52zm719.17-60.59c.6-.17 1-1 1.5-1.59-.57-.44-1.12-1.2-1.7-1.22s-1.05.8-1.92 1.55c.98.62 1.68 1.39 2.12 1.26zm130.92 989.17c.6-.07 1.12-.88 1.68-1.38-.47-.51-.88-1.36-1.42-1.45s-1.16.62-2.14 1.21c.86.78 1.43 1.68 1.88 1.62zM396.29 965.69c.07.6.88 1.12 1.38 1.68.51-.47 1.36-.88 1.45-1.42s-.62-1.16-1.2-2.13c-.79.85-1.69 1.42-1.63 1.87zm-68.43-18.56c.09-.34-.68-.9-1.06-1.36l-1.9 1.75 1.49 1.6c.61-.82 1.3-1.34 1.47-1.99zm1059.93-30.92a1.93 1.93 0 0 0 1.45-1.29 2 2 0 0 0-1.25-1.53c-.54-.1-1.22.58-2.24 1.15.92.8 1.44 1.61 2.04 1.67zM499.1 265.72a3.63 3.63 0 0 0-1.82-1.19c-.26-.06-1.13 1.07-1 1.18a12.82 12.82 0 0 0 1.92 1.8c.42-.83 1.04-1.63.9-1.79zm692.07-89c1.49.57 2.73.61 3.57-1.06-2.26-1.01-2.26-1.01-3.57 1.03zM610.59 815.19a6 6 0 0 0 2.16.87c.56 0 1.53-.69 1.57-1.14a2 2 0 0 0-1.12-1.64c-.54-.14-1.28.49-1.93.78zM1797 326.88a1.34 1.34 0 0 0-1.28.3c-.82 1.28-.28 2.15 1.57 2.87.71-1.34 1.12-2.4-.29-3.17zm-327.66 46.8c-.06-.55-.88-1-1.36-1.52-.52.53-1.34 1-1.45 1.61-.08.45.77 1.06 1.49 2 .64-.96 1.39-1.57 1.33-2.08zM145.63 671.16c-.1.14.78 1.32 1 1.26a4.08 4.08 0 0 0 1.88-1.2c.13-.14-.48-.95-.93-1.78a11 11 0 0 0-1.95 1.72zm1578.16-105.34c.6-.18 1-1 1.5-1.6-.56-.44-1.12-1.21-1.69-1.23s-1 .81-1.91 1.55c.97.63 1.67 1.41 2.1 1.28zm-377.64-249.06c0-.37-.82-.68-1.28-1a5.37 5.37 0 0 0-1 1.81c0 .37.68.83 1.44 1.66a7.85 7.85 0 0 0 .84-2.47zM387.9 626.31a3 3 0 0 0 1.2-1.62c.06-.33-.73-.83-1.13-1.25l-1.71 1.73c.74.54 1.49 1.25 1.64 1.14zm1063.19-73.68c-.49-.51-.91-1.19-1.52-1.46-.23-.1-1.13.66-1.24 1.15s.6.9 1.12 1.61zm313.48-61.38a5.81 5.81 0 0 0 1.24 1.78c.37-.47 1-.91 1-1.42s-.4-1.07-.81-2c-.71.77-1.51 1.31-1.44 1.64zm17.1-480.64a3 3 0 0 0-1.59-1.24c-.33-.07-.85.71-1.29 1.11l1.69 1.76c.52-.76 1.29-1.48 1.18-1.63zm-779.62 17.86c.32-.47.89-.94.9-1.41s-.54-1-.85-1.45L1000 27zm-6.52 126.6c.08.63.66 1.19 1 1.77.45-.36 1.25-.7 1.26-1.08a7.69 7.69 0 0 0-.89-2.41c-.7.86-1.42 1.34-1.37 1.72zm-478.3 863.81a6 6 0 0 0-.9-1.91c-.47.32-1.26.6-1.32 1a7.51 7.51 0 0 0 .66 2.45c.83-.78 1.6-1.2 1.56-1.54zm623.32-985.24c.38-.06.66-.85 1-1.32a5.94 5.94 0 0 0-1.91-.88c-.34 0-.76.73-1.53 1.55a7.5 7.5 0 0 0 2.44.65zm45.71 893c-.19.6-.6 1.23-.52 1.79a6.39 6.39 0 0 0 1 1.87c.46-.34 1.24-.64 1.29-1a5.06 5.06 0 0 0-.55-1.93zM684 34.75a6.47 6.47 0 0 0-1.63-1.37c-.21-.09-1.11.74-1.15 1.2s.65.92 1.21 1.63zM476.66 987.42c.05-.22-1-1-1.31-.92a2.38 2.38 0 0 0-1.35 1.4c-.13.49.36 1.15.8 2.33 1.2-1.69 1.72-2.23 1.86-2.81zm925.58 70.43c.37 0 .68-.83 1-1.29a5.39 5.39 0 0 0-1.81-.94c-.37 0-.82.68-1.65 1.44a7.81 7.81 0 0 0 2.46.79zM569.09 380.31a6.4 6.4 0 0 0-1.67-1.35c-.22-.08-1.09.77-1.14 1.25s.7.86 1.3 1.52zm404.6 677.51c.22.08 1.19-.85 1.12-1.14a5.85 5.85 0 0 0-1.2-1.73l-1.68 1.37c.72.68 1.17 1.28 1.76 1.5zm358.49-8a5.93 5.93 0 0 0-1-1.85c-.45.37-1.23.71-1.27 1.11-.05.62.41 1.28.84 2.4.74-.84 1.49-1.31 1.43-1.66zm-887-561.71c.23.06 1.07-.94 1-1.23a2.53 2.53 0 0 0-1.35-1.47c-.44-.15-1.11.41-2.2.88 1.49 1.11 1.98 1.71 2.58 1.82zm887.62 461.58c.09-.39-.65-1.39-.85-1.35a7.54 7.54 0 0 0-1.91 1l1.26 1.73c.7-.57 1.42-.9 1.52-1.38zm6.09-530.32c.08.63.66 1.19 1 1.78.45-.36 1.25-.7 1.26-1.08a7.69 7.69 0 0 0-.88-2.41c-.68.85-1.4 1.34-1.35 1.71zM493 638.43c-.06.23.95 1.06 1.23 1a2.53 2.53 0 0 0 1.46-1.36c.14-.45-.4-1.12-.87-2.23-1.08 1.49-1.63 1.99-1.82 2.59zM1417.81 467a2 2 0 0 0 1.42-.79 8.48 8.48 0 0 0-1-2l-1.75 1.2c.58.79.89 1.53 1.33 1.59zm-783.39 572.7a5.8 5.8 0 0 0-1.17-1.78c-.42.41-1.17.82-1.17 1.25 0 .62.51 1.24 1 2.3.71-.85 1.42-1.38 1.34-1.74zm617.35-806.65c.06 3.08 1.14 3.67 4 3.75zM832.45 90.37a5.9 5.9 0 0 0 1.2-1.73c.07-.28-.9-1.21-1.12-1.12-.59.22-1 .84-1.76 1.5zm-257.16 2.27c.05.35 1 .57 1.5.85.25-.57.71-1.15.67-1.7s-.66-.88-1.46-1.85c-.4 1.34-.81 2.06-.71 2.7zm-58.36 1.22c.05.52.65 1 1 1.48a5.89 5.89 0 0 0 1.32-1.69c.1-.32-.64-.89-1.31-1.75-.51.94-1.06 1.48-1.01 1.95zm1028.2 441.37c-.14-.48-1.08-1.21-1.29-1.1a6.09 6.09 0 0 0-1.45 1.54l1.75 1.23c.46-.73 1.1-1.31.99-1.67zm-138.4-438.48c.41 0 .77-.8 1.15-1.24a5.83 5.83 0 0 0-1.83-1.07c-.36-.06-.85.67-1.71 1.43 1.1.44 1.76.92 2.39.88zm123.58 15.75c.35-.05.57-1 .85-1.5-.57-.25-1.16-.71-1.7-.67s-.88.66-1.85 1.46c1.33.4 2.05.81 2.7.71zm-414.8 195.44c.39-.06.67-.85 1-1.31a5.91 5.91 0 0 0-1.9-.9c-.35 0-.76.73-1.55 1.56a7.54 7.54 0 0 0 2.45.65zm178.43-41.77a6.43 6.43 0 0 0-1.67-1.35c-.22-.08-1.09.77-1.14 1.26s.7.86 1.3 1.52zm208.15-46.79c0 .41.81.75 1.25 1.12a6 6 0 0 0 1-1.83c.06-.34-.67-.81-1.44-1.67-.39 1.12-.9 1.77-.81 2.38zm-410.9 655.77a5.09 5.09 0 0 0 1.83.48 6.41 6.41 0 0 0 1.85-.89c-.31-.47-.58-1.3-.93-1.34a5.51 5.51 0 0 0-2 .55zm383.23-309.88c-.49.08-1.3 1-1.21 1.22a6 6 0 0 0 1.41 1.6l1.37-1.58c-.68-.58-1.2-1.3-1.57-1.24zm109.55-43c.4 0 .73-.81 1.1-1.26a5.92 5.92 0 0 0-1.83-1c-.34-.06-.81.68-1.65 1.46 1.1.35 1.76.8 2.41.76zm-881.84-9.15a5.79 5.79 0 0 0 1.15 1.8c.42-.41 1.18-.8 1.19-1.22 0-.62-.49-1.25-1-2.33-.69.82-1.42 1.34-1.35 1.7zm-332.25-65.93c.39 0 1.12-.75 1.13-1.17s-.72-1.19-1.11-1.18c-.64 0-1.27.54-2.52 1.16 1.24.63 1.86 1.17 2.5 1.19zm1273.59 55.05c.38 0 .72-.82 1.08-1.26a5.35 5.35 0 0 0-1.78-1c-.37-.05-.86.67-1.72 1.42a7.67 7.67 0 0 0 2.42.84zm-1271.61 322a7.47 7.47 0 0 0-1.88-1c-.19 0-.92.95-.83 1.32s.82.81 1.5 1.41zm154.49 80.39c.3 0 .93-.72.86-.9-.2-.51-.64-1.18-1.08-1.26s-.88.59-1.8 1.28c1.01.45 1.51.85 2.01.86zm86.52-545.85a2 2 0 0 0-1.41-1c-.36 0-1.15.81-1.09 1.11.11.51.75.9 1.45 1.63.5-.84 1.18-1.46 1.04-1.76zm176.87-121c.31 0 .87-.84.79-1-.28-.48-.78-1.08-1.24-1.11s-.82.67-1.66 1.44a6.89 6.89 0 0 0 2.1.69zm-415.9 132.14c.05.43.73.89 1.23 1.11.17.07.92-.54.92-.85a7 7 0 0 0-.82-2c-.71.82-1.38 1.34-1.33 1.74zm884 708.07c0 .31.74.94.92.87.51-.21 1.19-.65 1.27-1.1s-.61-.89-1.31-1.81c-.42 1.05-.82 1.52-.83 2.05zm272.49-962.69c0-.32-.86-.88-1-.79-.48.28-1.08.8-1.11 1.26s.69.82 1.47 1.66a6.91 6.91 0 0 0 .64-2.13zM930.69 372c.29 0 1-.63 1-.81-.15-.52-.53-1.25-.94-1.34s-1 .49-1.95 1c.91.64 1.37 1.09 1.89 1.15zm37.86 1.15c0 .3.72.93.9.86.51-.2 1.18-.63 1.26-1.07s-.59-.88-1.27-1.8c-.44 1.02-.88 1.51-.89 2.02zM715.21 123.62c.25 0 .59-.59.88-.92a6.38 6.38 0 0 0-1.64-1.27c-.28-.1-.83.56-1.76 1.25a12.85 12.85 0 0 0 2.52.94zM1265 1061.51c0-.31-.74-.95-.91-.87-.51.21-1.19.67-1.25 1.1s.61.9 1.32 1.81c.47-1.02.84-1.55.84-2.04zm-596.66-1.89c0-.29-.63-1-.82-.94-.52.15-1.24.53-1.33.94s.5 1 1.06 1.93c.6-.94 1.05-1.41 1.12-1.92zm1173.26-932.9c.43-.05.9-.72 1.12-1.22.08-.17-.54-.92-.85-.92a7 7 0 0 0-2 .81c.88.71 1.36 1.39 1.76 1.34zM358.9 857.59c.44-.05.9-.73 1.12-1.24.08-.17-.55-.92-.85-.92a7 7 0 0 0-2.05.82c.88.75 1.39 1.39 1.78 1.34zM516.14 704c0-.31-.85-.87-1-.78-.48.28-1.08.79-1.11 1.25s.68.82 1.45 1.65a6.9 6.9 0 0 0 .66-2.12zm567.57 220.85c0 .3.73.93.9.86.51-.21 1.18-.64 1.25-1.08s-.6-.88-1.28-1.79c-.46.97-.86 1.47-.87 1.98zM539 133.65c.05.44.72.9 1.22 1.13.17.08.92-.54.93-.85a7 7 0 0 0-.8-2.06c-.69.9-1.35 1.39-1.35 1.78zm1364.6 907.29c0 .31.74.95.92.87.51-.21 1.2-.65 1.27-1.1s-.6-.9-1.3-1.82c-.49 1.03-.85 1.54-.86 2.05zm-1066.1-.34c0-.29-.62-1-.8-.94-.51.15-1.23.52-1.32.93s.48 1 1 1.91c.62-.93 1.08-1.38 1.15-1.89zm602.09-.71c.5-.13.88-.73 1.31-1.13-.41-.38-.9-1.14-1.23-1.07-.61.13-1.13.72-2.19 1.48 1.13.42 1.7.83 2.14.73zm116.64-359.25c0 .3.83.87 1 .78.48-.27 1.08-.77 1.13-1.23s-.67-.82-1.42-1.65a7 7 0 0 0-.68 2.1zm-751.69 357.14c.29 0 1-.63 1-.81-.15-.52-.53-1.25-.94-1.34s-1 .49-2 1c.96.62 1.4 1.08 1.94 1.15zM165.72 136.34c0-.31-.84-.88-1-.79-.48.27-1.09.79-1.12 1.24s.68.83 1.45 1.67a6.92 6.92 0 0 0 .67-2.12zm1052.22-44a10.43 10.43 0 0 0 1.19-1.77c.07-.17-.66-1-.78-.9a14.34 14.34 0 0 0-2 1.33zm214.4 122a5 5 0 0 0 1-1.86c0-.16-.81-.83-.93-.75a15.48 15.48 0 0 0-1.9 1.71c.9.56 1.73 1.08 1.82.98zM1292 941.14c-.25-.6-.92-1-1.42-1.51-.29.33-.88.71-.82 1a13.6 13.6 0 0 0 1.13 2.47c.61-1.04 1.24-1.66 1.11-1.96zM421 838.1c.1.5.72.89 1.12 1.33.39-.38 1.16-.82 1.11-1.13a8.71 8.71 0 0 0-1.33-2.3c-.55 1.1-1.04 1.66-.9 2.1zM131.87 416c.3 0 .93-.73.86-.91-.21-.51-.65-1.18-1.09-1.26s-.88.6-1.79 1.3c1.01.51 1.51.87 2.02.87zm528.42-276.1c0-.27-.81-.67-1.26-1-.34.48-.9.93-1 1.45s.44 1 1 2a9.6 9.6 0 0 0 1.25-2.41zm718.62 803c.08.52.64 1 1 1.43.44-.35 1.28-.75 1.24-1a9.31 9.31 0 0 0-1.29-2.42c-.54 1.04-1.03 1.56-.96 1.99zM572.08 195.72c.05.43.72.89 1.22 1.11.17.07.91-.54.91-.84a7 7 0 0 0-.81-2c-.7.85-1.4 1.33-1.32 1.73zm832 235.4c.43-.06.89-.73 1.11-1.24.07-.17-.55-.92-.85-.92a7 7 0 0 0-2 .83c.88.71 1.37 1.38 1.77 1.33zM40.49 613.08c0 .45.63 1 1.1 1.25.15.09 1-.47 1-.78a6.9 6.9 0 0 0-.63-2.12c-.78.83-1.49 1.25-1.47 1.65zm1518.73-.67c0 .3.73.94.91.87.51-.2 1.19-.65 1.27-1.08s-.6-.89-1.3-1.81c-.47 1.01-.87 1.52-.88 2.03zm323.78-8.19c.31 0 .87-.84.78-1-.27-.47-.78-1.07-1.23-1.1s-.81.67-1.64 1.44a6.8 6.8 0 0 0 2.09.66zM1442 465.9c.46.17 1.11-.15 1.68-.25-.27-.6-.41-1.38-.87-1.75-.29-.23-1.06.13-2.11.31.66.84.9 1.53 1.3 1.69zm-109 491.56a1.86 1.86 0 0 0 1-1.36c0-.43-.67-.86-1-1.29l-1.79 1.9c.9.39 1.51.89 1.85.75zM190.8 263.7c0-.29-.63-1-.82-1-.52.15-1.25.53-1.34.95s.49 1 1.06 2c.58-.96 1.03-1.43 1.1-1.95zm1023.43 239.42c.31 0 .87-.84.78-1-.28-.47-.79-1.07-1.24-1.1s-.82.68-1.65 1.45a6.86 6.86 0 0 0 2.11.65zM1323 191.6c0 .45.63 1 1.1 1.25.15.09 1-.46 1-.78a6.89 6.89 0 0 0-.62-2.12c-.81.83-1.48 1.25-1.48 1.65zM541.34 592.22c.31 0 .94-.73.87-.9-.21-.51-.65-1.19-1.08-1.25s-.9.61-1.8 1.3c.99.45 1.5.85 2.01.85zm1006.84 381.4c.05.44.74.9 1.25 1.13.17.08.93-.55.93-.86a7.09 7.09 0 0 0-.83-2.07c-.72.9-1.4 1.39-1.35 1.8zM529 285.82c.26 0 .59-.6.89-.93a6.5 6.5 0 0 0-1.67-1.26c-.28-.1-.82.58-1.74 1.29a12.69 12.69 0 0 0 2.52.9zm123.6 726.9c.32 0 .88-.85.79-1-.28-.48-.8-1.09-1.25-1.12s-.82.68-1.66 1.46a6.9 6.9 0 0 0 2.1.66zM491.27 802.47c.31 0 .94-.74.87-.9-.21-.5-.66-1.18-1.09-1.23s-.89.61-1.79 1.3a6.92 6.92 0 0 0 2.01.83zM314.44 287.86c.51-.09.92-.69 1.38-1.07-.36-.41-.78-1.21-1.07-1.17a9.19 9.19 0 0 0-2.38 1.28c1.08.53 1.63 1.04 2.07.96zm828.62 5c.3 0 .94-.74.87-.92-.21-.51-.65-1.19-1.09-1.27s-.89.6-1.81 1.3c.97.53 1.52.93 2.03.94zm-845.4 505.4c-.05.31.7.75 1.09 1.14.4-.44 1-.82 1.12-1.32s-.38-1-.86-2.1a8.75 8.75 0 0 0-1.35 2.28zm221.61-.18a5 5 0 0 0 1-1.84c0-.16-.8-.82-.92-.75a15.36 15.36 0 0 0-1.89 1.69c.9.46 1.72 1 1.81.9zm886.08-707.42c.06-.25-.5-.66-.78-1-.51.47-1.2.86-1.46 1.44-.14.3.47.94 1 2a13.34 13.34 0 0 0 1.24-2.44zM434.07 262.58c0-.31-.74-.95-.92-.88-.51.21-1.2.67-1.26 1.1s.62.9 1.32 1.82c.46-1.02.86-1.53.86-2.04zm1169.36 496.69c0-.29-.62-1-.8-.94-.51.15-1.24.52-1.33.93s.48 1 1 1.93c.61-.95 1.06-1.41 1.13-1.92zM301.19 989.68c.31 0 .87-.84.78-1-.28-.47-.79-1.07-1.24-1.1s-.81.68-1.64 1.45a6.82 6.82 0 0 0 2.1.65zM24.48 992c0 .31.84.87 1 .78.48-.27 1.08-.78 1.12-1.24s-.67-.82-1.44-1.65a6.94 6.94 0 0 0-.68 2.11zM1354 166.67c.05.43.73.89 1.24 1.1.17.07.92-.55.92-.85a7 7 0 0 0-.83-2c-.74.87-1.41 1.36-1.33 1.75zM234.08 1004.86c.51-.08 1-.63 1.43-1-.34-.44-.74-1.28-1-1.24a9.29 9.29 0 0 0-2.41 1.27c1.03.56 1.55 1.04 1.98.97zm962.7-954.12a11 11 0 0 0 1.89-1.14c-.3-.35-.66-1-.89-1a11.2 11.2 0 0 0-2.3 1c.67.59 1.12 1.22 1.3 1.15zm-451.47-13c0 .3.72.93.9.86.5-.2 1.17-.63 1.25-1.07s-.59-.88-1.27-1.78c-.47 1.02-.87 1.52-.88 2.02zm133-2.25c.26 0 .58-.85.88-1.32-.5-.31-1-.84-1.51-.87s-.89.53-1.86 1.17a9.53 9.53 0 0 0 2.52 1.06zm793.08 216.62c0 .3.83.86 1 .78.48-.27 1.08-.77 1.12-1.23s-.67-.81-1.42-1.64a6.9 6.9 0 0 0-.67 2.13zM59 156.57c.12.05.85-.76.77-.93a10.18 10.18 0 0 0-1.23-1.74L57 155.26a14.32 14.32 0 0 0 2 1.31zm529.2 726.61c0-.31-.84-.87-1-.79-.48.27-1.08.78-1.11 1.23s.68.82 1.44 1.65a6.83 6.83 0 0 0 .67-2.09zm707-54.66c0-.27-.94-1-1.19-.91a2 2 0 0 0-1 1.33c-.05.45.47 1 1 2a9.7 9.7 0 0 0 1.2-2.42zM1052.71 11.58c.43-.05.89-.73 1.1-1.23.07-.17-.54-.92-.84-.92a6.93 6.93 0 0 0-2 .82c.86.75 1.34 1.38 1.74 1.33zm662.7-3.09c.06.43.73.88 1.23 1.1.17.07.91-.54.91-.85a7 7 0 0 0-.82-2c-.73.87-1.38 1.35-1.33 1.75zM495 1020.67c.05.43.73.89 1.23 1.11.17.07.92-.54.92-.85a7 7 0 0 0-.81-2c-.74.86-1.41 1.35-1.34 1.74zm1406.5-254.21c0 .25.57.6.88.91a6 6 0 0 0 1.35-1.59c.11-.28-.57-.87-1.26-1.83a13.32 13.32 0 0 0-.97 2.51zM221.27 330.9c.33.07.84-.67 1.27-1-.43-.4-.8-1-1.3-1.15s-1 .29-2.16.67c1.07.74 1.58 1.35 2.19 1.48zm1037.59 5.17a1.84 1.84 0 0 0-1.21-1.18c-.42-.07-1 .52-1.44.82l1.45 2c.62-.79 1.28-1.3 1.2-1.64zm90.54 405.34c.32 0 .89-.86.8-1-.28-.48-.8-1.1-1.26-1.12s-.83.69-1.68 1.47a7 7 0 0 0 2.14.65zm-8.22-443.55c.06-.23-.52-.64-.82-1a6.33 6.33 0 0 0-1.23 1.24c-.09.15.46.67 1 1.35a6.3 6.3 0 0 0 1.05-1.59zm-674 233.48c0 .22.88.76 1 .69a3.9 3.9 0 0 0 1-1.39c0-.12-.61-.53-1.25-1.06a6.35 6.35 0 0 0-.74 1.76zm44.24-134.25a5.52 5.52 0 0 0 1-1.34c-.36-.25-.84-.78-1-.68a7 7 0 0 0-1.48 1.33c.75.35 1.32.81 1.49.69zm1005.47 3.73a3.85 3.85 0 0 0 1.47-.91c.08-.08-.38-1-.59-1a6.52 6.52 0 0 0-1.81.59c.47.66.83 1.35.94 1.32zM1496.18 120c0 .19.93.66 1 .56a3.76 3.76 0 0 0 .91-1.45c0-.1-.66-.46-1.34-.92a6.75 6.75 0 0 0-.57 1.81zM1607 950.62c.44-.08.77-.76 1.14-1.17-.46-.33-.92-.91-1.39-.92s-.88.59-1.72 1.23c.97.45 1.51.95 1.97.86zM687.36 131.78c.24 0 .6-.58.91-.89a6.31 6.31 0 0 0-1.33-1.13c-.16-.08-.64.51-1.26 1.05a6.22 6.22 0 0 0 1.68.97zm-160.25 53.06c.23.06.64-.52 1-.81a6.36 6.36 0 0 0-1.23-1.24c-.15-.09-.68.46-1.35.94a6.3 6.3 0 0 0 1.58 1.11zm832.1 787.95a3.39 3.39 0 0 0-1.09-1.31c-.08-.06-1 .58-.92.77a7.2 7.2 0 0 0 1 1.74c.48-.58 1.08-.99 1-1.2zM926.06 635.11c.19 0 .74-.91.66-1a3.32 3.32 0 0 0-1.39-1c-.16-.05-.55.59-1.09 1.21a7.1 7.1 0 0 0 1.82.79zm484.82 392.69a3.44 3.44 0 0 0 1.41-1c.08-.09-.47-1-.66-1a7.23 7.23 0 0 0-1.83.78c.53.63.93 1.27 1.08 1.22zM795.63 455.1a6.62 6.62 0 0 0-1.15 1.32c.34.27.79.84 1 .76A6.41 6.41 0 0 0 797 456c-.68-.47-1.24-1-1.37-.9zm-321.9 569.43a1.7 1.7 0 0 0-1.38-.88 1.56 1.56 0 0 0-1 1.22c0 .42.75.78 1.44 1.42.48-.82 1.07-1.42.94-1.75zm540-2.21c0-.48-.59-.95-.93-1.42-.42.38-1.1.72-1.19 1.17s.41 1 .87 2c.65-.86 1.26-1.31 1.25-1.74zm212.92-128.71a3.4 3.4 0 0 0 1.38-1c.08-.09-.46-1-.64-1a7.2 7.2 0 0 0-1.79.77c.52.62.91 1.29 1.05 1.24zm-595.32-64.49a6.59 6.59 0 0 0 1.15 1.31c.32-.3.94-.67.9-.89a6.3 6.3 0 0 0-1-1.67c-.53.63-1.12 1.13-1.05 1.25zM238 277.92c.22 0 .77-.88.7-1a3.91 3.91 0 0 0-1.39-1c-.12 0-.53.61-1.07 1.25a6.24 6.24 0 0 0 1.76.75zm773 91.91c.2.06.59-.58.9-.9a5.73 5.73 0 0 0-1.28-1.14c-.18-.08-.66.48-1.3 1a6.89 6.89 0 0 0 1.68 1.04zM265.37 266.7a6.84 6.84 0 0 0 1.43-1c-.28-.34-.59-1-.82-1a6.32 6.32 0 0 0-1.76.83c.56.59 1 1.23 1.15 1.17zm558.05 697.75c.23.13.77-.29 1.17-.45a5.29 5.29 0 0 0-.82-1.49c-.16-.15-.8.19-1.66.43.56.68.89 1.24 1.31 1.51zm-145.06-99.22a6.48 6.48 0 0 0 1.26 1.23c.3-.33.89-.75.83-1a6.35 6.35 0 0 0-1.13-1.6c-.49.69-1.05 1.23-.96 1.37zM414 850.65a3.36 3.36 0 0 0 1.1-1.31c0-.1-.73-.86-.92-.78a7.1 7.1 0 0 0-1.55 1.23c.68.43 1.23.96 1.37.86zm309.35 18.56c0-.48-.53-1-.83-1.45-.44.35-1.14.63-1.24 1.05s.36 1 .76 2c.7-.81 1.32-1.17 1.33-1.6zM580.21 282.47c0-.48-.59-.94-.92-1.41-.42.38-1.09.71-1.18 1.16s.4 1 .86 2c.64-.87 1.25-1.32 1.24-1.75zM1402 321a3.46 3.46 0 0 0 1.29-1.13c.06-.08-.6-1-.8-.91a7 7 0 0 0-1.73 1c.6.54 1.06 1.13 1.24 1.04zm262.33 474.92a3.9 3.9 0 0 0-1-1.43c-.07-.07-1 .46-1 .68a6.41 6.41 0 0 0 .7 1.8c.66-.51 1.33-.91 1.29-1.04zm-957-682.14a3.32 3.32 0 0 0 1.19-1.22c.06-.09-.66-.9-.86-.84a6.94 6.94 0 0 0-1.64 1.11c.61.49 1.11 1.05 1.28.96zm347.84 863.7a3.84 3.84 0 0 0 1.48-.91c.09-.09-.38-1-.59-1a6.57 6.57 0 0 0-1.83.59c.44.66.77 1.37.91 1.34zm286.41-884c.19 0 .73-.9.65-1a3.27 3.27 0 0 0-1.38-1c-.15-.05-.54.58-1.07 1.19a7.18 7.18 0 0 0 1.77.8zm-583.5 269.39a1.64 1.64 0 0 0-1.26-1 1.61 1.61 0 0 0-1.16 1.11c0 .4.67.84 1.29 1.53.55-.75 1.21-1.27 1.13-1.64zm356.82-153a3.48 3.48 0 0 0-1.08-1.34c-.07-.06-1 .57-.94.77a7.14 7.14 0 0 0 .94 1.77c.54-.55 1.18-.99 1.08-1.17zM415.82 913.53a3.32 3.32 0 0 0 1.22 1.18c.09.06.9-.66.84-.86a7 7 0 0 0-1.11-1.64c-.48.65-1.03 1.16-.95 1.32zm-14.65-838c.2.07 1-.7.91-.78a3.47 3.47 0 0 0-1.08-1.32c-.16-.1-.7.43-1.37.88a6.92 6.92 0 0 0 1.54 1.18zm1340.09-2a6.53 6.53 0 0 0 1.23-1.24c-.32-.3-.73-.89-1-.83a6.36 6.36 0 0 0-1.6 1.11c.71.43 1.23 1.02 1.37.94zM566.1 990.33c.1.43.8.71 1.24 1.06.31-.48.87-1 .86-1.44s-.64-.84-1.3-1.62c-.42.97-.9 1.55-.8 2zM1758.27 389a3.45 3.45 0 0 0 1.4-1c.08-.09-.45-1-.64-1a7.17 7.17 0 0 0-1.82.76c.53.67.91 1.32 1.06 1.24zM1364.75 63.48a6.61 6.61 0 0 0 1.32-1.14c-.3-.32-.66-.94-.89-.9a6.3 6.3 0 0 0-1.68 1c.63.56 1.11 1.12 1.25 1.04zm-904.21-3a3.86 3.86 0 0 0 1.41-1c.07-.07-.45-1-.67-1a6.41 6.41 0 0 0-1.78.69c.5.67.92 1.33 1.04 1.28zm854 564.65a3.94 3.94 0 0 0 1.43-1c.07-.07-.45-1-.68-1a6.42 6.42 0 0 0-1.8.69c.51.66.9 1.33 1.03 1.29zm-835.6-171.22a3.41 3.41 0 0 0 1.11 1.27c.08.06.94-.59.9-.79a7 7 0 0 0-1-1.71c-.51.6-1.08 1.06-1.01 1.23zm30.83-196c.25.14.8-.25 1.21-.4a5.66 5.66 0 0 0-.83-1.5c-.16-.15-.78.16-1.63.38.54.61.81 1.22 1.25 1.47zM1060 944.5c.21.06.91-.79.86-.87a3.4 3.4 0 0 0-1.23-1.19c-.18-.09-.67.48-1.3 1a6.89 6.89 0 0 0 1.67 1.06zm504.2-899.06a3.48 3.48 0 0 0 1.12 1.29c.08.06.95-.6.9-.8a7 7 0 0 0-1-1.73c-.52.61-1.1 1.07-1.02 1.24zm-2-5.2c.06-.2-.58-.6-.89-.9a5.75 5.75 0 0 0-1.14 1.28c-.08.17.48.66 1 1.29a6.88 6.88 0 0 0 1.04-1.66zM1022 41.57c.48 0 .95-.58 1.42-.91-.38-.42-.71-1.09-1.15-1.18s-1 .4-2 .85c.9.67 1.34 1.25 1.73 1.24zM20.75 1016.76c.22 0 .75-.88.69-1a3.88 3.88 0 0 0-1.38-1c-.12 0-.52.6-1.06 1.24a6.32 6.32 0 0 0 1.75.76zm350.13-776.15c.23.13.77-.27 1.17-.43a5.26 5.26 0 0 0-.82-1.49c-.16-.16-.8.18-1.65.41.56.69.84 1.25 1.3 1.51zm510.38 606.95a3.39 3.39 0 0 0 1.38-1c.08-.09-.45-1-.64-1a7.18 7.18 0 0 0-1.79.76c.52.68.9 1.29 1.05 1.24zm784.3-651.69a3.41 3.41 0 0 0-1.09-1.32c-.08-.06-1 .58-.93.78a7.21 7.21 0 0 0 1 1.75c.46-.58 1.09-1.08 1.02-1.21zM582.05 26.4a3.44 3.44 0 0 0 1.13 1.28c.08.06 1-.6.9-.8a7 7 0 0 0-1-1.72c-.53.61-1.08 1.07-1.03 1.24zm-188.17-1.17a1.59 1.59 0 0 0 1.12-1.14 1.65 1.65 0 0 0-1-1.28c-.36-.08-.89.57-1.63 1.11.63.63 1.11 1.32 1.51 1.31zm290.3 739.28a3.42 3.42 0 0 0 1.28-1.11c.06-.08-.59-.95-.79-.9a7 7 0 0 0-1.72 1c.61.5 1.05 1.08 1.23 1.01zm891.09-339c.07.46.71.83 1.1 1.24.36-.45 1-.87 1-1.35s-.54-.92-1.14-1.83c-.52 1-1.03 1.53-.97 1.97zM280.75 393.65a1.58 1.58 0 0 0 1.1-1.14 1.64 1.64 0 0 0-1-1.27c-.36-.08-.88.57-1.62 1.11.69.65 1.11 1.32 1.52 1.3zm1363.32-178.81c.26.14.82-.25 1.24-.41a5.75 5.75 0 0 0-.84-1.53c-.16-.16-.79.17-1.66.39.54.71.8 1.3 1.26 1.55zM903.41 6.38a3.44 3.44 0 0 0 1.13 1.3c.08.06 1-.6.92-.81a7 7 0 0 0-1-1.74c-.54.62-1.12 1.08-1.05 1.25zM540.06 941.8c-.06-.37-.56-.66-.87-1l-1 1.29 1.17.9c.29-.48.75-.87.7-1.19zM1685.21 522c.36 0 .68-.55 1-.86l-1.21-1.04-1 1.14c.49.35.87.84 1.21.76zM433.93 534.88c0-.34-.53-.65-.83-1a5.72 5.72 0 0 0-1 1.24c-.05.12.59.56 1 1 .39-.51.85-.89.83-1.24zM468 452.23c-.06-.36-.57-.66-.88-1l-1 1.3 1.18.89c.29-.48.7-.87.7-1.19zm735.14 265.15c-.36 0-.67.55-1 .85l1.25 1.08.95-1.13c-.5-.35-.88-.83-1.2-.8zm-668.72 6.91c.34 0 .62-.58.93-.89a5.9 5.9 0 0 0-1.3-.91c-.12 0-.51.62-.88 1.09.51.31.91.76 1.25.71zM1349 148.83c.35 0 .69-.48 1-.76-.39-.38-.72-.94-1.19-1.09s-.84.32-1.54.64c1.04.75 1.39 1.22 1.73 1.21zm-416.1-35.28c.34-.06.6-.6.9-.93a6.28 6.28 0 0 0-1.34-.88c-.11 0-.49.64-.83 1.12.53.31.95.75 1.28.69zm-340.75 1.25c-.07-.37-.59-.65-.91-1l-1 1.35 1.21.85c.31-.47.76-.88.7-1.2zm320.48 109.68c.36-.07.63-.6.94-.93a6.55 6.55 0 0 0-1.38-.88c-.11 0-.48.63-.83 1.1.53.32.95.77 1.27.71zm450.6 855.21l2.4.2.07-.86-2.39-.23zm268-606.68c.36-.06.66-.57 1-.88l-1.3-1-.89 1.18c.43.29.83.75 1.15.69zm-178-.82c.36 0 .66-.53 1-.82a6.38 6.38 0 0 0-1.29-1c-.11 0-.54.62-.93 1.1.47.32.86.76 1.19.72zm-318.9-253.9c.29.18.84-.07 1.27-.13a5.78 5.78 0 0 0-.45-1.54c-.07-.11-.81.17-1.42.32.22.57.27 1.17.58 1.35zm181.43 615.13c0-.36-.56-.67-.86-1a5.8 5.8 0 0 0-1 1.29c-.06.13.59.56 1 1 .38-.56.86-.95.83-1.29zm1.22 244c0-.34-.57-.62-.88-.93a5.87 5.87 0 0 0-.92 1.29c0 .12.61.51 1.08.88.29-.46.74-.86.74-1.19zM872.72 117.59c.33 0 .65-.53 1-.83a5.78 5.78 0 0 0-1.21-1c-.12-.06-.58.58-1 1 .49.35.85.83 1.21.83zM568.2 528.31c0 .33.51.68.79 1 .39-.38 1-.71 1.1-1.17s-.37-.81-.7-1.43c-.68.89-1.17 1.24-1.19 1.6zm554.56 529.13c.35 0 .67-.55 1-.85a5.78 5.78 0 0 0-1.27-1c-.13-.06-.57.57-1 1 .51.41.92.87 1.27.85zM731.1 508.05c.37 0 .68-.56 1-.86l-1.27-1.09-1 1.15c.55.35.94.84 1.27.8zm920.55 471.63c-.36 0-.67.54-1 .84l1.24 1.08.94-1.12c-.47-.35-.83-.83-1.17-.8zm-623-847.3c.35 0 .68-.54 1-.84-.4-.36-.76-.89-1.23-1s-.85.3-1.54.58c1.12.77 1.44 1.27 1.79 1.26zM635.94 985.61c0-.35-.55-.66-.86-1a5.9 5.9 0 0 0-1 1.28c-.05.12.58.54 1 .94.42-.5.92-.89.86-1.22zm1089.8-242.22c-.37 0-.68.55-1 .86l1.26 1.1 1-1.14c-.56-.36-.94-.86-1.26-.82zm-158.4-193.09c.36 0 .66-.54 1-.83a6.59 6.59 0 0 0-1.3-1c-.1 0-.54.63-.94 1.11.51.32.9.76 1.24.72zm37.16-468.72c0-.36-.53-.67-.83-1a6.49 6.49 0 0 0-1 1.3c0 .11.62.54 1.11.95.31-.52.75-.91.72-1.25zM499.84 205.71c.37 0 .68-.56 1-.86l-1.27-1.1-1 1.15c.55.35.93.84 1.27.81zm1019.26-37c0 .35.52.67.82 1l1.1-1.23-1.12-1c-.36.52-.83.86-.8 1.21zm-844.8-31.9c.36 0 .66-.53 1-.83a6.45 6.45 0 0 0-1.3-1c-.11 0-.54.62-.94 1.1.51.33.94.77 1.24.73zm-198 897.83c0 .34.5.7.78 1.05a5.69 5.69 0 0 0 1.11-1.17c.07-.13-.54-.62-.95-1.07-.39.5-.91.84-.92 1.19zm441-897.05c-.07-.37-.61-.65-.95-1a6.62 6.62 0 0 0-.9 1.4c0 .12.64.5 1.12.86.32-.51.78-.93.72-1.26zM300 73.54c.33 0 .69-.48 1-.75l-1.1-1.2-1.11 1c.51.41.85.93 1.21.95zm-26.26-2.2c0-.34-.53-.65-.83-1a5.79 5.79 0 0 0-1 1.24c-.05.12.6.56 1 1 .39-.51.85-.89.83-1.24zm540.73 950.08c.36 0 .66-.56 1-.88a6.06 6.06 0 0 0-1.31-1c-.12-.05-.54.59-.93 1.05.51.41.91.86 1.24.82zm768.81-189.23c.34 0 .7-.5 1.05-.78a5.54 5.54 0 0 0-1.17-1.1c-.13-.07-.62.53-1.07.95.5.4.84.92 1.19.92zM1247.23 67.53c0 .34.51.67.8 1 .36-.39.89-.72 1-1.18s-.33-.8-.63-1.41c-.67.9-1.17 1.25-1.17 1.59zm176.64 857c-.05-.36-.58-.65-.9-1a6.23 6.23 0 0 0-.92 1.34c0 .12.61.51 1.07.89.33-.51.8-.91.75-1.24zM560.3 462c-.06-.36-.57-.64-.88-1a6.69 6.69 0 0 0-.92 1.35c0 .1.65.5 1.14.86.3-.49.72-.9.66-1.21zm413-294.35c.35 0 .7-.48 1.05-.74-.37-.4-.69-1-1.14-1.13-.29-.11-.8.34-1.43.64.88.7 1.22 1.2 1.54 1.2zm67.7 383.48c0 .35.53.69.82 1 .36-.4.9-.75 1-1.22s-.33-.82-.63-1.46c-.7.97-1.19 1.33-1.19 1.68zM611.16 801.08c-.06-.35-.61-.61-.95-.91a6.37 6.37 0 0 0-.88 1.38c0 .11.66.49 1.15.83.3-.53.74-.96.68-1.3zm-135.28 223.51c0 .35.44.73.69 1.09l1.25-1.11-1.06-1.13c-.38.47-.87.8-.88 1.15zm1142.54-239c0 .33.48.69.74 1l1.2-1.1-1-1.1c-.43.48-.92.82-.94 1.18zm-60.06-734.31c.36-.06.65-.58 1-.91a6.24 6.24 0 0 0-1.34-.92c-.12 0-.51.61-.88 1.07.49.35.86.81 1.22.76zM452.95 257.52c.34 0 .7-.49 1-.76a5.5 5.5 0 0 0-1.16-1.09c-.13-.07-.61.53-1.06.94.53.39.87.91 1.22.91zm861 615.72c.34 0 .68-.52 1-.81-.39-.37-.73-.9-1.19-1s-.8.34-1.43.64c.94.68 1.29 1.18 1.67 1.18zm460.83-91.9c.34 0 .65-.54 1-.84a5.79 5.79 0 0 0-1.26-1c-.12-.05-.56.6-1 1.06.54.35.92.81 1.28.79zM839.75 300.83c0 .35.54.68.84 1 .36-.41.89-.77 1-1.25s-.29-.86-.57-1.57c-.78 1.09-1.29 1.46-1.27 1.82zm-681.23 91c0 .36.44.73.7 1.09l1.26-1.11-1.06-1.13c-.42.51-.89.84-.91 1.19zm974.77 531.26c.29.18.83-.06 1.27-.12a5.75 5.75 0 0 0-.43-1.54c-.07-.11-.81.16-1.42.3.22.61.29 1.2.58 1.39zm461.11-177c.36-.06.65-.59 1-.91a6.34 6.34 0 0 0-1.35-.92c-.12 0-.51.62-.88 1.08.49.34.9.81 1.23.75zm37.27-479.33c0 .34.51.68.8 1 .37-.39.9-.73 1-1.18s-.34-.8-.64-1.41c-.65.9-1.15 1.25-1.15 1.6zM139.81 308.85c0-.36-.54-.67-.84-1a6.49 6.49 0 0 0-1 1.31c0 .11.63.54 1.11.94.33-.52.77-.91.73-1.25zM732.5 161.67c0-.36-.53-.66-.83-1a6.47 6.47 0 0 0-1 1.3c0 .1.62.54 1.1.93.33-.5.76-.9.73-1.23zm476.3 91.27c.35 0 .71-.44 1.07-.69l-1.1-1.23-1.11 1c.47.43.8.91 1.14.92zm-98.08 646.76c-.08-.36-.59-.63-.92-.94l-1 1.36 1.22.8c.34-.49.77-.92.71-1.21zm-492.78-1.19c0-.35-.57-.65-.88-1a6 6 0 0 0-1 1.31c-.05.12.59.53 1 .92.46-.5.94-.89.89-1.23zm896.52-127.15c.33 0 .65-.52 1-.82-.39-.37-.72-.91-1.18-1s-.85.31-1.53.59c1.01.75 1.36 1.23 1.72 1.23zm-274.3-576.67c.33 0 .65-.52 1-.81-.39-.37-.72-.91-1.18-1s-.84.32-1.5.61c.97.72 1.32 1.2 1.68 1.2zm-872-168.23c.34 0 .64-.53 1-.83a5.78 5.78 0 0 0-1.24-1c-.12-.05-.55.6-1 1 .52.37.9.85 1.25.83zM1176.1 438c-.37 0-.68.55-1 .86l1.27 1.1 1-1.15c-.55-.31-.94-.81-1.27-.81zM986.65 24.69c.36 0 .66-.54 1-.84a6.56 6.56 0 0 0-1.31-1c-.1 0-.54.63-.93 1.12.51.32.91.76 1.24.72zM1211 18.46c-.06-.36-.56-.64-.87-1a6.56 6.56 0 0 0-.92 1.34c0 .1.64.5 1.13.87.34-.47.76-.88.66-1.21zm-607.74-7.22c0 .35.51.68.79 1l1.13-1.18-1.07-1c-.37.5-.87.85-.85 1.18zm177.07 511.59c.34 0 .7-.49 1-.77a5.52 5.52 0 0 0-1.17-1.1c-.13-.07-.61.53-1.06.94.54.42.9.92 1.23.93zm-563.89 417.7c.35 0 .71-.47 1.06-.73-.37-.4-.68-1-1.14-1.14-.28-.11-.79.35-1.39.66.82.68 1.14 1.21 1.47 1.21zM84.31 481c-.05-.36-.59-.66-.92-1a6.35 6.35 0 0 0-.93 1.35c0 .12.62.52 1.08.89.35-.48.82-.89.77-1.24zm207.57 12.74c0 .36.48.71.74 1.07.41-.38 1-.69 1.16-1.15.11-.28-.36-.8-.67-1.41-.72.85-1.23 1.18-1.23 1.51zM153 639.18c.35-.06.61-.61.91-.95a6.38 6.38 0 0 0-1.37-.88c-.11 0-.49.65-.83 1.14.54.31.97.75 1.29.69zm226.77 301.31c0 .36.45.73.7 1.09l1.25-1.11-1.06-1.13c-.39.48-.88.81-.89 1.15zm527.49-786.85c-.05-.36-.58-.65-.91-1a6.22 6.22 0 0 0-.92 1.34c0 .12.61.51 1.07.88.35-.49.81-.86.76-1.22zm47.42 826.71c.36-.07.64-.61 1-.94a6.55 6.55 0 0 0-1.38-.9c-.12 0-.5.63-.85 1.11.49.33.91.79 1.23.73zM1438.91 248c0-.15-.56-.46-.71-.39a3.77 3.77 0 0 0-.86.81l1.16.82a4.31 4.31 0 0 0 .41-1.24zm-560.46-11.75c0 .15.52.24.8.36a6.37 6.37 0 0 0 .34-1.3c0-.1-.52-.23-1-.42a5.15 5.15 0 0 0-.14 1.36zm470.4-1.22c0-.1-.51-.5-.69-.44-.36.12-.86.41-.92.7s.27.79.61 1.64a11.28 11.28 0 0 0 1-1.93zm-750.19-49.24c.15 0 .24-.53.36-.81a6.46 6.46 0 0 0-1.31-.34c-.1 0-.23.52-.42 1a5.13 5.13 0 0 0 1.37.15zm720.16-1.79c0-.09-.5-.49-.68-.43-.35.11-.85.4-.9.69s.26.78.59 1.64a11.55 11.55 0 0 0 .99-1.9zm123.09-33.47c.16-.27.53-.66.45-.79a4.21 4.21 0 0 0-.92-.87l-.61 1zm-197-18.66a1.46 1.46 0 0 0-.91-.93c-.22-.06-.87.55-.85.82s.51.71 1 1.26c.36-.52.85-.91.79-1.18zm253-6.38c.16-.27.53-.67.45-.8a4.21 4.21 0 0 0-.93-.86l-.59 1zm-831.59 944.42c.21.05.5-.24.76-.38-.2-.33-.35-.86-.62-.93s-.71.25-1.37.53a5.2 5.2 0 0 0 1.23.78zm-344.7-4.91c0-.13-.53-.48-.68-.42a3.72 3.72 0 0 0-.9.74l1.09.91a4.83 4.83 0 0 0 .49-1.23zm1082.69-45.33c.05-.21-.24-.51-.38-.77-.33.2-.86.35-.94.62s.26.72.54 1.37a5.24 5.24 0 0 0 .77-1.25zm184.1-921.48c0-.16-.52-.26-.8-.38a6 6 0 0 0-.34 1.3c0 .11.52.24 1 .44a5 5 0 0 0 .14-1.39zm-246.84 908.56a6.67 6.67 0 0 0 1.31-.3c-.1-.29-.17-.79-.31-.82a5.29 5.29 0 0 0-1.36.12c.15.44.27.97.35.97zm-136.49-32.38c0 .09.48.51.66.47a3.91 3.91 0 0 0 1-.63l-1-1.05a6.36 6.36 0 0 0-.66 1.18zm-631.84-15a1.5 1.5 0 0 0 .91-.93c.06-.19-.56-.83-.82-.8s-.71.5-1.24.93c.49.37.91.87 1.15.81zm284.53-8.59c-.17.27-.54.66-.46.79a4.27 4.27 0 0 0 .92.88l.62-1zm-175.68-14.47c.14 0 .47-.56.4-.71a3.77 3.77 0 0 0-.81-.87l-.84 1.15a4.43 4.43 0 0 0 1.25.43zm751.89-2a4.29 4.29 0 0 0-.84-.95c-.12-.08-.78.36-.76.43a6 6 0 0 0 .59 1.11zm-960.87-1.22c0-.15-.52-.24-.81-.36a6.16 6.16 0 0 0-.33 1.31c0 .1.52.24 1 .43a5.28 5.28 0 0 0 .14-1.35zm440.69-70.52a1.5 1.5 0 0 0 .94.92c.21.05.85-.57.83-.84s-.51-.72-1-1.26c-.32.54-.82.94-.76 1.2zm-305.36-5.29l1-.82-1-.84-.48.82zm543.36-2.63a1 1 0 0 0 .73-.32c-.06-.36-.19-.91-.42-1s-.76.17-1.45.38a5.42 5.42 0 0 0 1.15.96zm-1001.13-21c.19.06.5-.24.76-.38-.18-.33-.31-.88-.56-1s-.73.23-1.39.47a5.32 5.32 0 0 0 1.2.92zm726.61-7.45c.13 0 .48-.53.42-.68a3.75 3.75 0 0 0-.75-.9l-.91 1.09a4.74 4.74 0 0 0 1.25.5zm409-6.55c-.1 0-.49.51-.44.68.11.36.4.86.69.91s.79-.26 1.64-.6a11.44 11.44 0 0 0-1.92-.98zm-751.4-26.48c.07 0 .52-.62.45-.74a4.39 4.39 0 0 0-.93-.86l-.61 1a5.7 5.7 0 0 0 1.06.61zm70.55-9.1c0 .09.44.52.61.49a4 4 0 0 0 1-.57l-.9-1.08a6.37 6.37 0 0 0-.74 1.17zm-416.94-7.9c.07 0 .53-.63.45-.74a4.39 4.39 0 0 0-.94-.86l-.61 1a5.61 5.61 0 0 0 1.07.61zm1219.38-2c.09 0 .51-.47.46-.64a3.86 3.86 0 0 0-.63-1l-1 .94a6.4 6.4 0 0 0 1.15.71zm-72-694.33c0-.09-.5-.49-.68-.43-.36.11-.85.4-.91.69s.26.79.59 1.64a11.55 11.55 0 0 0 .96-1.89zm-1105 648c0-.15-.52-.25-.81-.37a6.1 6.1 0 0 0-.34 1.31c0 .11.52.24 1 .44a5.28 5.28 0 0 0 .11-1.35zm381.4-.71c.08.38.58.67.89 1 .31-.3.87-.62.86-.9s-.5-.71-.94-1.25c-.41.53-.91.92-.85 1.19zm510.05.25c.15 0 .24-.53.35-.81a6.28 6.28 0 0 0-1.31-.33c-.1 0-.23.52-.42 1a5.36 5.36 0 0 0 1.34.18zm66.34-8.3c.1 0 .5-.51.44-.69-.12-.36-.41-.86-.7-.92s-.79.27-1.64.61a11.4 11.4 0 0 0 1.86 1.04zm-451.44-.81c.38-.09.66-.58 1-.9-.31-.3-.63-.85-.91-.83s-.7.51-1.24 1c.45.36.84.83 1.11.77zM1194.9 72.79c.19.06.74-.31.72-.37-.1-.36-.26-.9-.52-1s-.74.22-1.4.47a5.34 5.34 0 0 0 1.2.9zM765.56 702c0 .09.44.54.61.5a4.1 4.1 0 0 0 1.06-.57l-.9-1.1a6.34 6.34 0 0 0-.77 1.17zm1117.8-4.86c.09 0 .53-.44.49-.6a4 4 0 0 0-.57-1l-1.09.9a6.29 6.29 0 0 0 1.16.68zM1530.08 661c.15 0 .47-.56.4-.71a3.77 3.77 0 0 0-.81-.86l-.83 1.16a4.31 4.31 0 0 0 1.24.41zM493.32 634.05a4.29 4.29 0 0 0 .94-.84c.08-.12-.36-.77-.43-.75a5.88 5.88 0 0 0-1.1.58zM351.17 65.8c-.09 0-.49.5-.44.68.11.36.4.85.69.91s.78-.26 1.63-.6a11.44 11.44 0 0 0-1.88-.99zm904-.49c.27.16.67.53.8.45a4.17 4.17 0 0 0 .87-.92l-1-.61zM979.84 618.92c0 .09.47.51.64.46a3.85 3.85 0 0 0 1-.62l-.94-1a6.37 6.37 0 0 0-.7 1.16zm569.25-12.73c-.06.2.25.51.39.77.34-.19.88-.31 1-.57s-.23-.74-.49-1.4a5.33 5.33 0 0 0-.9 1.21zM499.91 595.46c-.27-.16-.66-.52-.8-.44a4 4 0 0 0-.88.9l1 .61zm999.55-6.36c0 .28.54.61.84.91.32-.33.81-.61.9-1s-.41-.67-.76-1.17c-.44.55-.94.88-.97 1.25zM647 572.93c.07 0 .53-.62.45-.74a4.38 4.38 0 0 0-.93-.87l-.61 1a5.68 5.68 0 0 0 1.09.61zm-286.1-6.57a1 1 0 0 0 .74-.33c-.05-.36-.19-.93-.42-1s-.77.17-1.48.38a5.52 5.52 0 0 0 1.16.95zm799.4-1.17a5 5 0 0 0 1.23-.15c-.12-.35-.17-.94-.38-1s-.77.14-1.19.24c.14.42.22.9.34.91zm-614.9-5.74c.08.31.06.79.25.88a6.47 6.47 0 0 0 1.48.36l-1.06-1.77zm-29.56-7.55c.07 0 .53-.62.46-.74a4.45 4.45 0 0 0-.93-.87l-.61 1a5.57 5.57 0 0 0 1.08.62zM832.48 47.38a1.46 1.46 0 0 0 .9.93c.23.05.87-.54.85-.82s-.5-.7-.94-1.25c-.37.49-.87.88-.81 1.14zm862.73 474.54c.16-.27.53-.66.45-.79a4.2 4.2 0 0 0-.91-.86l-.59 1zm-939.58-9.76a1.44 1.44 0 0 0 .91.91c.21.06.85-.54.82-.8s-.49-.71-.91-1.24c-.37.48-.88.86-.82 1.13zm236.49-3a5 5 0 0 0 1.23-.14c-.12-.35-.17-.94-.38-1s-.77.14-1.19.24c.14.37.22.86.33.87zM183.93 40.26c0 .09.47.51.64.47a3.87 3.87 0 0 0 1-.63l-.95-1a6.28 6.28 0 0 0-.69 1.16zm407.72 825.28a5 5 0 0 0 1.22-.14c-.12-.35-.17-.94-.38-1s-.77.14-1.18.24c.15.36.22.89.34.9zM417.81 498.07c.38-.09.66-.58 1-.9-.3-.3-.63-.86-.9-.84s-.7.51-1.23 1c.48.31.87.8 1.13.74zm-79.64-10.82c-.17.27-.53.66-.46.79a4.23 4.23 0 0 0 .91.87l.62-1zm1426.88-15.15a6.62 6.62 0 0 0 1.3-.3c-.1-.28-.17-.79-.31-.81a5.31 5.31 0 0 0-1.35.11c.16.47.31 1 .36 1zm-1391.93-5.39c0 .09.44.53.6.49a4 4 0 0 0 1-.57l-.89-1.09a6.28 6.28 0 0 0-.71 1.17zm831-13.52c-.17.27-.53.66-.46.79a4.26 4.26 0 0 0 .92.87l.62-1zm-604-3c-.09-.38-.58-.67-.9-1-.3.31-.87.63-.85.91s.52.71 1 1.25c.39-.5.88-.9.81-1.16zM416 440.17c0 .28.52.6.82.9.33-.32.83-.59.92-1s-.43-.67-.79-1.17c-.45.57-.95.9-.95 1.27zm410.36-2.42c.28 0 .61-.53.92-.83-.32-.32-.6-.82-1-.91s-.67.42-1.17.76c.55.46.89.95 1.24.98zm-262-410.26c0-.21-.27-.5-.42-.75-.32.23-.84.4-.92.69s.3.7.61 1.32a5.16 5.16 0 0 0 .71-1.26zm69.15 408.73c-.1 0-.5.51-.44.69.12.36.41.87.7.92s.79-.27 1.65-.61a11.57 11.57 0 0 0-1.93-1zm820.69-13.06c-.09-.38-.59-.67-.91-1-.3.31-.87.64-.84.92s.52.71 1 1.26c.31-.51.79-.91.73-1.18zm-288.33-24c.19.06.5-.24.76-.38-.18-.33-.31-.87-.57-.95s-.73.23-1.39.47a5.33 5.33 0 0 0 1.18.85zm334.41-9c.21.05.51-.25.76-.39-.21-.33-.36-.86-.63-.93s-.71.26-1.37.55a5.19 5.19 0 0 0 1.22.74zm247.19-7.71c0 .15.52.25.81.36a6.38 6.38 0 0 0 .34-1.3c0-.1-.52-.23-1-.42a5.12 5.12 0 0 0-.17 1.33zm-343.27-7.73a1.48 1.48 0 0 0 .92-.92c.06-.2-.55-.85-.81-.82s-.71.5-1.25.92c.47.34.86.85 1.13.79zM342.66 341.84a1.5 1.5 0 0 0-.93-.92c-.2-.06-.85.55-.82.82s.5.72.92 1.26c.38-.51.89-.9.83-1.16zm398.46-7.72c0-.13-.53-.48-.69-.42a3.74 3.74 0 0 0-.9.75l1.1.91a4.79 4.79 0 0 0 .49-1.25zm741.25-28.27c.27 0 .89-.6.83-.81a1.47 1.47 0 0 0-.9-.94c-.27-.06-.67.44-1.17.81.54.43.87.9 1.24.93zm43.63-4.17c.16-.27.53-.66.45-.8a4.17 4.17 0 0 0-.92-.86l-.59 1zm-152.69-9.77a1.45 1.45 0 0 0 .92.91c.21.06.86-.54.83-.8s-.49-.72-.91-1.26c-.37.48-.88.87-.83 1.14zm-917.11-7.13c0-.21-.27-.5-.42-.75-.32.22-.84.4-.91.68s.29.69.6 1.31a5.11 5.11 0 0 0 .73-1.24zm924.37-15.38c.28.16.82-.11 1.24-.19-.13-.42-.15-1-.44-1.23s-.81 0-1.51 0c.32.66.4 1.24.72 1.42zm-847.29.15c.27.16.67.53.8.45a4.23 4.23 0 0 0 .87-.93l-1-.61zM1395.09 256a1 1 0 0 0 .74-.33c-.06-.36-.19-.92-.42-1s-.76.18-1.47.38a5.47 5.47 0 0 0 1.15.95zm-194.47 70.57c0-.18-.59-.55-.69-.49a4.92 4.92 0 0 0-.87.92l1.14 1a5.26 5.26 0 0 0 .42-1.44zM557.49 873.41a4.21 4.21 0 0 0 .91-.78c.08-.12-.22-.5-.34-.75l-1 .62zm0 70.67l.91-.66c-.2-.23-.36-.58-.61-.66s-.44.3-.67.47zm601.71-218.84c.26.12.62.42.75.34a4.05 4.05 0 0 0 .79-.88l-.9-.46zM550.85 218.93l-.84.31.42 1.13.7-.59zM324 789.22c.16.05.69-.4.66-.52a4.64 4.64 0 0 0-.59-1.11l-1.34.77a5.81 5.81 0 0 0 1.27.86zm374.5-577.47c-.07.15.32.74.45.72.4-.05 1-.21 1.1-.5s-.27-.74-.55-1.38a5.77 5.77 0 0 0-1 1.16zm653.58-17.22c.15.07.73-.31.72-.44-.05-.4-.2-1-.49-1.1s-.74.26-1.38.53a5.69 5.69 0 0 0 1.15 1.01zm-246.3 714.82c.15.07.72-.31.7-.44-.05-.39-.21-1-.49-1.08s-.73.26-1.35.53a5.62 5.62 0 0 0 1.14.99zm327.78-726.66a7.77 7.77 0 0 0 1.17-.43 1.47 1.47 0 0 0-.21-.71 6.58 6.58 0 0 0-1.23.2zm276.84 38.87c.16.08.77-.25.76-.37 0-.41-.12-1-.4-1.16s-.76.21-1.41.44a5.43 5.43 0 0 0 1.05 1.09zm-204.8-6.32l.91-.66c-.2-.24-.37-.58-.62-.67s-.45.3-.67.47zM1051 259.52c.18 0 .54-.59.48-.68a4.82 4.82 0 0 0-.9-.86l-1 1.12a5.18 5.18 0 0 0 1.42.42zm221.13 546c-.06.16.36.71.48.69.4-.07 1-.26 1.08-.55s-.31-.73-.61-1.36a5.82 5.82 0 0 0-.92 1.19zM330.69 243.85c.08-.15-.25-.76-.37-.75-.41 0-1 .13-1.14.4s.21.75.43 1.39a5.44 5.44 0 0 0 1.08-1.04zm281.73 713.86c0 .16.39.68.52.65a4.53 4.53 0 0 0 1.09-.58l-.77-1.33a5.71 5.71 0 0 0-.84 1.26zm857.16 63.08c-.15.25-.47.61-.4.71a4.8 4.8 0 0 0 .9.83l.51-.89zm-261-877.27a4.27 4.27 0 0 0 1.19-.18c-.11-.26-.17-.69-.34-.75a4.54 4.54 0 0 0-1.29 0c.24.41.33.91.47.92zm124.47 897c.16.06.71-.37.69-.5-.08-.4-.27-1-.56-1.08s-.74.32-1.36.64a5.92 5.92 0 0 0 1.26.94zm182.08 38.6c-.25-.14-.62-.47-.72-.4a4.87 4.87 0 0 0-.83.91l.92.49zM660.29 108.81a4.72 4.72 0 0 0-.92-.82c-.13.26-.43.59-.36.76a4.25 4.25 0 0 0 .82 1c.23-.46.54-.83.46-.94zM213.71 552.94c.25 0 .76-.3.74-.41 0-.4-.18-1-.46-1.11s-.73.25-2.23.85a11.21 11.21 0 0 0 1.95.67zm960.88 32.92c0-.18-.59-.55-.69-.49a4.86 4.86 0 0 0-.88.91l1.13 1a5.24 5.24 0 0 0 .44-1.42zm-785.84-78.71c.08-.16-.25-.77-.36-.76-.41 0-1 .12-1.15.4s.21.75.43 1.41c.5-.47.89-.7 1.08-1.05zm958.5-431.48c-.05.16.39.68.52.65a4.59 4.59 0 0 0 1.1-.58l-.77-1.33a5.75 5.75 0 0 0-.85 1.26zM1261.13 428c.15.07.48-.23.73-.37a4.27 4.27 0 0 0-.8-.89c-.12-.08-.49.22-.9.43a4.61 4.61 0 0 0 .97.83zm498.62-360.42c-.07.15.31.72.44.7.39-.05 1-.21 1.08-.48s-.26-.73-.53-1.35a5.65 5.65 0 0 0-.99 1.13zm-1404 551.67c0-.24-.3-.77-.42-.75-.41 0-1 .18-1.13.47s.25.75.79 2.09a9.44 9.44 0 0 0 .74-1.81zm1470.7 2c.08-.16-.25-.78-.37-.77-.41 0-1 .13-1.16.41s.22.76.44 1.42c.49-.43.88-.67 1.07-1.02zm-69.69-212.23c-.05.16.39.68.52.65a4.6 4.6 0 0 0 1.1-.58l-.76-1.33a5.74 5.74 0 0 0-.88 1.31zM595.3 49.9a4.2 4.2 0 0 0 .78.9c.12.08.49-.22.75-.34l-.62-1zm646.91-5.17c.1 0 .2-.46.31-.71l-1.15-.47-.37.91a5.85 5.85 0 0 0 1.22.28zM647 392.12a1 1 0 0 0 .88-.16c.16-.14.09-.54.13-.82h-1.32c.12.47.14.92.31.98zm-35.59 281.25c0 .16.4.68.53.65a4.63 4.63 0 0 0 1.11-.59l-.78-1.34a5.82 5.82 0 0 0-.86 1.28zm-386.2-166.73c.06.08.49-.13.75-.21a8.63 8.63 0 0 0-.42-1.18 5.8 5.8 0 0 0-.9.27 6 6 0 0 0 .57 1.12zM373.72 379c.08-.15-.24-.76-.36-.75a4.75 4.75 0 0 0-1.19.36l.48 1.42a5.36 5.36 0 0 0 1.07-1.03zm-46.63-1.07c-.07.15.31.72.44.7.39-.05 1-.21 1.08-.49s-.26-.73-.53-1.35a5.67 5.67 0 0 0-.99 1.15zm321.51 394.5c-.1.12-.29.33-.27.35a6.4 6.4 0 0 0 .59.55l.29-.36zM517 775.84s-.16-.24-.24-.37a6.41 6.41 0 0 0-.61.5 2.29 2.29 0 0 0 .25.36 5.28 5.28 0 0 0 .6-.49zm128.52-462a6.31 6.31 0 0 0 .61-.51 2.25 2.25 0 0 0-.25-.36l-.62.48zM1567 776.31c.05 0 .25-.26.22-.3a4.37 4.37 0 0 0-.47-.56l-.43.59a4.21 4.21 0 0 0 .68.27zM487.43 308.9c-.09.12-.29.33-.27.35a6.22 6.22 0 0 0 .59.53l.29-.36zm527.2 468.85c-.12-.1-.33-.29-.35-.27a6.35 6.35 0 0 0-.54.59l.36.29zm319.44.3a5.83 5.83 0 0 0 .8.1s.07-.28.11-.43l-.8-.13zM984 481.09s-.3.24-.28.29a4.39 4.39 0 0 0 .41.65l.55-.54a4.77 4.77 0 0 0-.68-.4zm505.2 51.37s-.23-.29-.28-.27a4.17 4.17 0 0 0-.62.39l.52.51a4.39 4.39 0 0 0 .35-.63zM1275 779.05a5.58 5.58 0 0 0 .79.1s.08-.27.11-.42l-.79-.13zm567 2.41c-.09.12-.29.32-.27.34a6.28 6.28 0 0 0 .58.54l.29-.35zm-388.13 7.91s.3-.24.28-.29a4.3 4.3 0 0 0-.4-.64l-.53.53a4.51 4.51 0 0 0 .63.41zM1344 294.63c.22 0 .45-.34.68-.53-.22-.19-.43-.53-.65-.53s-.45.32-.68.5c.26.2.47.55.65.56zm143.55-1.75c-.09.12-.29.33-.27.35a6.27 6.27 0 0 0 .59.53l.29-.36zm-411.75 185.8a5.73 5.73 0 0 0 .78.09s.07-.27.1-.42l-.78-.13zM373 798.74a6.38 6.38 0 0 0 .5.62 2.31 2.31 0 0 0 .36-.25l-.47-.62zM225.81 292.48a5.73 5.73 0 0 0 .8.1s.08-.28.11-.43l-.8-.13zm374.33 508.31c-.12-.1-.34-.3-.36-.28a6.45 6.45 0 0 0-.56.6l.37.3zm459.95-324.68c-.09.12-.29.32-.27.34a6.23 6.23 0 0 0 .58.53l.29-.35zM759.93 808.37s.24-.16.37-.24a6.31 6.31 0 0 0-.5-.61 2.29 2.29 0 0 0-.36.25 5.29 5.29 0 0 0 .49.6zm633.83-526.61c.1-.12.29-.33.27-.35a6.31 6.31 0 0 0-.59-.54l-.29.36zm-874.1 530.63s.24-.16.37-.24a6.34 6.34 0 0 0-.51-.61 2.22 2.22 0 0 0-.36.25 5.38 5.38 0 0 0 .5.6zm-139.78 7.42c-.12-.09-.33-.29-.35-.27a6.36 6.36 0 0 0-.54.59l.36.29zM1589 279.77c.1-.12.3-.34.28-.36a6.46 6.46 0 0 0-.6-.56l-.3.37zm-517.33 542.1s-.15-.24-.24-.37a6.43 6.43 0 0 0-.62.5 2.33 2.33 0 0 0 .25.36 5.26 5.26 0 0 0 .61-.49zm537.06 5.63c-.09.12-.29.33-.27.35a6.27 6.27 0 0 0 .59.53l.29-.36zM295.14 840.41a6.26 6.26 0 0 0 .61-.51s-.16-.24-.25-.36l-.62.49zm85.13-565.65a6.49 6.49 0 0 0 .62-.5 2.36 2.36 0 0 0-.25-.36l-.62.47zm185.86-1.61c-.12-.1-.33-.3-.35-.28a6.52 6.52 0 0 0-.55.59l.36.3zm828.67-.37s.29-.23.27-.28a4.2 4.2 0 0 0-.39-.63l-.52.52a4.42 4.42 0 0 0 .62.38zm-334.72 572.74s-.29.23-.27.28a4.16 4.16 0 0 0 .39.62l.53-.52a4.55 4.55 0 0 0-.65-.38zM1835.27 474c.1-.12.29-.32.27-.35a6.28 6.28 0 0 0-.58-.54l-.29.36zM814.11 536.09c.1-.12.3-.34.28-.36a6.62 6.62 0 0 0-.6-.56l-.3.37zM331.44 269.74s.24-.16.37-.24a6.37 6.37 0 0 0-.5-.61 2.29 2.29 0 0 0-.36.25 5.25 5.25 0 0 0 .49.6zm1161.72 581.2s-.16-.25-.24-.38a6.64 6.64 0 0 0-.63.51 2.39 2.39 0 0 0 .26.37 5.39 5.39 0 0 0 .6-.5zm-1127.32 6s-.15-.23-.23-.36a6.12 6.12 0 0 0-.59.48 2.19 2.19 0 0 0 .24.35 5.09 5.09 0 0 0 .58-.47zm554.06.6s-.29.23-.27.28a4.22 4.22 0 0 0 .39.63l.51-.52a4.38 4.38 0 0 0-.63-.39zm423.21 3.6a5.68 5.68 0 0 0 .79.1s.07-.28.11-.42l-.79-.13zM666.93 264.89c-.28-.12-.58-.37-.83-.32s-.33.43-.49.67l.81.39zm723.54 714.79c-.1.12-.29.34-.27.36a6.4 6.4 0 0 0 .6.54l.29-.37zm-301.62-108.45c0 .05.26.26.31.23a4.47 4.47 0 0 0 .57-.48l-.6-.44a4.29 4.29 0 0 0-.28.69zm-202-611.5a6.53 6.53 0 0 0 .62-.51 2.3 2.3 0 0 0-.25-.36l-.63.48zm534.61-1a6.43 6.43 0 0 0 .62-.51 2.24 2.24 0 0 0-.25-.37l-.63.48zm-214.52 614.44a5.36 5.36 0 0 0 .78.1s.08-.27.12-.42l-.78-.13zm200.76-617.42s.25-.16.38-.25a6.6 6.6 0 0 0-.52-.63 2.31 2.31 0 0 0-.37.26 5.51 5.51 0 0 0 .51.62zm-909.58 254a5.69 5.69 0 0 0 .78.1l.11-.42-.78-.13zm981.16 363.09a6.41 6.41 0 0 0 .5.62 2.29 2.29 0 0 0 .36-.25l-.48-.62zm42.53 3.62s.24-.16.37-.24a6.39 6.39 0 0 0-.5-.61 2.29 2.29 0 0 0-.36.25 5.29 5.29 0 0 0 .49.58zm-958.63-627a5.56 5.56 0 0 0 .79.1s.08-.28.12-.43l-.79-.13zm185.77 652s.24-.16.37-.24a6.36 6.36 0 0 0-.51-.62 2.23 2.23 0 0 0-.36.25 5.34 5.34 0 0 0 .5.64zm593.45-364.4s.35 0 .36-.07a3.83 3.83 0 0 0 .09-.7l-.71.08a5 5 0 0 0 .26.69zM517 242.14c-.12-.09-.32-.29-.34-.27a6.27 6.27 0 0 0-.53.58l.35.29zM1446.12 902s-.16-.25-.25-.38a6.59 6.59 0 0 0-.63.52 2.35 2.35 0 0 0 .26.37 5.48 5.48 0 0 0 .62-.51zm150.18 3.93c-.12-.1-.33-.29-.35-.27a6.39 6.39 0 0 0-.54.6l.36.29zM562.49 237.83c-.1.12-.3.33-.28.35a6.43 6.43 0 0 0 .59.55l.3-.36zm517.91 669.65c.09-.12.29-.32.27-.34a6.2 6.2 0 0 0-.57-.53l-.29.35zm430.93 1.36a6.33 6.33 0 0 0 .51.61 2.27 2.27 0 0 0 .36-.26l-.49-.62zm-151.77-368.17c.16.1.49-.1.75-.17l-.43-1.06-.64.5c.11.26.14.62.32.73zm-901.2 6.53s-.29.23-.27.28a4.15 4.15 0 0 0 .39.63l.5-.53a4.22 4.22 0 0 0-.62-.38zm217.57-312.5c.1-.12.29-.33.28-.35a6.37 6.37 0 0 0-.59-.55l-.3.36zm601.6 676.8s.24-.16.37-.24a6.41 6.41 0 0 0-.51-.62 2.29 2.29 0 0 0-.36.26 5.4 5.4 0 0 0 .51.6zM972.67 225.07a6.46 6.46 0 0 0 .51.62 2.27 2.27 0 0 0 .37-.25l-.48-.63zM584.82 918.51c.1-.12.29-.34.28-.36a6.47 6.47 0 0 0-.6-.55l-.3.37zm388.75 2.4c-.12-.1-.33-.29-.35-.27a6.29 6.29 0 0 0-.54.58l.36.29zM604.51 222.69a6.41 6.41 0 0 0 .62-.51 2.28 2.28 0 0 0-.25-.36l-.62.48zm1006.2 697.93c-.1.12-.3.34-.28.36a6.44 6.44 0 0 0 .6.56l.3-.37zm-490.18 1.86c.05 0 .25-.26.23-.3a4.42 4.42 0 0 0-.47-.57l-.44.59a4.24 4.24 0 0 0 .68.28zM1359 220.19s-.16-.24-.24-.37a6.47 6.47 0 0 0-.62.51 2.31 2.31 0 0 0 .25.36 5.34 5.34 0 0 0 .61-.5zM920.21 927.5c.1-.12.29-.33.27-.35a6.33 6.33 0 0 0-.59-.55l-.3.36zm101.41-709.33s-.16-.24-.24-.37a6.47 6.47 0 0 0-.62.51 2.3 2.3 0 0 0 .25.37 5.33 5.33 0 0 0 .61-.51zM1253.87 929s-.15-.23-.23-.36a6.19 6.19 0 0 0-.59.49 2.22 2.22 0 0 0 .24.35 5.1 5.1 0 0 0 .58-.48zM824 936.5a.63.63 0 0 0 .36-.25.6.6 0 0 0-.06-.42 5.57 5.57 0 0 0-.78.06 5.15 5.15 0 0 0 .48.61zm-253.77 2.8c0 .05.27.26.32.23a4.56 4.56 0 0 0 .58-.49l-.62-.45a4.36 4.36 0 0 0-.26.72zm-259.83 1.24s.24-.16.37-.24a6.37 6.37 0 0 0-.51-.61 2.25 2.25 0 0 0-.36.26 5.44 5.44 0 0 0 .52.59zm1196.18 1.09c-.1.12-.3.34-.28.36a6.49 6.49 0 0 0 .61.55l.3-.37zm-944.4 1.27a6.43 6.43 0 0 0 .5.61 2.29 2.29 0 0 0 .36-.25l-.47-.62zm85.1-736.51a5.56 5.56 0 0 0 .79.11s.08-.28.12-.43l-.8-.14zm-48.52 738.15s.24-.16.37-.24a6.35 6.35 0 0 0-.51-.61 2.19 2.19 0 0 0-.36.25 5.34 5.34 0 0 0 .5.6zm-333.4-739.86s.25-.16.38-.25a6.56 6.56 0 0 0-.52-.63 2.34 2.34 0 0 0-.37.26 5.45 5.45 0 0 0 .51.62zm391.56-1c.1-.12.29-.33.27-.35a6.45 6.45 0 0 0-.6-.55l-.29.36zm707.52-4.89c-.1.12-.29.33-.27.35a6.32 6.32 0 0 0 .59.55l.29-.36zm-846.71-1.11c.06 0 .32-.2.3-.25a4.72 4.72 0 0 0-.36-.67l-.56.5a3.82 3.82 0 0 0 .62.43zM355.21 947.53a6.48 6.48 0 0 0 .62-.52 2.3 2.3 0 0 0-.26-.37l-.63.49zM1442.25 196a6.45 6.45 0 0 0 .5.62 2.34 2.34 0 0 0 .36-.25l-.48-.62zM1337 947.95c-.12-.1-.33-.29-.35-.27a6.33 6.33 0 0 0-.54.59l.36.29zm-1264.77 3.6s.29-.23.27-.28a4.14 4.14 0 0 0-.39-.62l-.53.51a4.54 4.54 0 0 0 .65.39zm1108.68-761.17a5.47 5.47 0 0 0 .79.11l.12-.42-.79-.14zm-629.42-3.63c-.1.12-.3.34-.28.36a6.45 6.45 0 0 0 .6.55l.3-.37zm529.32 776.17a6.54 6.54 0 0 0 .52.63 2.33 2.33 0 0 0 .37-.26l-.49-.63zm476.45-496.52c-.12-.1-.33-.29-.35-.27a6.36 6.36 0 0 0-.54.59l.36.29zM474.59 185.64s.24-.15.37-.24a6.36 6.36 0 0 0-.5-.61 2.28 2.28 0 0 0-.36.25 5.26 5.26 0 0 0 .49.6zm790.67 362.44a6.34 6.34 0 0 0 .61-.51 2.22 2.22 0 0 0-.25-.36l-.62.48zM623.81 967.56s.25-.16.38-.24a6.43 6.43 0 0 0-.51-.62 2.25 2.25 0 0 0-.37.25 5.34 5.34 0 0 0 .5.61zm-82.33 3.08c-.1.12-.3.34-.28.36a6.46 6.46 0 0 0 .61.55l.3-.37zM386 974.94a6.38 6.38 0 0 0 .5.61 2.26 2.26 0 0 0 .36-.25l-.48-.62zm105.13-798.59a5.61 5.61 0 0 0 .8.11s.08-.28.12-.43l-.8-.14zm422.73 805.23a6.55 6.55 0 0 0 .63-.52 2.33 2.33 0 0 0-.26-.37l-.63.49zm484.61-.88c-.1.12-.29.33-.27.35a6.33 6.33 0 0 0 .59.54l.29-.36zM889.61 986a6.39 6.39 0 0 0 .49.61 2.3 2.3 0 0 0 .36-.25l-.47-.61zm734.71-816.85s-.15-.24-.24-.37a6.37 6.37 0 0 0-.62.5 2.26 2.26 0 0 0 .25.36 5.26 5.26 0 0 0 .6-.53zM323.18 989.56a6.35 6.35 0 0 0 .61-.5 2.26 2.26 0 0 0-.25-.36l-.62.48zm497.2 1.44c-.12-.1-.33-.29-.35-.27a6.34 6.34 0 0 0-.55.59l.36.29zm-357.68 5.62s.29-.23.27-.28a4.19 4.19 0 0 0-.39-.62l-.52.52a4.33 4.33 0 0 0 .64.38zM468 999c0-.06-.2-.32-.24-.3a4.68 4.68 0 0 0-.66.35l.49.55a3.78 3.78 0 0 0 .41-.6zm1005.75-832.36s.25-.16.38-.25a6.59 6.59 0 0 0-.52-.63 2.36 2.36 0 0 0-.37.26 5.49 5.49 0 0 0 .51.62zm-824.83-.16c-.22-.21-.43-.56-.66-.57s-.45.34-.68.54l.65.59zm810.83-2.87s.24-.15.36-.23a6.19 6.19 0 0 0-.49-.6 2.19 2.19 0 0 0-.35.24 5.14 5.14 0 0 0 .48.59zm-377.37 838c.06 0 .32-.2.31-.25a4.74 4.74 0 0 0-.36-.67l-.56.5a3.83 3.83 0 0 0 .61.43zm128.08 10s.24-.16.37-.25a6.35 6.35 0 0 0-.51-.61 2.29 2.29 0 0 0-.36.26 5.41 5.41 0 0 0 .5.61zm-741.38 4.73a5.43 5.43 0 0 0 .79.11l.12-.42-.79-.14zm588.29 2.26c.09-.12.28-.32.26-.34a6.14 6.14 0 0 0-.57-.52l-.28.35zm-235.61-857a6.41 6.41 0 0 0 .61-.51 2.29 2.29 0 0 0-.25-.36l-.62.48zm-232.65 858.52s-.15-.24-.24-.37a6.37 6.37 0 0 0-.61.5 2.26 2.26 0 0 0 .25.36 5.28 5.28 0 0 0 .6-.49zm133.86.53c.1-.12.29-.34.27-.36a6.32 6.32 0 0 0-.6-.54l-.29.36zm-79.16 1s.25-.16.38-.25a6.53 6.53 0 0 0-.52-.63 2.33 2.33 0 0 0-.37.26 5.42 5.42 0 0 0 .51.59zm-100.33-868s.35 0 .37-.07a3.89 3.89 0 0 0 .09-.71l-.72.07a5 5 0 0 0 .26.69zm712.83 359.52c-.1.12-.29.33-.27.35a6.33 6.33 0 0 0 .59.54l.29-.36zm-692.58 509.45s.24-.16.37-.24a6.35 6.35 0 0 0-.5-.61 2.23 2.23 0 0 0-.36.25 5.29 5.29 0 0 0 .49.6zm1033.56-301.9c0-.06-.2-.32-.24-.3a4.71 4.71 0 0 0-.66.35l.49.56a3.77 3.77 0 0 0 .41-.61zm-929.66 303c-.09.12-.29.33-.27.35a6.27 6.27 0 0 0 .59.53l.29-.36zM318.83 145.1s-.16-.24-.25-.37a6.38 6.38 0 0 0-.61.51 2.23 2.23 0 0 0 .26.36 5.43 5.43 0 0 0 .6-.5zm288.42-.77a5.34 5.34 0 0 0 .78.1s.08-.27.12-.42l-.78-.13zm-248 .27a6.52 6.52 0 0 0 .63-.52 2.33 2.33 0 0 0-.26-.37l-.64.5zm875.72-.63c.23 0 .46-.28.69-.44l-.9-.68-.47.67c.18.16.41.48.64.48zm292.7 577.44c-.1.12-.29.32-.27.35a6.27 6.27 0 0 0 .58.54l.29-.36zm-250.09 303.2s.25-.16.38-.24a6.55 6.55 0 0 0-.51-.62 2.38 2.38 0 0 0-.37.25 5.34 5.34 0 0 0 .46.61zm58.17 0s.29-.23.27-.28a4.21 4.21 0 0 0-.4-.63l-.52.52a4.44 4.44 0 0 0 .61.42zm-498.58-884c.1-.12.29-.33.27-.35a6.4 6.4 0 0 0-.59-.55l-.29.36zM710.26 140c-.12-.1-.33-.29-.35-.27a6.3 6.3 0 0 0-.54.59l.36.29zm-151.18 887c-.12-.1-.33-.29-.35-.27a6.34 6.34 0 0 0-.54.59l.36.29zm-132 10.3a5.36 5.36 0 0 0 .75.1s.07-.26.11-.4l-.75-.13zm898.62 1.3c.1-.12.29-.33.27-.35a6.3 6.3 0 0 0-.59-.54l-.29.36zM1294.36 365c-.1.12-.29.33-.27.35a6.34 6.34 0 0 0 .59.54l.29-.36zM1639 1040.66c.1-.12.29-.33.27-.35a6.35 6.35 0 0 0-.59-.54l-.29.36zM637.18 135.11s-.16-.25-.25-.38a6.53 6.53 0 0 0-.63.52 2.34 2.34 0 0 0 .26.37 5.42 5.42 0 0 0 .62-.51zm130.26 910.24a5.64 5.64 0 0 0 .78.1l.11-.42-.78-.13zm726.88-497.56l.7-.4-.59-1-.52.62zm-768.64 500c-.1.12-.3.33-.28.36a6.48 6.48 0 0 0 .6.56l.3-.37zM988 130.71c-.09.12-.28.33-.27.35a6.23 6.23 0 0 0 .58.53l.29-.35zm215 918.66a5.51 5.51 0 0 0 .78.11s.08-.27.12-.42l-.78-.14zm-929 9.06c0 .05.26.25.3.22a4.32 4.32 0 0 0 .56-.47l-.59-.43a4.17 4.17 0 0 0-.36.69zM129.21 549.07s.24-.16.37-.24a6.35 6.35 0 0 0-.5-.61 2.29 2.29 0 0 0-.36.25 5.31 5.31 0 0 0 .49.6zM1347.42 124.7c-.09.12-.28.32-.27.34a6.27 6.27 0 0 0 .58.53l.29-.35zm-826.74 936s.24-.15.37-.24a6.35 6.35 0 0 0-.5-.61 2.24 2.24 0 0 0-.36.25 5.29 5.29 0 0 0 .49.56zm106.64 1.3a6.44 6.44 0 0 0 .51.62 2.3 2.3 0 0 0 .36-.26l-.49-.62zm98.07 6.33a5.73 5.73 0 0 0 .79.1s.07-.28.11-.42l-.79-.13zm92.7 5.31c.1-.12.29-.33.27-.35a6.34 6.34 0 0 0-.59-.54l-.29.36zM527.18 119a6.42 6.42 0 0 0 .5.62 2.33 2.33 0 0 0 .36-.25l-.48-.62zm430.06 958.74c.09-.12.29-.33.27-.35a6.31 6.31 0 0 0-.59-.53l-.29.36zm-914.65.71a5.5 5.5 0 0 0 .78.1s.08-.27.11-.42l-.78-.13zM1029.64 116c-.12-.09-.33-.28-.35-.27a6.27 6.27 0 0 0-.53.59l.36.29zm53.44 247.85a6.42 6.42 0 0 0 .61-.5 2.32 2.32 0 0 0-.25-.36l-.62.47zM522.67 114.56s.25-.16.38-.24a6.64 6.64 0 0 0-.51-.63 2.42 2.42 0 0 0-.37.26 5.37 5.37 0 0 0 .5.61zm892.52 346.12a5.5 5.5 0 0 0 .77.1s.07-.27.11-.41l-.77-.13zM823.1 113.57c.1-.12.29-.33.27-.35a6.29 6.29 0 0 0-.58-.54l-.29.36zM551.46 551.06a6.46 6.46 0 0 0 .61-.5 2.31 2.31 0 0 0-.25-.36l-.62.47zm-1-438.37c-.1.12-.29.33-.27.35a6.34 6.34 0 0 0 .58.54l.29-.36zM870.17 457s.3-.23.27-.28a4.24 4.24 0 0 0-.4-.64l-.53.53a4.51 4.51 0 0 0 .66.39zm612.77 277.37c0 .22.33.45.52.67.2-.22.56-.44.57-.66s-.35-.45-.55-.67c-.2.2-.54.42-.54.64zm-890.7-626.09a5.4 5.4 0 0 0 .77.11l.12-.41-.77-.14zM846.85 456.1c-.1.12-.29.33-.27.35a6.39 6.39 0 0 0 .59.54l.29-.36zm774.61-94.87a6.53 6.53 0 0 0 .52.63 2.34 2.34 0 0 0 .37-.26l-.49-.63zM1498.6 97.67c-.09.12-.29.33-.27.35a6.29 6.29 0 0 0 .59.54l.29-.36zm-110.53.33s-.16-.25-.25-.38a6.49 6.49 0 0 0-.63.52 2.3 2.3 0 0 0 .26.37 5.57 5.57 0 0 0 .62-.51zm-688.73.4c.22 0 .43-.32.65-.5l-.93-.62-.42.68c.23.21.47.5.7.49zm-250 417.7c-.1.12-.29.33-.27.35a6.35 6.35 0 0 0 .58.54l.29-.36zM611.77 455s.25-.16.38-.25a6.58 6.58 0 0 0-.52-.63 2.33 2.33 0 0 0-.37.26 5.54 5.54 0 0 0 .51.62zm124.62 106.8a5.6 5.6 0 0 0 .78.1l.11-.42-.78-.13zm1131.32 4.66a6.45 6.45 0 0 0 .51.62 2.24 2.24 0 0 0 .36-.25l-.49-.63zm-115.22 6.13s-.16-.25-.25-.38a6.48 6.48 0 0 0-.63.52 2.27 2.27 0 0 0 .26.37 5.48 5.48 0 0 0 .61-.51zM859.57 735.67a6.33 6.33 0 0 0 .49.61 2.29 2.29 0 0 0 .36-.25l-.46-.61zm887-285.34a6.39 6.39 0 0 0 .5.62 2.26 2.26 0 0 0 .36-.25l-.48-.62zm-797.91 47a6.47 6.47 0 0 0 .51.62 2.27 2.27 0 0 0 .37-.26l-.49-.63zm-823 92.11a6.47 6.47 0 0 0 .51.62 2.3 2.3 0 0 0 .37-.25l-.48-.63zm829 0a6.44 6.44 0 0 0 .51.62 2.29 2.29 0 0 0 .36-.25l-.48-.62zm-264 5.74c-.1.12-.29.33-.27.35a6.32 6.32 0 0 0 .59.54l.29-.36zm604-505.67c.06 0 .32-.2.31-.25a4.72 4.72 0 0 0-.35-.67l-.56.49a3.83 3.83 0 0 0 .59.48zM1176.2 597.25s-.29.23-.27.28a4.16 4.16 0 0 0 .39.63l.51-.52a4.34 4.34 0 0 0-.63-.39zM1371.64 444s.25-.16.38-.25a6.45 6.45 0 0 0-.52-.62 2.29 2.29 0 0 0-.37.26 5.45 5.45 0 0 0 .51.61zM374.23 87.54a6.33 6.33 0 0 0 .61-.51 2.21 2.21 0 0 0-.25-.36l-.62.48zm730.11 355.39s.24-.15.37-.24a6.41 6.41 0 0 0-.5-.61 2.3 2.3 0 0 0-.36.25 5.23 5.23 0 0 0 .49.6zm-535.53-1c.1-.12.3-.34.28-.36a6.48 6.48 0 0 0-.6-.56l-.3.37zm916.52 295.11c0 .05.26.25.3.22a4.36 4.36 0 0 0 .56-.47l-.59-.43a4.2 4.2 0 0 0-.27.71zM161.74 607.84a5.62 5.62 0 0 0 .78.1l.11-.42-.78-.13zm1310.78-256a6.53 6.53 0 0 0 .62-.51 2.33 2.33 0 0 0-.26-.37l-.63.48zM1445.72 518s.25-.16.38-.25a6.64 6.64 0 0 0-.52-.63 2.37 2.37 0 0 0-.37.26 5.4 5.4 0 0 0 .51.62zm-826.45 5.71a5.66 5.66 0 0 0 .78.1l.11-.42-.78-.13zM1602 610.14c.1-.12.29-.32.27-.34a6.32 6.32 0 0 0-.58-.54l-.29.36zM933.64 72.9a6.61 6.61 0 0 0 .51.63 2.41 2.41 0 0 0 .37-.26l-.48-.63zm602.6 362.42s-.23-.3-.29-.28a4.28 4.28 0 0 0-.64.4l.54.52a4.48 4.48 0 0 0 .39-.63zM470.36 612.12a6.43 6.43 0 0 0 .62-.51 2.27 2.27 0 0 0-.25-.36l-.62.48zm850 5.13c-.1.12-.29.34-.28.36a6.45 6.45 0 0 0 .6.55l.3-.37zm229 1.28a6.29 6.29 0 0 0 .49.6 2.25 2.25 0 0 0 .35-.25l-.47-.61zM676.64 428c-.1.12-.29.33-.27.35a6.31 6.31 0 0 0 .59.54l.29-.36zm538.9 105c.09-.12.28-.32.26-.34a6.18 6.18 0 0 0-.58-.53l-.28.35zm136.55 212a5.73 5.73 0 0 0 .8.1s.07-.28.11-.43l-.8-.13zm-259.24-260.62a6.3 6.3 0 0 0 .49.6 2.26 2.26 0 0 0 .35-.25l-.46-.61zm-618.49-58.44a6.35 6.35 0 0 0 .61-.5 2.24 2.24 0 0 0-.25-.36l-.62.48zm960.12-359.42a6.67 6.67 0 0 0 .63-.51 2.4 2.4 0 0 0-.26-.37l-.64.49zm112.73 460s-.16-.25-.24-.38a6.67 6.67 0 0 0-.63.5 2.44 2.44 0 0 0 .25.37 5.34 5.34 0 0 0 .62-.46zm79.73-462s.24-.16.37-.24a6.46 6.46 0 0 0-.51-.62 2.31 2.31 0 0 0-.36.25 5.35 5.35 0 0 0 .5.6zM220.39 422.93c.09-.12.29-.33.27-.35a6.26 6.26 0 0 0-.58-.54l-.29.36zm384.87-88.4a5.43 5.43 0 0 0 .77.1s.07-.27.11-.41l-.77-.13zM567.52 416c-.09.12-.29.33-.27.35a6.28 6.28 0 0 0 .59.53l.29-.36zm-78.4 207.48a6.41 6.41 0 0 0 .51.62 2.23 2.23 0 0 0 .36-.25l-.49-.62zm1050.09 3.16s-.15-.24-.24-.37a6.46 6.46 0 0 0-.62.5 2.32 2.32 0 0 0 .25.36 5.29 5.29 0 0 0 .61-.46zm-1041.06 2.9a6.52 6.52 0 0 0 .51.62 2.31 2.31 0 0 0 .36-.25l-.48-.63zm181.5-571.91c-.09.12-.29.33-.27.35a6.27 6.27 0 0 0 .59.54l.29-.36zM566.13 630.57s-.23-.29-.28-.27a4.23 4.23 0 0 0-.63.4l.52.53a4.55 4.55 0 0 0 .39-.66zM440.58 58.5s.24-.16.37-.24a6.42 6.42 0 0 0-.5-.62 2.33 2.33 0 0 0-.36.25 5.23 5.23 0 0 0 .49.61zm-14.64-3.57c-.12-.09-.33-.29-.35-.27a6.31 6.31 0 0 0-.54.59l.36.29zm55.84 693.33c.05 0 .25-.26.22-.31a4.4 4.4 0 0 0-.48-.56l-.44.6a4.25 4.25 0 0 0 .7.26zm787.5-340.32a6.48 6.48 0 0 0 .63-.51 2.28 2.28 0 0 0-.26-.37l-.63.49zm-212-357.43s.25-.16.38-.25a6.47 6.47 0 0 0-.51-.62 2.35 2.35 0 0 0-.37.26 5.38 5.38 0 0 0 .49.6zm414.58 704.81c.09-.12.28-.32.26-.34a6.19 6.19 0 0 0-.57-.53l-.28.35zm-318.72-347.4a6.54 6.54 0 0 0 .63-.51 2.32 2.32 0 0 0-.26-.37l-.63.49zm446.29 228.62a6.59 6.59 0 0 0 .52.63 2.33 2.33 0 0 0 .37-.26l-.5-.64zM1161.16 323.8a6.23 6.23 0 0 0 .6-.49 2.22 2.22 0 0 0-.25-.35l-.6.47zM1389.4 43.48a6.38 6.38 0 0 0 .6-.48 2.26 2.26 0 0 0-.26-.36l-.62.49zM358.08 637.27c0 .22.32.43.49.64l.62-.92-.67-.41c-.16.23-.45.42-.44.69zm832.74 8.4s-.15-.24-.24-.37a6.37 6.37 0 0 0-.61.5 2.25 2.25 0 0 0 .25.36 5.29 5.29 0 0 0 .59-.49zM1312.38 399c-.1.12-.29.33-.27.35a6.29 6.29 0 0 0 .58.54l.29-.36zm167.9-359.85a5.62 5.62 0 0 0 .8.1s.08-.28.11-.43l-.79-.13zm-85.79-.59c-.1.12-.29.33-.27.35a6.37 6.37 0 0 0 .6.54l.29-.36zm-799.71.92s.25-.16.38-.25a6.54 6.54 0 0 0-.53-.63 2.25 2.25 0 0 0-.37.26 5.59 5.59 0 0 0 .52.65zm400.51-1c.09-.12.28-.32.26-.34a6.14 6.14 0 0 0-.57-.52l-.28.35zM462.11 492.72a5.45 5.45 0 0 0 .77.1s.08-.27.11-.42l-.77-.14zM590.24 36.18a5.56 5.56 0 0 0 .78.1l.11-.42-.78-.13zm722.15 611.13c-.1.12-.29.33-.27.35a6.34 6.34 0 0 0 .59.54l.29-.36zm-42.48-251.91s-.16-.24-.24-.37a6.46 6.46 0 0 0-.62.51 2.31 2.31 0 0 0 .26.37 5.37 5.37 0 0 0 .6-.51zM1145.38 34.48s.25-.16.38-.25a6.58 6.58 0 0 0-.52-.63 2.33 2.33 0 0 0-.37.26 5.43 5.43 0 0 0 .51.62zM940.54 654.61s-.23-.29-.28-.27a4.21 4.21 0 0 0-.63.4l.52.53a4.66 4.66 0 0 0 .39-.66zm502.57 4.09s-.16-.24-.24-.37a6.41 6.41 0 0 0-.62.51 2.27 2.27 0 0 0 .25.36 5.35 5.35 0 0 0 .61-.49zM766.32 32s-.16-.25-.24-.38a6.43 6.43 0 0 0-.62.51 2.29 2.29 0 0 0 .25.37 5.32 5.32 0 0 0 .61-.5zm801.07 726a5.46 5.46 0 0 0 .78.1s.08-.27.11-.42l-.78-.13zM222.71 390.38s-.16-.25-.25-.38a6.53 6.53 0 0 0-.63.52 2.25 2.25 0 0 0 .26.37 5.5 5.5 0 0 0 .62-.51zM1501.89 491c.06 0 .32-.2.3-.24a4.69 4.69 0 0 0-.35-.67l-.56.49a3.79 3.79 0 0 0 .61.42zm-54.68 167.9a5.64 5.64 0 0 0 .79.1s.07-.28.11-.42l-.79-.13zm-280.4 11.18c.23 0 .47-.26.71-.41l-.85-.7-.5.61c.22.2.42.51.64.52zM853.84 383c-.1.12-.29.33-.27.35a6.42 6.42 0 0 0 .6.55l.29-.36zm370.63 387.33s.24-.16.37-.24a6.49 6.49 0 0 0-.51-.62 2.31 2.31 0 0 0-.36.25 5.36 5.36 0 0 0 .5.6zm-510.2-450.09c-.12-.09-.33-.29-.35-.27a6.27 6.27 0 0 0-.53.58l.36.29zM365 674.92a5.67 5.67 0 0 0 .77.1s.07-.27.11-.41l-.77-.13zm884.93-651c-.12-.09-.33-.29-.35-.27a6.3 6.3 0 0 0-.54.59l.36.29zM961.69 379.25a6.28 6.28 0 0 0 .49.6 2.24 2.24 0 0 0 .35-.25l-.47-.61zm-464.27-60.32c-.1.12-.29.33-.27.35a6.32 6.32 0 0 0 .58.54l.29-.36zM339.23 13.56c-.1.12-.29.33-.28.35a6.46 6.46 0 0 0 .59.55l.3-.36zm-13-.09a6.49 6.49 0 0 0 .62-.51 2.29 2.29 0 0 0-.25-.37l-.63.48zm1369.93-1c.09-.12.29-.33.27-.35a6.32 6.32 0 0 0-.58-.54l-.29.36zm36 306.34c.09-.12.29-.33.27-.35a6.25 6.25 0 0 0-.58-.53l-.29.36zm-1200 58.76a5.79 5.79 0 0 0 .79.1l.11-.42-.79-.13zm127-1.28c-.12-.1-.33-.29-.35-.27a6.35 6.35 0 0 0-.54.59l.36.29zm194.26 328.45s-.16-.24-.24-.37a6.47 6.47 0 0 0-.62.5 2.3 2.3 0 0 0 .25.36 5.34 5.34 0 0 0 .61-.49zM1459.78 488c.08-.14-.15-.48-.25-.73l-1 .49.53.58c.24-.08.61-.12.72-.34zm149.94 217.35c-.09.12-.29.32-.27.34a6.26 6.26 0 0 0 .58.54l.29-.35zm-1226.47 5.89a6.34 6.34 0 0 0 .61-.5 2.27 2.27 0 0 0-.25-.36l-.62.48zm900.3 6s.24-.15.36-.24a6.27 6.27 0 0 0-.49-.6 2.25 2.25 0 0 0-.35.25 5.16 5.16 0 0 0 .48.6zM82.24 370.88c.06 0 .32-.2.3-.24a4.66 4.66 0 0 0-.35-.66l-.55.49a3.76 3.76 0 0 0 .6.41z" id="Layer_1-2" data-name="Layer 1"/></g></svg>