<svg xmlns="http://www.w3.org/2000/svg" viewBox="0 0 1922.23 1080.25"><defs><style>.cls-1{fill:#fff;}</style></defs><title>stars</title><g id="Layer_2" data-name="Layer 2"><g id="Layer_1-2" data-name="Layer 1"><path class="cls-1" d="M0,944.09a10.58,10.58,0,0,1,2.81.65,3.53,3.53,0,0,1,2,4.08C4.4,950.57,3,951,1.47,951.1c-.49,0-1,0-1.47,0Zm1922.23,133.15c-1.15.2-2.52.4-2.32,1.88.06.47,1.51.76,2.32,1.13ZM1233.43,0l1,1.4,1-1.4ZM1033.2,0l1,1.4,1-1.4Zm863.12,879.14a4,4,0,0,0,3.93,3.74,3.71,3.71,0,0,0,3.67-3.88c-.25-2.18-2-3.92-3.9-3.83A4,4,0,0,0,1896.32,879.14ZM70.25,323.11a3.74,3.74,0,0,0,3.68-3.37,2.91,2.91,0,0,0-2.93-3.3c-2.25-.22-3.66.85-3.85,2.91A3.28,3.28,0,0,0,70.25,323.11Zm1621.37-6.87a2.9,2.9,0,0,0,3.28-2.88,3.26,3.26,0,0,0-3.05-3.73c-1.63-.13-3.4,1.64-3.46,3.47C1688.33,314.57,1689.88,316.08,1691.62,316.24ZM263.46,834.78c-.11,2,1.3,3.23,3.52,3.15,1.83-.06,3.1-1.1,3.08-2.52a3.82,3.82,0,0,0-3.67-3.32A2.76,2.76,0,0,0,263.46,834.78Zm1526.33,176.68a3.6,3.6,0,0,0-3.29-3.07,3.7,3.7,0,0,0-3.18,3.2,3.39,3.39,0,0,0,3.32,3A3.24,3.24,0,0,0,1789.79,1011.47Zm.3-730.58a3.05,3.05,0,0,0,2.94-3.3,2.89,2.89,0,0,0-3.08-3.13,2.75,2.75,0,0,0-2.75,2.9C1787.21,279.11,1788.6,280.8,1790.09,280.88Zm-113,29.1a2.91,2.91,0,0,0,5.74-.91c-.15-1.74-1.74-3.41-3.1-3.25C1678.14,306,1676.76,308.19,1677.1,310ZM761.69,888.9a2.78,2.78,0,0,0,3.07-3,2.87,2.87,0,1,0-3.07,3ZM579.2,141.35c.13-1.27-1.4-2.85-2.85-2.95s-3.46,1.38-3.13,2.55a9.78,9.78,0,0,0,2,2.92C577.38,144,579.07,142.67,579.2,141.35Zm483.18,702.27a2.75,2.75,0,0,0,2.33,3.2,2.68,2.68,0,0,0,3.26-2.19,3.57,3.57,0,0,0-3.08-3.38C1063.38,841.21,1062.61,842.17,1062.38,843.61ZM562,146.1a2.63,2.63,0,0,0,3-2.5c0-1.49-1.37-3-2.63-3a3,3,0,0,0-2.67,2.94A2.26,2.26,0,0,0,562,146.1ZM300.89,553.73c-.38,1.12,1.56,2.67,2.93,2.67a2.61,2.61,0,0,0,2.39-3.07c-.18-1.46-.94-2.39-3.25-2.48A10.72,10.72,0,0,0,300.89,553.73Zm1606.2,63.45c1.06.49,2.72-1.29,2.85-2.73a2.52,2.52,0,0,0-2.83-2.61c-1.48.06-2.44.77-2.79,3A11.93,11.93,0,0,0,1907.09,617.19ZM1439.23,4.88a3,3,0,0,0-2.74-2.43c-1.31.13-2.87,1.89-2.48,3.2.28.92,1.25,1.63,1.66,2.13C1437.77,7.68,1439.31,6.17,1439.23,4.88ZM256.17,952.43a2.56,2.56,0,0,0-2.39-3.07,2.39,2.39,0,0,0-2.33,2.63,2.5,2.5,0,0,0,2.1,2.82A2.43,2.43,0,0,0,256.17,952.43ZM535.48,962c1.71.07,3.06-1.12,2.85-2.59a2.42,2.42,0,0,0-2.8-2.15,2.45,2.45,0,0,0-2.65,2.27A2.54,2.54,0,0,0,535.48,962Zm-198.4-60.46c-.44,0-1.21,1-1.12,1.37.16.68.83,1.76,1.31,1.77,2.1,0,4.33.08,5.76-1.94.12-.17-.12-.6-.28-1.26C340.91,901.45,339,901.36,337.07,901.52Zm-27.16,35.3a2.19,2.19,0,0,0,2.2-2.72,3.78,3.78,0,0,0-2.09-2.28c-1.25-.47-2.51.9-2.52,2.36A2.46,2.46,0,0,0,309.92,936.81ZM1599.48,414.17a2.23,2.23,0,0,0,3-1.71,2.17,2.17,0,0,0-2.1-2.73c-.92,0-1.81.79-3.29,1.51C1598.19,412.61,1598.66,413.85,1599.48,414.17Zm-182,479.68c1.46,0,2-1,2-2.26s-.46-2.3-1.93-2.36a2.33,2.33,0,1,0-.11,4.61Zm354.43,96a2.12,2.12,0,0,0,2.78-2,2.09,2.09,0,0,0-2.4-2.44c-.88.08-1.68,1-3.08,1.93C1770.49,988.54,1771.1,989.64,1772,989.87ZM434,1018a2.37,2.37,0,0,0-1.75-1.32c-2-.11-3.79,1.27-3.46,2.64.18.75,1.09,1.32,1.47,1.75C432.47,1020.94,434.35,1019.31,434,1018ZM1042,1063a2.2,2.2,0,0,0,2.85-2,2,2,0,0,0-2-2.4c-1.65-.15-2.37.89-2.66,2.83C1040.73,1061.81,1041.28,1062.79,1042,1063ZM1739.2,795.69a2,2,0,0,0,2.47-2.24,3.21,3.21,0,0,0-2-2.16c-1.5-.33-2.26.86-2.58,2.94C1737.61,794.63,1738.34,795.55,1739.2,795.69ZM1367.45,30.87a1.82,1.82,0,0,0,2-2.19c-.11-1.46-1-2.59-2.49-2.3-.89.17-1.61,1.17-2.25,1.68C1365.08,30,1365.92,30.87,1367.45,30.87Zm-1063,132.7c.44.08,1.69-1.53,1.69-2.37s-1.24-2.46-1.68-2.38c-1.07.2-2,1.19-3.71,2.37C302.42,162.36,303.34,163.36,304.4,163.56ZM1519.58,997.3a1.83,1.83,0,0,0-2.2-2c-1.45.13-2.59,1-2.28,2.5.18.89,1.18,1.61,1.64,2.18C1518.82,999.7,1519.59,998.8,1519.58,997.3ZM403.72,449.64a2.8,2.8,0,0,0,2,1.63,2,2,0,0,0,2.36-2.45c-.18-.88-1.25-1.58-1.87-2.29C404.29,447.2,403.3,448.13,403.72,449.64ZM107.52,297.91a3.35,3.35,0,0,0,2.1,2.11,2,2,0,0,0,2.16-2.47c-.33-.88-1.29-1.52-2.41-2.75C108.46,296.21,107.41,297.14,107.52,297.91ZM1747.84,978.74a4,4,0,0,0,2-2.33,1.63,1.63,0,0,0-2-2,7.22,7.22,0,0,0-2.33,1.34C1745.44,977.61,1746.83,979.21,1747.84,978.74ZM477.17,976.89a1.94,1.94,0,0,0-2.19-2.41,3.33,3.33,0,0,0-2.05,2.13c-.09.77,1,1.68,1.91,3.07C475.92,978.44,476.87,977.78,477.17,976.89Zm-305.57,25.95a2,2,0,0,0,2.24-2.42,3.33,3.33,0,0,0-2.3-1.88c-.79,0-1.62,1.11-3,2.14C169.94,1001.69,170.69,1002.6,171.61,1002.84Zm747.65,77.22a2.38,2.38,0,0,0,1.4-1.65c.09-1.44-1.63-2.46-3.32-1.92-.78.25-1.36,1.12-1.86,1.56A2.84,2.84,0,0,0,919.26,1080.07ZM412.92,74.08c.38-1.08-1.33-2.8-2.42-2.46a2.85,2.85,0,0,0-1.75,1.93c0,.86.77,1.76,1.55,3.31C411.57,75.56,412.61,74.95,412.92,74.08Zm93.88,50.8c1.22.45,2.52-.06,2.51-1.46,0-.93-.92-1.86-1.42-2.78l-3.64,2C505.46,123.73,506,124.59,506.8,124.87ZM1713.44,412.29c.27-1.12-1.62-2.73-2.61-2.28a3,3,0,0,0-1.6,2.09c0,.86.92,1.69,1.85,3.18C1712.23,413.88,1713.23,413.18,1713.44,412.29ZM1233.83,236a3.51,3.51,0,0,0-2.24-2.18c-1.38-.31-2.12,1-1.92,2.2.14.88,1,1.63,2.06,3.09C1232.8,237.63,1234,236.67,1233.83,236Zm322.28,453.25c1.22.09,2.67-1.84,2.12-2.77a2.81,2.81,0,0,0-2.26-1.28c-.87.23-1.52,1.3-2.63,2.36C1554.61,688.39,1555.33,689.2,1556.11,689.26ZM147.69,399.82a3.94,3.94,0,0,0-2.16,2.14c-.16.41.9,1.71,1.62,2,1.09.37,2.56-1.24,2.55-2.89C149.15,400.67,148.22,399.65,147.69,399.82ZM427.49,984.6c1.15.31,2.81-1.34,2.45-2.46-.23-.73-1.38-1.73-2-1.64-.91.13-1.71,1.09-2.93,2C426.15,983.47,426.73,984.39,427.49,984.6Zm1013.17-894c1.12.31,2.8-1.34,2.45-2.45-.22-.72-1.36-1.73-1.95-1.65-.91.13-1.71,1.09-2.93,2C1439.33,89.43,1439.9,90.35,1440.67,90.56ZM144.15,469c1.12.32,2.81-1.35,2.46-2.45-.23-.73-1.36-1.73-2-1.65-.91.13-1.71,1.09-2.93,2C142.82,467.87,143.39,468.79,144.15,469Zm1554.35,600.08a2.87,2.87,0,0,0,1.84,1.83,1.84,1.84,0,0,0,2.29-2c0-.81-.75-1.6-1.05-2.18C1700,1066.56,1698.27,1067.9,1698.51,1069.09ZM548.18,57.08c.23.73,1.53,1.8,1.95,1.65a4,4,0,0,0,2.17-2.16c.18-.53-.84-1.47-1.19-2C549.43,54.52,547.82,56,548.18,57.08ZM1451,685.35c-.06.61.91,1.69,1.63,1.91,1.17.36,2.64-1.23,2.26-2.4-.25-.77-1.1-1.34-2.07-2.45C1452,683.65,1451.13,684.46,1451,685.35ZM271.59,1043.18a1.73,1.73,0,0,0,3.45-.05c0-.89-.82-1.77-1.77-3.56C272.38,1041.36,271.59,1042.27,271.59,1043.18ZM545.9,995.06a1.73,1.73,0,0,0,3.46.07c0-.9-.77-1.81-1.66-3.62C546.74,993.28,545.92,994.16,545.9,995.06Zm22.47-37c.1-1.46-1.07-2.07-2.31-1.67-.76.24-1.29,1.19-1.92,1.82l2.54,2.46C567.48,959.46,568.32,958.78,568.37,958ZM1245.79,62.92c.16.68,1.26,1.13,1.94,1.68.43-.6,1.25-1.23,1.22-1.81a15,15,0,0,0-1.1-3.45C1246.12,60.2,1245.43,61.44,1245.79,62.92ZM478.23,224.55a1.7,1.7,0,0,0-2.28-1.83,2.66,2.66,0,0,0-1.09,2.28c.1.74,1.06,1.37,2,2.45C477.5,226.15,478.21,225.36,478.23,224.55ZM1417,911.64c.24.1,1.29-.94,1.41-1.57.23-1.22-.31-2.48-1.71-2.44-.7,0-1.38,1-2.58,2A15.13,15.13,0,0,0,1417,911.64ZM260.55,240a2.66,2.66,0,0,0,2.29-1.09,1.69,1.69,0,0,0-1.81-2.28c-.8,0-1.6.72-2.9,1.37C259.2,238.91,259.82,239.88,260.55,240ZM814.08,69.48c-.17-.77-1.5-1.3-2.33-1.93-.52.72-1.42,1.44-1.43,2.17s.91,1.42,1.77,2.61C813,71.09,814.23,70.14,814.08,69.48Zm989.19,372.66a2.47,2.47,0,0,0-1.8,1.7,2.58,2.58,0,0,0,1.48,2.06c.56.14,1.41-.89,2.47-1.64C1804.51,443.3,1803.92,442.18,1803.28,442.15Zm2.15-6c.73,0,1.46-.94,2.19-1.46-.62-.64-1.17-1.71-1.87-1.82s-1.56.73-2.87,1.43C1804,435.16,1804.73,436.13,1805.42,436.13Zm-78.74,636.6c-.07-.72-1.09-1.35-1.69-2-.59.68-1.59,1.33-1.64,2.05s.87,1.47,1.69,2.68C1725.83,1074.22,1726.75,1073.43,1726.69,1072.73ZM1415,433.17a2.65,2.65,0,0,0,2-1.49c.29-1.37-.85-2.09-2.08-1.88-.76.13-1.41.94-2.51,1.74C1413.61,432.31,1414.35,433.2,1415,433.17ZM1333.2,427c-.06-.72-1.07-1.36-1.67-2-.59.68-1.61,1.32-1.66,2s.87,1.48,1.68,2.7C1332.34,428.47,1333.26,427.69,1333.2,427ZM561.62,565a1.91,1.91,0,0,0,0-3.78c-.61-.07-1.34,1-2.33,1.87C560.29,564,561,565.09,561.62,565Zm1230.76,58.39c1.24.25,2.36-.5,2.13-1.84a2.62,2.62,0,0,0-2-1.54c-.7,0-1.45.83-2.61,1.58C1791,622.44,1791.61,623.27,1792.37,623.42ZM322.77,211.29c.08.56,1.32,1,2,1.44.44-.77,1.26-1.56,1.22-2.3s-1-1.32-2.1-2.6C323.33,209.45,322.65,210.42,322.77,211.29Zm91.07,725.83a1.89,1.89,0,0,0-3.76,0c-.07.6,1,1.34,1.85,2.33C412.8,938.44,413.89,937.74,413.85,937.12ZM657.31,217.78a17.3,17.3,0,0,0,3.61.95c.42,0,1.11-1,1.28-1.68.08-.32-.79-1.28-1.16-1.25a24,24,0,0,0-3.67.83ZM106.11,881.42a1.9,1.9,0,0,0,0-3.78c-.61-.06-1.33,1-2.32,1.9C104.77,880.39,105.49,881.48,106.11,881.42Zm706.32,120.4c.72-.06,1.36-1.07,2-1.67-.68-.6-1.32-1.61-2-1.67s-1.48.86-2.7,1.67C810.95,1001,811.73,1001.87,812.43,1001.82ZM299.34,685.18a1.9,1.9,0,0,0,0-3.77c-.61-.06-1.33,1-2.31,1.88C298,684.15,298.73,685.24,299.34,685.18ZM46.66,362.78c-.11-.7-1.15-1.26-1.79-1.88-.53.73-1.47,1.45-1.48,2.18s1,1.4,1.84,2.56C45.94,364.33,46.77,363.49,46.66,362.78Zm1284.21,667.51a1.68,1.68,0,0,0,3.35-.22c0-.63-1-1.28-1.82-2.33C1331.65,1028.89,1330.77,1029.67,1330.87,1030.29ZM613.36,826.59c.7-.11,1.25-1.16,1.87-1.79-.73-.53-1.45-1.46-2.18-1.46s-1.4,1-2.55,1.84C611.81,825.87,612.65,826.7,613.36,826.59ZM339.07,1021.31c0-.65-1-1.28-1.57-1.92-.64.56-1.68,1.06-1.79,1.7s.79,1.39,1.52,2.54C338.11,1022.6,339.09,1021.94,339.07,1021.31ZM148.3,977.53a2.58,2.58,0,0,0,1.5-2.05c0-.66-1.16-1.25-1.8-1.87l-2.15,2.26C146.89,976.62,147.74,977.66,148.3,977.53ZM662.88,81.76c.65-.12,1.36-1.18,1.57-2,.09-.34-1.05-1.45-1.55-1.4-.76.08-1.44.86-2.66,1.69C661.47,80.93,662.27,81.88,662.88,81.76ZM489.24,984.63c-.06-.71-1.08-1.34-1.68-2-.58.68-1.58,1.33-1.64,2s.87,1.47,1.68,2.67C488.39,986.12,489.3,985.33,489.24,984.63Zm71.59-3.87a2.47,2.47,0,0,0-1.81,1.69,2.59,2.59,0,0,0,1.48,2.07c.56.14,1.41-.89,2.48-1.64C562.06,981.92,561.47,980.79,560.83,980.76Zm994.48-807.88c.72-.06,1.35-1.09,2-1.69-.68-.59-1.33-1.6-2.05-1.65s-1.47.87-2.69,1.68C1553.83,172,1554.61,172.94,1555.31,172.88ZM1748.16,496a2.57,2.57,0,0,0,1.49-2.05c0-.66-1.16-1.25-1.81-1.87l-2.14,2.27C1746.75,495.07,1747.59,496.1,1748.16,496ZM345,450.68a2.55,2.55,0,0,0,2,1.5c.66,0,1.25-1.15,1.87-1.79l-2.23-2.16C345.94,449.26,344.91,450.08,345,450.68Zm57,402.26c0-.5-1-1.37-1.59-1.39a1.66,1.66,0,0,0-1.71,2.27c.19.75,1.05,1.32,2.15,2.59C401.5,854.79,402.08,853.86,402.06,852.94Zm6.69.76c.17.77.93,1.41,1.44,2.1.65-.53,1.83-1,1.83-1.58,0-.7-.91-1.4-1.68-2.43C409.6,852.65,408.66,853.28,408.75,853.7ZM1604.24,29.64a1.73,1.73,0,0,0,2.07,2,2.06,2.06,0,0,0,1.26-1.62c-.12-.74-.9-1.36-1.64-2.35C1605.13,28.57,1604.3,29.06,1604.24,29.64ZM464.12,211.24a1.28,1.28,0,0,0-1.59-1.72,3,3,0,0,0-1.71,1.8c-.15.44.66,1.19,1.26,2.18C463,212.54,463.87,212,464.12,211.24ZM454,499.66c-.07.49,1.05,1.15,1.64,1.73.57-.64,1.39-1.2,1.61-1.94.13-.43-.7-1.15-1.35-2.1C455,498.31,454.09,498.93,454,499.66ZM408.17,547c.56.1,1.72-.83,1.91-1.5.38-1.33-.64-2.16-1.9-2.12-.57,0-1.12.83-1.94,1.49C407,545.8,407.5,546.89,408.17,547Zm65.21,37.37c.75-.22,1.33-1,2-1.6-.58-.59-1.21-1.71-1.72-1.66-.71.07-1.34,1-2.33,1.86C472.25,583.66,473,584.51,473.38,584.39Zm787.55-168.3a1.72,1.72,0,0,0,2.15-1.92c0-.53-1-1.44-1.48-1.39-.75.08-1.43.81-2.5,1.5C1259.91,415.12,1260.35,416,1260.92,416.09ZM437.24,165.36a23.09,23.09,0,0,0-3,2.12,1.79,1.79,0,0,0,.21,1.68c.61.28,1.85.4,2.08.07a16.52,16.52,0,0,0,1.41-3.34ZM68.25,3.63c-.6,0-1.67,1-1.79,1.65-.25,1.34.8,2.08,2.07,2A9.08,9.08,0,0,0,71,6.21C69.5,4.72,68.91,3.66,68.25,3.63Zm1379,862c.06-.39-1-1.31-1.54-1.33s-1.69.83-1.65,1.2c.08.78.77,1.49,1.51,2.74C1446.41,867,1447.15,866.37,1447.27,865.6Zm193.06-217.23c0,.37,1.14,1.15,1.72,1.11s1.52-1,1.44-1.41c-.16-.76-.92-1.39-1.78-2.54C1641,646.83,1640.37,647.59,1640.33,648.37ZM1607.45,92.61c0-.36-1.07-1.23-1.64-1.22s-1.62.93-1.56,1.3c.12.77.85,1.45,1.65,2.65C1606.66,94.09,1607.36,93.39,1607.45,92.61Zm-26,373.43a7.05,7.05,0,0,0-1.6-2c-.57.65-1.36,1.24-1.61,2-.11.34.87,1,1.6,1.83C1580.56,467.06,1581.55,466.37,1581.44,466ZM1438.05,882.6a6.87,6.87,0,0,0,2.13-1.42c-.61-.62-1.12-1.45-1.86-1.75-.34-.14-1.1.76-2,1.41C1437.09,881.63,1437.69,882.67,1438.05,882.6Zm-384.41,166.3c0-.42-1.36-1.42-1.63-1.28a3.24,3.24,0,0,0-1.51,1.93c-.09.42.85,1.05,1.66,2C1052.87,1050.37,1053.6,1049.65,1053.64,1048.9ZM1352,162.16c.1-.41-.88-1.09-1.37-1.65-.62.55-1.51,1-1.77,1.7-.16.43.63,1.22,1.24,2.28C1350.95,163.49,1351.78,162.91,1352,162.16ZM371.81,922.63c.26.76,1.06,1.33,1.64,2,.56-.67,1.41-1.27,1.59-2s-.53-1.41-1-2.5C372.68,921.58,371.7,922.3,371.81,922.63ZM1497.14,735.31c-.05.37,1,1.26,1.61,1.26s1.65-.89,1.6-1.27c-.11-.77-.82-1.46-1.61-2.7C1498,733.84,1497.25,734.53,1497.14,735.31Zm-640.5,268.44c.74-.28,1.28-1.1,1.9-1.7a6.9,6.9,0,0,0-2.11-1.47c-.36-.09-1,.94-1.74,1.73C855.54,1003,856.28,1003.88,856.63,1003.75Zm513.29-779.91c.38.08,1.34-.92,1.37-1.47s-.77-1.72-1.15-1.69c-.78.05-1.52.71-2.81,1.42C1368.51,222.95,1369.16,223.69,1369.92,223.85ZM278.9,86.51c0-.38-1.13-1.18-1.72-1.14s-1.53,1-1.45,1.41c.16.76.92,1.4,1.78,2.57C278.2,88,278.86,87.29,278.9,86.51ZM897.79,98.08A1.36,1.36,0,0,0,896,96.5c-.6.18-1.48,1.21-1.37,1.61.21.75,1.05,1.31,1.95,2.31C897.14,99.35,897.74,98.74,897.79,98.08Zm456.36,81.47c-.3-.74-1.14-1.25-1.75-1.86a6.83,6.83,0,0,0-1.42,2.14c-.08.36,1,1,1.76,1.69C1353.4,180.66,1354.3,179.89,1354.16,179.55ZM204.26,271.73c.39.11,1.09-.88,1.64-1.38-.56-.62-1-1.51-1.71-1.77-.43-.16-1.22.63-2.27,1.24C202.92,270.69,203.5,271.52,204.26,271.73ZM530.26,450c.4,0,1.14-1.16,1.08-1.73s-1.07-1.48-1.46-1.38c-.75.18-1.37,1-2.51,1.87C528.7,449.41,529.48,450,530.26,450ZM1206.41,60.5c.4.11,1.4-.78,1.58-1.39a1.35,1.35,0,0,0-1.58-1.8c-.66.07-1.26.67-2.32,1.27C1205.09,59.47,1205.67,60.3,1206.41,60.5ZM1056.54,560.08c.42,0,1.42-1.36,1.27-1.63a3.23,3.23,0,0,0-1.93-1.5c-.42-.09-1.05.85-2,1.67C1055.07,559.3,1055.79,560,1056.54,560.08ZM558.66,4.41c.41.1,1.08-.88,1.64-1.38-.56-.62-1-1.5-1.71-1.76-.43-.16-1.21.64-2.27,1.26C557.33,3.4,557.92,4.23,558.66,4.41Zm8.47,588.88a7,7,0,0,0,2.06-1.55c-.64-.59-1.2-1.4-2-1.67-.34-.12-1.07.83-1.89,1.54C566.12,592.37,566.79,593.39,567.14,593.29ZM551.28,33.76c.75-.15,1.37-.91,2.05-1.42-.45-.6-.92-1.71-1.35-1.7-.75,0-1.47.74-2.62,1.41C550.25,32.89,550.86,33.84,551.28,33.76ZM310.92,278.92c.75-.26,1.32-1.06,2-1.65-.67-.56-1.27-1.4-2-1.58s-1.42.52-2.53,1C309.88,278.06,310.59,279,310.92,278.92ZM1136.74,27.64c0,.38,1.15,1.15,1.73,1.11s1.51-1,1.43-1.42c-.16-.76-.93-1.39-1.8-2.55C1137.42,26.1,1136.77,26.86,1136.74,27.64ZM595,73.5c.43,0,1.43-1.36,1.29-1.63a3.24,3.24,0,0,0-1.93-1.51c-.42-.09-1.06.85-2,1.66C593.53,72.72,594.25,73.45,595,73.5Zm959.19,661c0-.43-1.11-.9-1.72-1.35-.5.69-1.27,1.32-1.41,2.08-.08.42.88,1,1.72,1.92C1553.46,736,1554.18,735.26,1554.2,734.5ZM1491,620.43a3.15,3.15,0,0,0,1.53,1.87c.28.14,1.63-.88,1.59-1.3-.06-.75-.8-1.44-1.51-2.54C1491.84,619.38,1490.92,620,1491,620.43ZM142.89,174.91a3.17,3.17,0,0,0,1.87-1.55c.14-.28-.89-1.62-1.31-1.59-.75.06-1.44.81-2.55,1.52C141.83,174.08,142.48,175,142.89,174.91Zm514.78,857c.7-.25,1.19-1.11,1.77-1.72-.54-.51-1.19-1.52-1.6-1.43-.75.17-1.36,1-2.39,1.82C656.49,1031.25,657.25,1032.07,657.67,1031.92Zm-449.15-821a3.19,3.19,0,0,0,1.54,1.88c.28.14,1.62-.88,1.59-1.3-.06-.75-.8-1.44-1.51-2.55C209.35,209.89,208.42,210.54,208.52,210.94Zm740-118.26a6.92,6.92,0,0,0,2.15-1.44c-.61-.62-1.14-1.45-1.88-1.76-.34-.14-1.11.77-2,1.44C947.52,91.72,948.14,92.76,948.49,92.68ZM653.16,939.57c.17.76,1,1.36,1.56,2,.58-.64,1.39-1.2,1.65-2,.12-.34-.84-1.06-2.23-2.68C653.67,938.14,653,938.94,653.16,939.57Zm1186.4-692.09a4.61,4.61,0,0,0-1.76-1.85c-.15-.1-1.32.76-1.27,1a13.69,13.69,0,0,0,1.34,2.81C1838.7,248.52,1839.68,247.77,1839.56,247.48Zm-11,510.25a2.26,2.26,0,0,0,1.43,1.58c.5.07,1.68-.92,1.61-1.22a9.62,9.62,0,0,0-1.69-2.55C1829.18,756.57,1828.43,757.22,1828.52,757.73ZM569.1,123.33a4.78,4.78,0,0,0-1.79-1.85c-.15-.1-1.32.77-1.27,1a13.68,13.68,0,0,0,1.35,2.8C568.23,124.37,569.22,123.6,569.1,123.33ZM756.53,881.56c.08-.27-1-1.27-1.16-1.19a4.83,4.83,0,0,0-1.94,1.7c-.15.27.76,1.11,1.5,2.13A12.81,12.81,0,0,0,756.53,881.56Zm22.94-581.81c.06-.27-1.09-1.13-1.24-1a4.72,4.72,0,0,0-1.78,1.83c-.12.28.86,1,1.69,2A13.25,13.25,0,0,0,779.47,299.75ZM532.24,58.38a2.34,2.34,0,0,0-1.3-1.73c-.48-.13-1.77.76-1.73,1.07.11.78.76,1.5,1.46,2.7C531.45,59.46,532.28,58.88,532.24,58.38ZM1742.33,973.77c.28.11,1.36-.86,1.3-1a4.91,4.91,0,0,0-1.49-2.1c-.26-.17-1.19.64-2.3,1.3A12.6,12.6,0,0,0,1742.33,973.77ZM553,969.8a2.33,2.33,0,0,0,1.32,1.73c.49.13,1.77-.77,1.73-1.08-.1-.78-.76-1.5-1.46-2.69C553.8,968.73,553,969.31,553,969.8Zm978.72-695.06c.31.11,1.47-.9,1.46-1.38a2.28,2.28,0,0,0-1.37-1.64c-.52-.16-1.27.46-2.45,1C1530.42,273.67,1531,274.47,1531.73,274.74Zm-231.61,757.78a2.34,2.34,0,0,0-1.29-1.74c-.48-.13-1.78.76-1.74,1.07.1.79.75,1.51,1.46,2.72C1299.34,1033.6,1300.16,1033,1300.12,1032.52Zm108-478.48c1.28,1.9,2.82,1.67,5.5,1.08C1411.47,553.18,1410.18,551.93,1408.11,554ZM231.67,280.18a2.28,2.28,0,0,0,1.44,1.58c.5.07,1.68-.93,1.61-1.23A9.67,9.67,0,0,0,233,278C232.34,279,231.58,279.67,231.67,280.18ZM388.41,934.52a4.84,4.84,0,0,0,1.7-1.93c.08-.14-.91-1.24-1.18-1.16a12.92,12.92,0,0,0-2.64,1.6C387.3,933.77,388.13,934.66,388.41,934.52ZM255.5,561.22a4.65,4.65,0,0,0-1.84,1.77c-.1.15.77,1.32,1,1.26a13.61,13.61,0,0,0,2.81-1.35C256.54,562.07,255.79,561.1,255.5,561.22Zm1305.34,465.39c.28.11,1.43-.95,1.4-1.44a2.26,2.26,0,0,0-1.41-1.6c-.52-.14-1.26.51-2.4,1A10.26,10.26,0,0,0,1560.84,1026.62Zm-707.65-19c.3.07,1.3-1.13,1.22-1.63a2.29,2.29,0,0,0-1.6-1.42c-.51-.09-1.15.67-2.2,1.35A9.78,9.78,0,0,0,853.19,1007.6ZM10,951.7a2.24,2.24,0,0,0,1.42-1.57c0-.49-1.09-1.55-1.38-1.45-.76.27-1.35,1-2.42,2C8.77,951.18,9.5,951.83,10,951.7ZM378.4,639.17c.31.12,1.47-.89,1.46-1.37a2.28,2.28,0,0,0-1.36-1.64c-.51-.16-1.28.46-2.45,1C377.1,638.08,377.65,638.89,378.4,639.17ZM323.48,367.86a4.91,4.91,0,0,0,1.53-2.08c.06-.13-1-1.12-1.29-1a12.82,12.82,0,0,0-2.53,1.78C322.29,367.2,323.21,368,323.48,367.86ZM626.15,220.45a4.61,4.61,0,0,0-1.75-1.85c-.15-.1-1.33.76-1.27,1a13.72,13.72,0,0,0,1.33,2.81C625.29,221.49,626.27,220.74,626.15,220.45ZM1833.75,402.78a2.34,2.34,0,0,0-1.31-1.73c-.48-.13-1.77.77-1.73,1.08.11.79.76,1.5,1.47,2.7C1833,403.86,1833.8,403.28,1833.75,402.78ZM794.4,1027.86c.27.08,1.28-1,1.2-1.16a4.89,4.89,0,0,0-1.71-2c-.28-.15-1.13.76-2.15,1.5A13.07,13.07,0,0,0,794.4,1027.86ZM592.65,937.46c.32-.67,1-1.41.86-2s-.95-1.32-1.46-2c-.41.6-1.1,1.17-1.17,1.8s.46,1.38.72,2.07ZM393,135.06a4.81,4.81,0,0,0,1.87,1.76c.15.09,1.28-.85,1.2-1.12a13.06,13.06,0,0,0-1.49-2.7C393.82,134,392.88,134.79,393,135.06Zm1236.19.5c.3,0,1.21-1.24,1.08-1.72a2.34,2.34,0,0,0-1.72-1.31c-.49-.05-1.08.77-2.05,1.54C1627.72,134.79,1628.42,135.45,1629.21,135.57ZM576.1,384.34a4.86,4.86,0,0,0-2.07-1.5c-.13-.06-1.1,1-1,1.28a12.75,12.75,0,0,0,1.77,2.49C575.45,385.52,576.27,384.61,576.1,384.34ZM746.52,998.56a10.66,10.66,0,0,0-1.76-2c-.41.43-1.24,1-1.15,1.25a14.45,14.45,0,0,0,1.74,2.58C746,999.51,746.66,998.8,746.52,998.56Zm-615.57-835c.57,0,1.17-.79,1.76-1.23-.45-.59-.82-1.54-1.37-1.66s-1.26.61-2.32,1.21C129.88,162.72,130.4,163.59,130.95,163.61Zm572.67,22c.57,0,1.16-.78,1.75-1.22-.45-.58-.82-1.52-1.37-1.65s-1.24.61-2.3,1.2C702.56,184.77,703.08,185.64,703.62,185.65ZM262.76,672.75c-.08-.56-1-1-1.51-1.52-.5.54-1.36,1.05-1.4,1.62s.8,1.13,1.52,2.05C262,673.93,262.84,673.28,262.76,672.75ZM1556.36,458.36c0,.28,1,1,1.4.92.63-.17,1.13-.86,1.68-1.33l-1.9-1.8A7.44,7.44,0,0,0,1556.36,458.36Zm358.69,282c.27,0,1-1,.91-1.4-.17-.63-.85-1.13-1.32-1.68l-1.8,1.89A7.41,7.41,0,0,0,1915,740.32Zm-9.38-65.46c0-.57-.9-1.08-1.4-1.61-.53.5-1.43,1-1.5,1.53s.72,1.18,1.4,2.15C1904.88,676,1905.7,675.39,1905.66,674.86ZM781,930.81a5.75,5.75,0,0,0,.69-2.06c0-.46-.8-1.25-1.21-1.23-1.25.06-1.52,1-1.28,2.12.14.64.37,1.26.56,1.89Zm870.23-156.27c.11.61.93,1.09,1.44,1.62.52-.72,1.31-1.4,1.44-2.18.07-.43-1-1-1.91-1.94C1651.67,773.18,1651.08,773.93,1651.19,774.55Zm259.06-98.33c.56-.07,1-1,1.53-1.49-.53-.5-1-1.37-1.6-1.41s-1.14.78-2.06,1.5C1909.07,675.49,1909.71,676.28,1910.24,676.21ZM425.43,926.51c.57,0,1.09-.88,1.63-1.38-.5-.54-.94-1.44-1.51-1.52s-1.19.71-2.17,1.38C424.31,925.72,424.89,926.54,425.43,926.51ZM32.18,631.16c.56-.12.94-1.05,1.4-1.63-.57-.46-1.15-1.27-1.72-1.27s-1.08.87-1.94,1.65C31,630.53,31.66,631.28,32.18,631.16Zm1369.18,143c-2,.95-2,.95-2,3C1401.79,776.2,1401.79,776.2,1401.36,774.2ZM1524.09,87.83c.51-.15.79-1.1,1.18-1.7a6.38,6.38,0,0,0-2.09-.69c-.41,0-.8.76-1.58,1.57C1522.74,87.42,1523.52,88,1524.09,87.83ZM1406.42,986.6a1.46,1.46,0,0,0,.39-2.9c-.52-.13-1.24.6-2.3,1.2C1405.36,985.71,1405.88,986.59,1406.42,986.6ZM515.16,170.14c0,.56.89,1.07,1.38,1.6.53-.49,1.42-.94,1.49-1.5s-.7-1.17-1.36-2.14C515.95,169,515.13,169.6,515.16,170.14Zm27.92,282.23a1.46,1.46,0,0,0-2.89.35c0,.54.88,1.07,1.67,1.91C542.46,453.6,543.2,452.89,543.08,452.36Zm77.84,363.17c-.57,0-1.16.79-1.74,1.23.45.58.83,1.52,1.38,1.64s1.25-.62,2.3-1.21C622,816.4,621.47,815.54,620.93,815.53Zm217.32,5.18c.46,0,.9-.74,1.34-1.15-.54-.48-1-1.27-1.63-1.34s-1.17.67-2.39,1.46C836.89,820.22,837.57,820.72,838.24,820.7ZM644.3,149.22c.07.56,1,1,1.49,1.52.5-.53,1.36-1,1.41-1.6s-.78-1.14-1.49-2.07C645,148,644.24,148.68,644.3,149.22ZM953.53,358.38c-.07-.56-1-1-1.48-1.52-.5.53-1.36,1-1.39,1.59s.78,1.13,1.49,2C952.82,359.55,953.6,358.91,953.53,358.38ZM814.86,27.49c.57,0,1.08-.9,1.62-1.4-.5-.54-1-1.43-1.52-1.5s-1.18.71-2.16,1.38C813.73,26.7,814.33,27.52,814.86,27.49ZM508.74,1012.61a1.46,1.46,0,0,0-.33-2.9c-.54,0-1.07.88-1.93,1.66C507.5,1012,508.21,1012.72,508.74,1012.61Zm798.12-953.8c.46,0,1.24-.83,1.21-1.23-.09-1.23-1.07-1.59-2.14-1.22-.49.17-.82.79-1.6,1.6A7.86,7.86,0,0,0,1306.86,58.81Zm-99,849.77c-.09.22.79,1.23,1.17,1.2a5.7,5.7,0,0,0,2-1l-1.38-2.14C1208.78,907.5,1208.12,908,1207.85,908.58ZM419.24,382.12c0-.46-.8-1.24-1.21-1.22-1.25.06-1.59,1.05-1.24,2.11.16.49.78.83,1.58,1.63A7.94,7.94,0,0,0,419.24,382.12ZM1118.95,92.8a2,2,0,0,0-1.47-1.34c-.48,0-1.38.94-1.34,1.4S1117,94,1117.74,95C1118.32,94,1119,93.33,1118.95,92.8ZM746.7,85.54c.3-.65.94-1.38.81-1.93a2,2,0,0,0-1.63-1.14c-.47,0-1.17,1-1.18,1.56a6,6,0,0,0,.89,2.16ZM565.12,71.75a2,2,0,0,0,1.16-1.63c0-.47-1-1.19-1.55-1.2-.71,0-1.43.6-2.93,1.31C563.85,71.22,564.57,71.88,565.12,71.75Zm719.17-60.59c.6-.17,1-1,1.5-1.59-.57-.44-1.12-1.2-1.7-1.22s-1.05.8-1.92,1.55C1283.15,10.52,1283.85,11.29,1284.29,11.16Zm130.92,989.17c.6-.07,1.12-.88,1.68-1.38-.47-.51-.88-1.36-1.42-1.45s-1.16.62-2.14,1.21C1414.19,999.49,1414.76,1000.39,1415.21,1000.33ZM396.29,965.69c.07.6.88,1.12,1.38,1.68.51-.47,1.36-.88,1.45-1.42s-.62-1.16-1.2-2.13C397.13,964.67,396.23,965.24,396.29,965.69Zm-68.43-18.56c.09-.34-.68-.9-1.06-1.36l-1.9,1.75,1.49,1.6C327,948.3,327.69,947.78,327.86,947.13Zm1059.93-30.92a1.93,1.93,0,0,0,1.45-1.29,2,2,0,0,0-1.25-1.53c-.54-.1-1.22.58-2.24,1.15C1386.67,915.34,1387.19,916.15,1387.79,916.21ZM499.1,265.72a3.63,3.63,0,0,0-1.82-1.19c-.26-.06-1.13,1.07-1,1.18a12.82,12.82,0,0,0,1.92,1.8C498.62,266.68,499.24,265.88,499.1,265.72Zm692.07-89c1.49.57,2.73.61,3.57-1.06C1192.48,174.65,1192.48,174.65,1191.17,176.69ZM610.59,815.19a6,6,0,0,0,2.16.87c.56,0,1.53-.69,1.57-1.14a2,2,0,0,0-1.12-1.64c-.54-.14-1.28.49-1.93.78ZM1797,326.88a1.34,1.34,0,0,0-1.28.3c-.82,1.28-.28,2.15,1.57,2.87C1798,328.71,1798.41,327.65,1797,326.88Zm-327.66,46.8c-.06-.55-.88-1-1.36-1.52-.52.53-1.34,1-1.45,1.61-.08.45.77,1.06,1.49,2C1468.66,374.81,1469.41,374.2,1469.35,373.69ZM145.63,671.16c-.1.14.78,1.32,1,1.26a4.08,4.08,0,0,0,1.88-1.2c.13-.14-.48-.95-.93-1.78A11,11,0,0,0,145.63,671.16ZM1723.79,565.82c.6-.18,1-1,1.5-1.6-.56-.44-1.12-1.21-1.69-1.23s-1,.81-1.91,1.55C1722.66,565.17,1723.36,565.95,1723.79,565.82ZM1346.15,316.76c0-.37-.82-.68-1.28-1a5.37,5.37,0,0,0-1,1.81c0,.37.68.83,1.44,1.66A7.85,7.85,0,0,0,1346.15,316.76ZM387.9,626.31a3,3,0,0,0,1.2-1.62c.06-.33-.73-.83-1.13-1.25l-1.71,1.73C387,625.71,387.75,626.42,387.9,626.31Zm1063.19-73.68c-.49-.51-.91-1.19-1.52-1.46-.23-.1-1.13.66-1.24,1.15s.6.9,1.12,1.61Zm313.48-61.38a5.81,5.81,0,0,0,1.24,1.78c.37-.47,1-.91,1-1.42s-.4-1.07-.81-2C1765.29,490.38,1764.49,490.92,1764.56,491.25Zm17.1-480.64a3,3,0,0,0-1.59-1.24c-.33-.07-.85.71-1.29,1.11l1.69,1.76C1781,11.48,1781.77,10.76,1781.66,10.61ZM1002.05,28.47c.32-.47.89-.94.9-1.41s-.54-1-.85-1.45L1000,27Zm-6.52,126.6c.08.63.66,1.19,1,1.77.45-.36,1.25-.7,1.26-1.08a7.69,7.69,0,0,0-.89-2.41C996.2,154.21,995.48,154.69,995.53,155.07Zm-478.3,863.81a6,6,0,0,0-.9-1.91c-.47.32-1.26.6-1.32,1a7.51,7.51,0,0,0,.66,2.45C516.5,1019.64,517.27,1019.22,517.23,1018.88ZM1140.55,33.64c.38-.06.66-.85,1-1.32a5.94,5.94,0,0,0-1.91-.88c-.34,0-.76.73-1.53,1.55A7.5,7.5,0,0,0,1140.55,33.64Zm45.71,893c-.19.6-.6,1.23-.52,1.79a6.39,6.39,0,0,0,1,1.87c.46-.34,1.24-.64,1.29-1a5.06,5.06,0,0,0-.55-1.93ZM684,34.75a6.47,6.47,0,0,0-1.63-1.37c-.21-.09-1.11.74-1.15,1.2s.65.92,1.21,1.63ZM476.66,987.42c.05-.22-1-1-1.31-.92a2.38,2.38,0,0,0-1.35,1.4c-.13.49.36,1.15.8,2.33C476,988.54,476.52,988,476.66,987.42Zm925.58,70.43c.37,0,.68-.83,1-1.29a5.39,5.39,0,0,0-1.81-.94c-.37,0-.82.68-1.65,1.44A7.81,7.81,0,0,0,1402.24,1057.85ZM569.09,380.31a6.4,6.4,0,0,0-1.67-1.35c-.22-.08-1.09.77-1.14,1.25s.7.86,1.3,1.52Zm404.6,677.51c.22.08,1.19-.85,1.12-1.14a5.85,5.85,0,0,0-1.2-1.73l-1.68,1.37C972.65,1057,973.1,1057.6,973.69,1057.82Zm358.49-8a5.93,5.93,0,0,0-1-1.85c-.45.37-1.23.71-1.27,1.11-.05.62.41,1.28.84,2.4C1331.49,1050.64,1332.24,1050.17,1332.18,1049.82Zm-887-561.71c.23.06,1.07-.94,1-1.23a2.53,2.53,0,0,0-1.35-1.47c-.44-.15-1.11.41-2.2.88C444.12,487.4,444.61,488,445.21,488.11Zm887.62,461.58c.09-.39-.65-1.39-.85-1.35a7.54,7.54,0,0,0-1.91,1l1.26,1.73C1332,950.5,1332.72,950.17,1332.82,949.69Zm6.09-530.32c.08.63.66,1.19,1,1.78.45-.36,1.25-.7,1.26-1.08a7.69,7.69,0,0,0-.88-2.41C1339.59,418.51,1338.87,419,1338.92,419.37ZM493,638.43c-.06.23.95,1.06,1.23,1a2.53,2.53,0,0,0,1.46-1.36c.14-.45-.4-1.12-.87-2.23C493.74,637.33,493.19,637.83,493,638.43ZM1417.81,467a2,2,0,0,0,1.42-.79,8.48,8.48,0,0,0-1-2l-1.75,1.2C1417.06,466.2,1417.37,466.94,1417.81,467Zm-783.39,572.7a5.8,5.8,0,0,0-1.17-1.78c-.42.41-1.17.82-1.17,1.25,0,.62.51,1.24,1,2.3C633.79,1040.62,634.5,1040.09,634.42,1039.73Zm617.35-806.65c.06,3.08,1.14,3.67,4,3.75ZM832.45,90.37a5.9,5.9,0,0,0,1.2-1.73c.07-.28-.9-1.21-1.12-1.12-.59.22-1,.84-1.76,1.5ZM575.29,92.64c.05.35,1,.57,1.5.85.25-.57.71-1.15.67-1.7s-.66-.88-1.46-1.85C575.6,91.28,575.19,92,575.29,92.64Zm-58.36,1.22c.05.52.65,1,1,1.48a5.89,5.89,0,0,0,1.32-1.69c.1-.32-.64-.89-1.31-1.75C517.43,92.84,516.88,93.38,516.93,93.85Zm1028.2,441.37c-.14-.48-1.08-1.21-1.29-1.1a6.09,6.09,0,0,0-1.45,1.54l1.75,1.23C1544.6,536.17,1545.24,535.59,1545.13,535.23ZM1406.73,96.75c.41,0,.77-.8,1.15-1.24a5.83,5.83,0,0,0-1.83-1.07c-.36-.06-.85.67-1.71,1.43C1405.44,96.31,1406.1,96.79,1406.73,96.75Zm123.58,15.75c.35-.05.57-1,.85-1.5-.57-.25-1.16-.71-1.7-.67s-.88.66-1.85,1.46C1528.94,112.19,1529.66,112.6,1530.31,112.5ZM1115.51,307.94c.39-.06.67-.85,1-1.31a5.91,5.91,0,0,0-1.9-.9c-.35,0-.76.73-1.55,1.56A7.54,7.54,0,0,0,1115.51,307.94Zm178.43-41.77a6.43,6.43,0,0,0-1.67-1.35c-.22-.08-1.09.77-1.14,1.26s.7.86,1.3,1.52Zm208.15-46.79c0,.41.81.75,1.25,1.12a6,6,0,0,0,1-1.83c.06-.34-.67-.81-1.44-1.67C1502.51,218.12,1502,218.77,1502.09,219.38Zm-410.9,655.77a5.09,5.09,0,0,0,1.83.48,6.41,6.41,0,0,0,1.85-.89c-.31-.47-.58-1.3-.93-1.34a5.51,5.51,0,0,0-2,.55Zm383.23-309.88c-.49.08-1.3,1-1.21,1.22a6,6,0,0,0,1.41,1.6l1.37-1.58C1475.31,565.93,1474.79,565.21,1474.42,565.27Zm109.55-43c.4,0,.73-.81,1.1-1.26a5.92,5.92,0,0,0-1.83-1c-.34-.06-.81.68-1.65,1.46C1582.69,521.82,1583.35,522.27,1584,522.23Zm-881.84-9.15a5.79,5.79,0,0,0,1.15,1.8c.42-.41,1.18-.8,1.19-1.22,0-.62-.49-1.25-1-2.33C702.78,512.19,702.05,512.71,702.12,513.07ZM369.88,447.19c.39,0,1.12-.75,1.13-1.17s-.72-1.19-1.11-1.18c-.64,0-1.27.54-2.52,1.16C368.62,446.63,369.24,447.17,369.88,447.19Zm1273.59,55.05c.38,0,.72-.82,1.08-1.26a5.35,5.35,0,0,0-1.78-1c-.37-.05-.86.67-1.72,1.42A7.67,7.67,0,0,0,1643.47,502.24Zm-1271.61,322a7.47,7.47,0,0,0-1.88-1c-.19,0-.92.95-.83,1.32s.82.81,1.5,1.41Zm154.49,80.39c.3,0,.93-.72.86-.9-.2-.51-.64-1.18-1.08-1.26s-.88.59-1.8,1.28C525.34,904.2,525.84,904.6,526.34,904.61Zm86.52-545.85a2,2,0,0,0-1.41-1c-.36,0-1.15.81-1.09,1.11.11.51.75.9,1.45,1.63C612.32,359.68,613,359.06,612.86,358.76Zm176.87-121c.31,0,.87-.84.79-1-.28-.48-.78-1.08-1.24-1.11s-.82.67-1.66,1.44A6.89,6.89,0,0,0,789.73,237.8ZM373.84,369.92c.05.43.73.89,1.23,1.11.17.07.92-.54.92-.85a7,7,0,0,0-.82-2C374.46,369,373.79,369.52,373.84,369.92Zm884,708.07c0,.31.74.94.92.87.51-.21,1.19-.65,1.27-1.1s-.61-.89-1.31-1.81C1258.3,1077,1257.9,1077.47,1257.89,1078ZM1530.33,115.3c0-.32-.86-.88-1-.79-.48.28-1.08.8-1.11,1.26s.69.82,1.47,1.66A6.91,6.91,0,0,0,1530.33,115.3ZM930.69,372c.29,0,1-.63,1-.81-.15-.52-.53-1.25-.94-1.34s-1,.49-1.95,1C929.71,371.49,930.17,371.94,930.69,372Zm37.86,1.15c0,.3.72.93.9.86.51-.2,1.18-.63,1.26-1.07s-.59-.88-1.27-1.8C969,372.16,968.56,372.65,968.55,373.16ZM715.21,123.62c.25,0,.59-.59.88-.92a6.38,6.38,0,0,0-1.64-1.27c-.28-.1-.83.56-1.76,1.25A12.85,12.85,0,0,0,715.21,123.62ZM1265,1061.51c0-.31-.74-.95-.91-.87-.51.21-1.19.67-1.25,1.1s.61.9,1.32,1.81C1264.63,1062.53,1265,1062,1265,1061.51Zm-596.66-1.89c0-.29-.63-1-.82-.94-.52.15-1.24.53-1.33.94s.5,1,1.06,1.93C667.85,1060.61,668.3,1060.14,668.37,1059.63Zm1173.26-932.9c.43-.05.9-.72,1.12-1.22.08-.17-.54-.92-.85-.92a7,7,0,0,0-2,.81C1840.75,126.1,1841.23,126.78,1841.63,126.73ZM358.9,857.59c.44-.05.9-.73,1.12-1.24.08-.17-.55-.92-.85-.92a7,7,0,0,0-2.05.82C358,857,358.51,857.64,358.9,857.59ZM516.14,704c0-.31-.85-.87-1-.78-.48.28-1.08.79-1.11,1.25s.68.82,1.45,1.65A6.9,6.9,0,0,0,516.14,704Zm567.57,220.85c0,.3.73.93.9.86.51-.21,1.18-.64,1.25-1.08s-.6-.88-1.28-1.79C1084.12,923.81,1083.72,924.31,1083.71,924.82ZM539,133.65c.05.44.72.9,1.22,1.13.17.08.92-.54.93-.85a7,7,0,0,0-.8-2.06C539.66,132.77,539,133.26,539,133.65Zm1364.6,907.29c0,.31.74.95.92.87.51-.21,1.2-.65,1.27-1.1s-.6-.9-1.3-1.82C1904,1039.92,1903.64,1040.43,1903.63,1040.94Zm-1066.1-.34c0-.29-.62-1-.8-.94-.51.15-1.23.52-1.32.93s.48,1,1,1.91C837,1041.57,837.46,1041.12,837.53,1040.61Zm602.09-.71c.5-.13.88-.73,1.31-1.13-.41-.38-.9-1.14-1.23-1.07-.61.13-1.13.72-2.19,1.48C1438.61,1039.59,1439.18,1040,1439.62,1039.9Zm116.64-359.25c0,.3.83.87,1,.78.48-.27,1.08-.77,1.13-1.23s-.67-.82-1.42-1.65A7,7,0,0,0,1556.26,680.64ZM804.54,1037.78c.29,0,1-.63,1-.81-.15-.52-.53-1.25-.94-1.34s-1,.49-2,1C803.56,1037.25,804,1037.71,804.54,1037.78ZM165.72,136.34c0-.31-.84-.88-1-.79-.48.27-1.09.79-1.12,1.24s.68.83,1.45,1.67A6.92,6.92,0,0,0,165.72,136.34Zm1052.22-44a10.43,10.43,0,0,0,1.19-1.77c.07-.17-.66-1-.78-.9a14.34,14.34,0,0,0-2,1.33Zm214.4,122a5,5,0,0,0,1-1.86c0-.16-.81-.83-.93-.75a15.48,15.48,0,0,0-1.9,1.71C1431.41,214,1432.24,214.52,1432.33,214.42ZM1292,941.14c-.25-.6-.92-1-1.42-1.51-.29.33-.88.71-.82,1a13.6,13.6,0,0,0,1.13,2.47C1291.5,942.06,1292.13,941.44,1292,941.14ZM421,838.1c.1.5.72.89,1.12,1.33.39-.38,1.16-.82,1.11-1.13a8.71,8.71,0,0,0-1.33-2.3C421.35,837.1,420.86,837.66,421,838.1ZM131.87,416c.3,0,.93-.73.86-.91-.21-.51-.65-1.18-1.09-1.26s-.88.6-1.79,1.3C130.86,415.64,131.36,416,131.87,416Zm528.42-276.1c0-.27-.81-.67-1.26-1-.34.48-.9.93-1,1.45s.44,1,1,2A9.6,9.6,0,0,0,660.28,139.94Zm718.62,803c.08.52.64,1,1,1.43.44-.35,1.28-.75,1.24-1a9.31,9.31,0,0,0-1.29-2.42C1379.32,941.95,1378.83,942.47,1378.9,942.9ZM572.08,195.72c.05.43.72.89,1.22,1.11.17.07.91-.54.91-.84a7,7,0,0,0-.81-2C572.7,194.84,572,195.32,572.08,195.72Zm832,235.4c.43-.06.89-.73,1.11-1.24.07-.17-.55-.92-.85-.92a7,7,0,0,0-2,.83C1403.22,430.5,1403.71,431.17,1404.11,431.12ZM40.49,613.08c0,.45.63,1,1.1,1.25.15.09,1-.47,1-.78a6.9,6.9,0,0,0-.63-2.12C41.18,612.26,40.47,612.68,40.49,613.08Zm1518.73-.67c0,.3.73.94.91.87.51-.2,1.19-.65,1.27-1.08s-.6-.89-1.3-1.81C1559.63,611.4,1559.23,611.91,1559.22,612.42ZM1883,604.22c.31,0,.87-.84.78-1-.27-.47-.78-1.07-1.23-1.1s-.81.67-1.64,1.44A6.8,6.8,0,0,0,1883,604.22ZM1442,465.9c.46.17,1.11-.15,1.68-.25-.27-.6-.41-1.38-.87-1.75-.29-.23-1.06.13-2.11.31C1441.36,465.05,1441.6,465.74,1442,465.9Zm-109,491.56a1.86,1.86,0,0,0,1-1.36c0-.43-.67-.86-1-1.29l-1.79,1.9C1332.11,957.1,1332.72,957.6,1333.06,957.46ZM190.8,263.7c0-.29-.63-1-.82-1-.52.15-1.25.53-1.34.95s.49,1,1.06,2C190.28,264.69,190.73,264.22,190.8,263.7ZM1214.23,503.12c.31,0,.87-.84.78-1-.28-.47-.79-1.07-1.24-1.1s-.82.68-1.65,1.45A6.86,6.86,0,0,0,1214.23,503.12ZM1323,191.6c0,.45.63,1,1.1,1.25.15.09,1-.46,1-.78a6.89,6.89,0,0,0-.62-2.12C1323.67,190.78,1323,191.2,1323,191.6ZM541.34,592.22c.31,0,.94-.73.87-.9-.21-.51-.65-1.19-1.08-1.25s-.9.61-1.8,1.3C540.32,591.82,540.83,592.22,541.34,592.22ZM1548.18,973.62c.05.44.74.9,1.25,1.13.17.08.93-.55.93-.86a7.09,7.09,0,0,0-.83-2.07C1548.81,972.72,1548.13,973.21,1548.18,973.62ZM529,285.82c.26,0,.59-.6.89-.93a6.5,6.5,0,0,0-1.67-1.26c-.28-.1-.82.58-1.74,1.29A12.69,12.69,0,0,0,529,285.82Zm123.6,726.9c.32,0,.88-.85.79-1-.28-.48-.8-1.09-1.25-1.12s-.82.68-1.66,1.46A6.9,6.9,0,0,0,652.58,1012.72ZM491.27,802.47c.31,0,.94-.74.87-.9-.21-.5-.66-1.18-1.09-1.23s-.89.61-1.79,1.3A6.92,6.92,0,0,0,491.27,802.47ZM314.44,287.86c.51-.09.92-.69,1.38-1.07-.36-.41-.78-1.21-1.07-1.17a9.19,9.19,0,0,0-2.38,1.28C313.45,287.43,314,287.94,314.44,287.86Zm828.62,5c.3,0,.94-.74.87-.92-.21-.51-.65-1.19-1.09-1.27s-.89.6-1.81,1.3C1142,292.5,1142.55,292.9,1143.06,292.91ZM297.66,798.26c-.05.31.7.75,1.09,1.14.4-.44,1-.82,1.12-1.32s-.38-1-.86-2.1A8.75,8.75,0,0,0,297.66,798.26Zm221.61-.18a5,5,0,0,0,1-1.84c0-.16-.8-.82-.92-.75a15.36,15.36,0,0,0-1.89,1.69C518.36,797.64,519.18,798.18,519.27,798.08ZM1405.35,90.66c.06-.25-.5-.66-.78-1-.51.47-1.2.86-1.46,1.44-.14.3.47.94,1,2A13.34,13.34,0,0,0,1405.35,90.66ZM434.07,262.58c0-.31-.74-.95-.92-.88-.51.21-1.2.67-1.26,1.1s.62.9,1.32,1.82C433.67,263.6,434.07,263.09,434.07,262.58ZM1603.43,759.27c0-.29-.62-1-.8-.94-.51.15-1.24.52-1.33.93s.48,1,1,1.93C1602.91,760.24,1603.36,759.78,1603.43,759.27ZM301.19,989.68c.31,0,.87-.84.78-1-.28-.47-.79-1.07-1.24-1.1s-.81.68-1.64,1.45A6.82,6.82,0,0,0,301.19,989.68ZM24.48,992c0,.31.84.87,1,.78.48-.27,1.08-.78,1.12-1.24s-.67-.82-1.44-1.65A6.94,6.94,0,0,0,24.48,992ZM1354,166.67c.05.43.73.89,1.24,1.1.17.07.92-.55.92-.85a7,7,0,0,0-.83-2C1354.59,165.79,1353.92,166.28,1354,166.67ZM234.08,1004.86c.51-.08,1-.63,1.43-1-.34-.44-.74-1.28-1-1.24a9.29,9.29,0,0,0-2.41,1.27C233.13,1004.45,233.65,1004.93,234.08,1004.86Zm962.7-954.12a11,11,0,0,0,1.89-1.14c-.3-.35-.66-1-.89-1a11.2,11.2,0,0,0-2.3,1C1196.15,50.19,1196.6,50.82,1196.78,50.75Zm-451.47-13c0,.3.72.93.9.86.5-.2,1.17-.63,1.25-1.07s-.59-.88-1.27-1.78C745.72,36.77,745.32,37.27,745.31,37.77Zm133-2.25c.26,0,.58-.85.88-1.32-.5-.31-1-.84-1.51-.87s-.89.53-1.86,1.17A9.53,9.53,0,0,0,878.34,35.53Zm793.08,216.62c0,.3.83.86,1,.78.48-.27,1.08-.77,1.12-1.23s-.67-.81-1.42-1.64A6.9,6.9,0,0,0,1671.42,252.15ZM59,156.57c.12.05.85-.76.77-.93a10.18,10.18,0,0,0-1.23-1.74L57,155.26A14.32,14.32,0,0,0,59,156.57ZM588.2,883.18c0-.31-.84-.87-1-.79-.48.27-1.08.78-1.11,1.23s.68.82,1.44,1.65A6.83,6.83,0,0,0,588.2,883.18Zm707-54.66c0-.27-.94-1-1.19-.91a2,2,0,0,0-1,1.33c-.05.45.47,1,1,2A9.7,9.7,0,0,0,1295.21,828.52ZM1052.71,11.58c.43-.05.89-.73,1.1-1.23.07-.17-.54-.92-.84-.92a6.93,6.93,0,0,0-2,.82C1051.83,11,1052.31,11.63,1052.71,11.58Zm662.7-3.09c.06.43.73.88,1.23,1.1.17.07.91-.54.91-.85a7,7,0,0,0-.82-2C1716,7.61,1715.35,8.09,1715.4,8.49ZM495,1020.67c.05.43.73.89,1.23,1.11.17.07.92-.54.92-.85a7,7,0,0,0-.81-2C495.6,1019.79,494.93,1020.28,495,1020.67ZM1901.5,766.46c0,.25.57.6.88.91a6,6,0,0,0,1.35-1.59c.11-.28-.57-.87-1.26-1.83A13.32,13.32,0,0,0,1901.5,766.46ZM221.27,330.9c.33.07.84-.67,1.27-1-.43-.4-.8-1-1.3-1.15s-1,.29-2.16.67C220.15,330.16,220.66,330.77,221.27,330.9Zm1037.59,5.17a1.84,1.84,0,0,0-1.21-1.18c-.42-.07-1,.52-1.44.82l1.45,2C1258.28,336.92,1258.94,336.41,1258.86,336.07Zm90.54,405.34c.32,0,.89-.86.8-1-.28-.48-.8-1.1-1.26-1.12s-.83.69-1.68,1.47A7,7,0,0,0,1349.4,741.41Zm-8.22-443.55c.06-.23-.52-.64-.82-1a6.33,6.33,0,0,0-1.23,1.24c-.09.15.46.67,1,1.35A6.3,6.3,0,0,0,1341.18,297.86Zm-674,233.48c0,.22.88.76,1,.69a3.9,3.9,0,0,0,1-1.39c0-.12-.61-.53-1.25-1.06A6.35,6.35,0,0,0,667.19,531.34Zm44.24-134.25a5.52,5.52,0,0,0,1-1.34c-.36-.25-.84-.78-1-.68a7,7,0,0,0-1.48,1.33C710.69,396.75,711.26,397.21,711.43,397.09Zm1005.47,3.73a3.85,3.85,0,0,0,1.47-.91c.08-.08-.38-1-.59-1a6.52,6.52,0,0,0-1.81.59C1716.43,400.16,1716.79,400.85,1716.9,400.82ZM1496.18,120c0,.19.93.66,1,.56a3.76,3.76,0,0,0,.91-1.45c0-.1-.66-.46-1.34-.92A6.75,6.75,0,0,0,1496.18,120ZM1607,950.62c.44-.08.77-.76,1.14-1.17-.46-.33-.92-.91-1.39-.92s-.88.59-1.72,1.23C1606,950.21,1606.54,950.71,1607,950.62ZM687.36,131.78c.24,0,.6-.58.91-.89a6.31,6.31,0,0,0-1.33-1.13c-.16-.08-.64.51-1.26,1.05A6.22,6.22,0,0,0,687.36,131.78ZM527.11,184.84c.23.06.64-.52,1-.81a6.36,6.36,0,0,0-1.23-1.24c-.15-.09-.68.46-1.35.94A6.3,6.3,0,0,0,527.11,184.84Zm832.1,787.95a3.39,3.39,0,0,0-1.09-1.31c-.08-.06-1,.58-.92.77a7.2,7.2,0,0,0,1,1.74C1358.68,973.41,1359.28,973,1359.2,972.79ZM926.06,635.11c.19,0,.74-.91.66-1a3.32,3.32,0,0,0-1.39-1c-.16-.05-.55.59-1.09,1.21A7.1,7.1,0,0,0,926.06,635.11Zm484.82,392.69a3.44,3.44,0,0,0,1.41-1c.08-.09-.47-1-.66-1a7.23,7.23,0,0,0-1.83.78C1410.33,1027.21,1410.73,1027.85,1410.88,1027.8ZM795.63,455.1a6.62,6.62,0,0,0-1.15,1.32c.34.27.79.84,1,.76A6.41,6.41,0,0,0,797,456C796.32,455.53,795.76,455,795.63,455.1Zm-321.9,569.43a1.7,1.7,0,0,0-1.38-.88,1.56,1.56,0,0,0-1,1.22c0,.42.75.78,1.44,1.42C473.27,1025.47,473.86,1024.87,473.73,1024.54Zm540-2.21c0-.48-.59-.95-.93-1.42-.42.38-1.1.72-1.19,1.17s.41,1,.87,2C1013.13,1023.21,1013.74,1022.76,1013.73,1022.33Zm212.92-128.71a3.4,3.4,0,0,0,1.38-1c.08-.09-.46-1-.64-1a7.2,7.2,0,0,0-1.79.77C1226.12,893,1226.51,893.67,1226.65,893.62ZM631.33,829.12a6.59,6.59,0,0,0,1.15,1.31c.32-.3.94-.67.9-.89a6.3,6.3,0,0,0-1-1.67C631.85,828.5,631.26,829,631.33,829.12ZM238,277.92c.22,0,.77-.88.7-1a3.91,3.91,0,0,0-1.39-1c-.12,0-.53.61-1.07,1.25A6.24,6.24,0,0,0,238,277.92Zm773,91.91c.2.06.59-.58.9-.9a5.73,5.73,0,0,0-1.28-1.14c-.18-.08-.66.48-1.3,1A6.89,6.89,0,0,0,1011,369.83ZM265.37,266.7a6.84,6.84,0,0,0,1.43-1c-.28-.34-.59-1-.82-1a6.32,6.32,0,0,0-1.76.83C264.78,266.12,265.22,266.76,265.37,266.7ZM823.42,964.45c.23.13.77-.29,1.17-.45a5.29,5.29,0,0,0-.82-1.49c-.16-.15-.8.19-1.66.43C822.67,963.62,823,964.18,823.42,964.45ZM678.36,865.23a6.48,6.48,0,0,0,1.26,1.23c.3-.33.89-.75.83-1a6.35,6.35,0,0,0-1.13-1.6C678.83,864.55,678.27,865.09,678.36,865.23ZM414,850.65a3.36,3.36,0,0,0,1.1-1.31c0-.1-.73-.86-.92-.78a7.1,7.1,0,0,0-1.55,1.23C413.31,850.22,413.86,850.75,414,850.65Zm309.35,18.56c0-.48-.53-1-.83-1.45-.44.35-1.14.63-1.24,1.05s.36,1,.76,2C722.74,870,723.36,869.64,723.37,869.21ZM580.21,282.47c0-.48-.59-.94-.92-1.41-.42.38-1.09.71-1.18,1.16s.4,1,.86,2C579.61,283.35,580.22,282.9,580.21,282.47ZM1402,321a3.46,3.46,0,0,0,1.29-1.13c.06-.08-.6-1-.8-.91a7,7,0,0,0-1.73,1C1401.36,320.5,1401.82,321.09,1402,321Zm262.33,474.92a3.9,3.9,0,0,0-1-1.43c-.07-.07-1,.46-1,.68a6.41,6.41,0,0,0,.7,1.8C1663.69,796.46,1664.36,796.06,1664.32,795.93Zm-957-682.14a3.32,3.32,0,0,0,1.19-1.22c.06-.09-.66-.9-.86-.84a6.94,6.94,0,0,0-1.64,1.11C706.63,113.32,707.13,113.88,707.3,113.79Zm347.84,863.7a3.84,3.84,0,0,0,1.48-.91c.09-.09-.38-1-.59-1a6.57,6.57,0,0,0-1.83.59C1054.67,976.82,1055,977.53,1055.14,977.5Zm286.41-884c.19,0,.73-.9.65-1a3.27,3.27,0,0,0-1.38-1c-.15-.05-.54.58-1.07,1.19A7.18,7.18,0,0,0,1341.55,93.47ZM758.08,362.87a1.64,1.64,0,0,0-1.26-1,1.61,1.61,0,0,0-1.16,1.11c0,.4.67.84,1.29,1.53C757.5,363.76,758.16,363.24,758.08,362.87Zm356.82-153a3.48,3.48,0,0,0-1.08-1.34c-.07-.06-1,.57-.94.77a7.14,7.14,0,0,0,.94,1.77C1114.36,210.52,1115,210.08,1114.9,209.9ZM415.82,913.53a3.32,3.32,0,0,0,1.22,1.18c.09.06.9-.66.84-.86a7,7,0,0,0-1.11-1.64C416.29,912.86,415.74,913.37,415.82,913.53Zm-14.65-838c.2.07,1-.7.91-.78A3.47,3.47,0,0,0,401,73.43c-.16-.1-.7.43-1.37.88A6.92,6.92,0,0,0,401.17,75.49Zm1340.09-2a6.53,6.53,0,0,0,1.23-1.24c-.32-.3-.73-.89-1-.83a6.36,6.36,0,0,0-1.6,1.11C1740.6,73,1741.12,73.59,1741.26,73.51ZM566.1,990.33c.1.43.8.71,1.24,1.06.31-.48.87-1,.86-1.44s-.64-.84-1.3-1.62C566.48,989.3,566,989.88,566.1,990.33ZM1758.27,389a3.45,3.45,0,0,0,1.4-1c.08-.09-.45-1-.64-1a7.17,7.17,0,0,0-1.82.76C1757.74,388.43,1758.12,389.08,1758.27,389ZM1364.75,63.48a6.61,6.61,0,0,0,1.32-1.14c-.3-.32-.66-.94-.89-.9a6.3,6.3,0,0,0-1.68,1C1364.13,63,1364.61,63.56,1364.75,63.48Zm-904.21-3a3.86,3.86,0,0,0,1.41-1c.07-.07-.45-1-.67-1a6.41,6.41,0,0,0-1.78.69C460,59.84,460.42,60.5,460.54,60.45Zm854,564.65a3.94,3.94,0,0,0,1.43-1c.07-.07-.45-1-.68-1a6.42,6.42,0,0,0-1.8.69C1314,624.48,1314.39,625.15,1314.52,625.11ZM478.94,453.91a3.41,3.41,0,0,0,1.11,1.27c.08.06.94-.59.9-.79a7,7,0,0,0-1-1.71C479.44,453.28,478.87,453.74,478.94,453.91Zm30.83-196c.25.14.8-.25,1.21-.4a5.66,5.66,0,0,0-.83-1.5c-.16-.15-.78.16-1.63.38C509.06,257,509.33,257.61,509.77,257.86ZM1060,944.5c.21.06.91-.79.86-.87a3.4,3.4,0,0,0-1.23-1.19c-.18-.09-.67.48-1.3,1A6.89,6.89,0,0,0,1060,944.5ZM1564.2,45.44a3.48,3.48,0,0,0,1.12,1.29c.08.06.95-.6.9-.8a7,7,0,0,0-1-1.73C1564.7,44.81,1564.12,45.27,1564.2,45.44Zm-2-5.2c.06-.2-.58-.6-.89-.9a5.75,5.75,0,0,0-1.14,1.28c-.08.17.48.66,1,1.29A6.88,6.88,0,0,0,1562.21,40.25ZM1022,41.57c.48,0,.95-.58,1.42-.91-.38-.42-.71-1.09-1.15-1.18s-1,.4-2,.85C1021.17,41,1021.61,41.58,1022,41.57ZM20.75,1016.76c.22,0,.75-.88.69-1a3.88,3.88,0,0,0-1.38-1c-.12,0-.52.6-1.06,1.24A6.32,6.32,0,0,0,20.75,1016.76ZM370.88,240.61c.23.13.77-.27,1.17-.43a5.26,5.26,0,0,0-.82-1.49c-.16-.16-.8.18-1.65.41C370.14,239.79,370.42,240.35,370.88,240.61ZM881.26,847.56a3.39,3.39,0,0,0,1.38-1c.08-.09-.45-1-.64-1a7.18,7.18,0,0,0-1.79.76C880.73,847,881.11,847.61,881.26,847.56Zm784.3-651.69a3.41,3.41,0,0,0-1.09-1.32c-.08-.06-1,.58-.93.78a7.21,7.21,0,0,0,1,1.75C1665,196.5,1665.63,196,1665.56,195.87ZM582.05,26.4a3.44,3.44,0,0,0,1.13,1.28c.08.06,1-.6.9-.8a7,7,0,0,0-1-1.72C582.55,25.77,582,26.23,582.05,26.4ZM393.88,25.23A1.59,1.59,0,0,0,395,24.09a1.65,1.65,0,0,0-1-1.28c-.36-.08-.89.57-1.63,1.11C393,24.55,393.48,25.24,393.88,25.23Zm290.3,739.28a3.42,3.42,0,0,0,1.28-1.11c.06-.08-.59-.95-.79-.9a7,7,0,0,0-1.72,1C683.56,764,684,764.58,684.18,764.51Zm891.09-339c.07.46.71.83,1.1,1.24.36-.45,1-.87,1-1.35s-.54-.92-1.14-1.83C1575.71,424.57,1575.2,425.1,1575.26,425.54ZM280.75,393.65a1.58,1.58,0,0,0,1.1-1.14,1.64,1.64,0,0,0-1-1.27c-.36-.08-.88.57-1.62,1.11C279.92,393,280.34,393.67,280.75,393.65ZM1644.07,214.84c.26.14.82-.25,1.24-.41a5.75,5.75,0,0,0-.84-1.53c-.16-.16-.79.17-1.66.39C1643.35,214,1643.61,214.59,1644.07,214.84ZM903.41,6.38a3.44,3.44,0,0,0,1.13,1.3c.08.06,1-.6.92-.81a7,7,0,0,0-1-1.74C903.92,5.75,903.34,6.21,903.41,6.38ZM540.06,941.8c-.06-.37-.56-.66-.87-1l-1,1.29,1.17.9C539.65,942.51,540.11,942.12,540.06,941.8ZM1685.21,522c.36,0,.68-.55,1-.86L1685,520.1l-1,1.14C1684.49,521.59,1684.87,522.08,1685.21,522ZM433.93,534.88c0-.34-.53-.65-.83-1a5.72,5.72,0,0,0-1,1.24c-.05.12.59.56,1,1C433.49,535.61,433.95,535.23,433.93,534.88ZM468,452.23c-.06-.36-.57-.66-.88-1l-1,1.3,1.18.89C467.59,452.94,468,452.55,468,452.23Zm735.14,265.15c-.36,0-.67.55-1,.85l1.25,1.08.95-1.13C1203.84,717.83,1203.46,717.35,1203.14,717.38Zm-668.72,6.91c.34,0,.62-.58.93-.89a5.9,5.9,0,0,0-1.3-.91c-.12,0-.51.62-.88,1.09C533.68,723.89,534.08,724.34,534.42,724.29ZM1349,148.83c.35,0,.69-.48,1-.76-.39-.38-.72-.94-1.19-1.09s-.84.32-1.54.64C1348.31,148.37,1348.66,148.84,1349,148.83Zm-416.1-35.28c.34-.06.6-.6.9-.93a6.28,6.28,0,0,0-1.34-.88c-.11,0-.49.64-.83,1.12C932.16,113.17,932.58,113.61,932.91,113.55ZM592.15,114.8c-.07-.37-.59-.65-.91-1l-1,1.35,1.21.85C591.76,115.53,592.21,115.12,592.15,114.8ZM912.63,224.48c.36-.07.63-.6.94-.93a6.55,6.55,0,0,0-1.38-.88c-.11,0-.48.63-.83,1.1C911.89,224.09,912.31,224.54,912.63,224.48Zm450.6,855.21,2.4.2.07-.86-2.39-.23Zm268-606.68c.36-.06.66-.57,1-.88l-1.3-1-.89,1.18C1630.47,472.6,1630.87,473.06,1631.19,473Zm-178-.82c.36,0,.66-.53,1-.82a6.38,6.38,0,0,0-1.29-1c-.11,0-.54.62-.93,1.1C1452.48,471.79,1452.87,472.23,1453.2,472.19Zm-318.9-253.9c.29.18.84-.07,1.27-.13a5.78,5.78,0,0,0-.45-1.54c-.07-.11-.81.17-1.42.32C1133.95,217.51,1134,218.11,1134.31,218.29Zm181.43,615.13c0-.36-.56-.67-.86-1a5.8,5.8,0,0,0-1,1.29c-.06.13.59.56,1,1C1315.28,834.15,1315.76,833.76,1315.73,833.42Zm1.22,244c0-.34-.57-.62-.88-.93a5.87,5.87,0,0,0-.92,1.29c0,.12.61.51,1.08.88C1316.55,1078.2,1317,1077.8,1317,1077.47ZM872.72,117.59c.33,0,.65-.53,1-.83a5.78,5.78,0,0,0-1.21-1c-.12-.06-.58.58-1,1C872,117.11,872.36,117.59,872.72,117.59ZM568.2,528.31c0,.33.51.68.79,1,.39-.38,1-.71,1.1-1.17s-.37-.81-.7-1.43C568.71,527.6,568.22,527.95,568.2,528.31Zm554.56,529.13c.35,0,.67-.55,1-.85a5.78,5.78,0,0,0-1.27-1c-.13-.06-.57.57-1,1C1122,1057,1122.41,1057.46,1122.76,1057.44ZM731.1,508.05c.37,0,.68-.56,1-.86l-1.27-1.09-1,1.15C730.38,507.6,730.77,508.09,731.1,508.05Zm920.55,471.63c-.36,0-.67.54-1,.84l1.24,1.08.94-1.12C1652.36,980.13,1652,979.65,1651.66,979.68Zm-623-847.3c.35,0,.68-.54,1-.84-.4-.36-.76-.89-1.23-1s-.85.3-1.54.58C1028,131.89,1028.32,132.39,1028.67,132.38ZM635.94,985.61c0-.35-.55-.66-.86-1a5.9,5.9,0,0,0-1,1.28c-.05.12.58.54,1,.94C635.5,986.33,636,985.94,635.94,985.61ZM1725.74,743.39c-.37,0-.68.55-1,.86l1.26,1.1,1-1.14C1726.44,743.85,1726.06,743.35,1725.74,743.39ZM1567.34,550.3c.36,0,.66-.54,1-.83a6.59,6.59,0,0,0-1.3-1c-.1,0-.54.63-.94,1.11C1566.61,549.9,1567,550.34,1567.34,550.3ZM1604.5,81.58c0-.36-.53-.67-.83-1a6.49,6.49,0,0,0-1,1.3c0,.11.62.54,1.11.95C1604.09,82.31,1604.53,81.92,1604.5,81.58ZM499.84,205.71c.37,0,.68-.56,1-.86l-1.27-1.1-1,1.15C499.12,205.25,499.5,205.74,499.84,205.71Zm1019.26-37c0,.35.52.67.82,1l1.1-1.23-1.12-1C1519.54,168,1519.07,168.34,1519.1,168.69ZM674.3,136.81c.36,0,.66-.53,1-.83a6.45,6.45,0,0,0-1.3-1c-.11,0-.54.62-.94,1.1C673.57,136.41,674,136.85,674.3,136.81Zm-198,897.83c0,.34.5.7.78,1.05a5.69,5.69,0,0,0,1.11-1.17c.07-.13-.54-.62-.95-1.07C476.85,1033.95,476.33,1034.29,476.32,1034.64Zm441-897.05c-.07-.37-.61-.65-.95-1a6.62,6.62,0,0,0-.9,1.4c0,.12.64.5,1.12.86C916.89,138.34,917.35,137.92,917.29,137.59ZM300,73.54c.33,0,.69-.48,1-.75l-1.1-1.2-1.11,1C299.3,73,299.64,73.52,300,73.54Zm-26.26-2.2c0-.34-.53-.65-.83-1a5.79,5.79,0,0,0-1,1.24c-.05.12.6.56,1,1C273.3,72.07,273.76,71.69,273.74,71.34Zm540.73,950.08c.36,0,.66-.56,1-.88a6.06,6.06,0,0,0-1.31-1c-.12-.05-.54.59-.93,1.05C813.74,1021,814.14,1021.45,814.47,1021.41Zm768.81-189.23c.34,0,.7-.5,1.05-.78a5.54,5.54,0,0,0-1.17-1.1c-.13-.07-.62.53-1.07.95C1582.59,831.66,1582.93,832.18,1583.28,832.18ZM1247.23,67.53c0,.34.51.67.8,1,.36-.39.89-.72,1-1.18s-.33-.8-.63-1.41C1247.73,66.84,1247.23,67.19,1247.23,67.53Zm176.64,857c-.05-.36-.58-.65-.9-1a6.23,6.23,0,0,0-.92,1.34c0,.12.61.51,1.07.89C1423.45,925.25,1423.92,924.85,1423.87,924.52ZM560.3,462c-.06-.36-.57-.64-.88-1a6.69,6.69,0,0,0-.92,1.35c0,.1.65.5,1.14.86C559.94,462.72,560.36,462.31,560.3,462Zm413-294.35c.35,0,.7-.48,1.05-.74-.37-.4-.69-1-1.14-1.13-.29-.11-.8.34-1.43.64C972.66,167.12,973,167.62,973.32,167.62ZM1041,551.13c0,.35.53.69.82,1,.36-.4.9-.75,1-1.22s-.33-.82-.63-1.46C1041.49,550.42,1041,550.78,1041,551.13ZM611.16,801.08c-.06-.35-.61-.61-.95-.91a6.37,6.37,0,0,0-.88,1.38c0,.11.66.49,1.15.83C610.78,801.85,611.22,801.42,611.16,801.08ZM475.88,1024.59c0,.35.44.73.69,1.09l1.25-1.11-1.06-1.13C476.38,1023.91,475.89,1024.24,475.88,1024.59Zm1142.54-239c0,.33.48.69.74,1l1.2-1.1-1-1.1C1618.93,784.87,1618.44,785.21,1618.42,785.57ZM1558.36,51.28c.36-.06.65-.58,1-.91a6.24,6.24,0,0,0-1.34-.92c-.12,0-.51.61-.88,1.07C1557.63,50.87,1558,51.33,1558.36,51.28ZM452.95,257.52c.34,0,.7-.49,1-.76a5.5,5.5,0,0,0-1.16-1.09c-.13-.07-.61.53-1.06.94C452.26,257,452.6,257.52,452.95,257.52Zm861,615.72c.34,0,.68-.52,1-.81-.39-.37-.73-.9-1.19-1s-.8.34-1.43.64C1313.27,872.75,1313.62,873.25,1314,873.25Zm460.83-91.9c.34,0,.65-.54,1-.84a5.79,5.79,0,0,0-1.26-1c-.12-.05-.56.6-1,1.06C1774.06,780.91,1774.44,781.37,1774.8,781.35ZM839.75,300.83c0,.35.54.68.84,1,.36-.41.89-.77,1-1.25s-.29-.86-.57-1.57C840.24,300.1,839.73,300.47,839.75,300.83Zm-681.23,91c0,.36.44.73.7,1.09l1.26-1.11-1.06-1.13C159,391.19,158.53,391.52,158.51,391.87Zm974.77,531.26c.29.18.83-.06,1.27-.12a5.75,5.75,0,0,0-.43-1.54c-.07-.11-.81.16-1.42.3C1132.93,922.34,1133,922.93,1133.29,923.12Zm461.11-177c.36-.06.65-.59,1-.91a6.34,6.34,0,0,0-1.35-.92c-.12,0-.51.62-.88,1.08C1593.66,745.68,1594.07,746.15,1594.4,746.09Zm37.27-479.33c0,.34.51.68.8,1,.37-.39.9-.73,1-1.18s-.34-.8-.64-1.41C1632.18,266.07,1631.68,266.42,1631.68,266.77ZM139.81,308.85c0-.36-.54-.67-.84-1a6.49,6.49,0,0,0-1,1.31c0,.11.63.54,1.11.94C139.41,309.58,139.85,309.19,139.81,308.85ZM732.5,161.67c0-.36-.53-.66-.83-1a6.47,6.47,0,0,0-1,1.3c0,.1.62.54,1.1.93C732.1,162.4,732.53,162,732.5,161.67Zm476.3,91.27c.35,0,.71-.44,1.07-.69l-1.1-1.23-1.11,1C1208.13,252.45,1208.46,252.93,1208.8,252.94Zm-98.08,646.76c-.08-.36-.59-.63-.92-.94l-1,1.36,1.22.8C1110.36,900.43,1110.79,900,1110.73,899.71Zm-492.78-1.19c0-.35-.57-.65-.88-1a6,6,0,0,0-1,1.31c-.05.12.59.53,1,.92C617.52,899.24,618,898.85,617.95,898.51Zm896.52-127.15c.33,0,.65-.52,1-.82-.39-.37-.72-.91-1.18-1s-.85.31-1.53.59C1513.76,770.88,1514.11,771.36,1514.47,771.36ZM1240.16,194.69c.33,0,.65-.52,1-.81-.39-.37-.72-.91-1.18-1s-.84.32-1.5.61C1239.45,194.21,1239.8,194.69,1240.16,194.69Zm-872-168.23c.34,0,.64-.53,1-.83a5.78,5.78,0,0,0-1.24-1c-.12-.05-.55.6-1,1C367.44,26,367.82,26.48,368.17,26.46ZM1176.1,438c-.37,0-.68.55-1,.86l1.27,1.1,1-1.15C1176.82,438.5,1176.43,438,1176.1,438ZM986.65,24.69c.36,0,.66-.54,1-.84a6.56,6.56,0,0,0-1.31-1c-.1,0-.54.63-.93,1.12C985.92,24.29,986.32,24.73,986.65,24.69ZM1211,18.46c-.06-.36-.56-.64-.87-1a6.56,6.56,0,0,0-.92,1.34c0,.1.64.5,1.13.87C1210.68,19.2,1211.1,18.79,1211,18.46ZM603.26,11.24c0,.35.51.68.79,1l1.13-1.18-1.07-1C603.74,10.56,603.24,10.91,603.26,11.24ZM780.33,522.83c.34,0,.7-.49,1-.77a5.52,5.52,0,0,0-1.17-1.1c-.13-.07-.61.53-1.06.94C779.64,522.32,780,522.82,780.33,522.83ZM216.44,940.53c.35,0,.71-.47,1.06-.73-.37-.4-.68-1-1.14-1.14-.28-.11-.79.35-1.39.66C215.79,940,216.11,940.53,216.44,940.53ZM84.31,481c-.05-.36-.59-.66-.92-1a6.35,6.35,0,0,0-.93,1.35c0,.12.62.52,1.08.89C83.89,481.76,84.36,481.35,84.31,481Zm207.57,12.74c0,.36.48.71.74,1.07.41-.38,1-.69,1.16-1.15.11-.28-.36-.8-.67-1.41C292.39,493.1,291.88,493.43,291.88,493.76ZM153,639.18c.35-.06.61-.61.91-.95a6.38,6.38,0,0,0-1.37-.88c-.11,0-.49.65-.83,1.14C152.25,638.8,152.68,639.24,153,639.18ZM379.77,940.49c0,.36.45.73.7,1.09l1.25-1.11-1.06-1.13C380.27,939.82,379.78,940.15,379.77,940.49ZM907.26,153.64c-.05-.36-.58-.65-.91-1a6.22,6.22,0,0,0-.92,1.34c0,.12.61.51,1.07.88C906.85,154.37,907.31,154,907.26,153.64Zm47.42,826.71c.36-.07.64-.61,1-.94a6.55,6.55,0,0,0-1.38-.9c-.12,0-.5.63-.85,1.11C953.94,979.95,954.36,980.41,954.68,980.35ZM1438.91,248c0-.15-.56-.46-.71-.39a3.77,3.77,0,0,0-.86.81l1.16.82A4.31,4.31,0,0,0,1438.91,248ZM878.45,236.25c0,.15.52.24.8.36a6.37,6.37,0,0,0,.34-1.3c0-.1-.52-.23-1-.42A5.15,5.15,0,0,0,878.45,236.25Zm470.4-1.22c0-.1-.51-.5-.69-.44-.36.12-.86.41-.92.7s.27.79.61,1.64A11.28,11.28,0,0,0,1348.85,235ZM598.66,185.79c.15,0,.24-.53.36-.81a6.46,6.46,0,0,0-1.31-.34c-.1,0-.23.52-.42,1A5.13,5.13,0,0,0,598.66,185.79ZM1318.82,184c0-.09-.5-.49-.68-.43-.35.11-.85.4-.9.69s.26.78.59,1.64A11.55,11.55,0,0,0,1318.82,184Zm123.09-33.47c.16-.27.53-.66.45-.79a4.21,4.21,0,0,0-.92-.87l-.61,1Zm-197-18.66a1.46,1.46,0,0,0-.91-.93c-.22-.06-.87.55-.85.82s.51.71,1,1.26C1244.51,132.5,1245,132.11,1244.94,131.84Zm253-6.38c.16-.27.53-.67.45-.8a4.21,4.21,0,0,0-.93-.86l-.59,1ZM666.32,1069.91c.21.05.5-.24.76-.38-.2-.33-.35-.86-.62-.93s-.71.25-1.37.53A5.2,5.2,0,0,0,666.32,1069.91ZM321.62,1065c0-.13-.53-.48-.68-.42a3.72,3.72,0,0,0-.9.74l1.09.91A4.83,4.83,0,0,0,321.62,1065Zm1082.69-45.33c.05-.21-.24-.51-.38-.77-.33.2-.86.35-.94.62s.26.72.54,1.37A5.24,5.24,0,0,0,1404.3,1019.64Zm184.1-921.48c0-.16-.52-.26-.8-.38a6,6,0,0,0-.34,1.3c0,.11.52.24,1,.44A5,5,0,0,0,1588.41,98.16Zm-246.84,908.56a6.67,6.67,0,0,0,1.31-.3c-.1-.29-.17-.79-.31-.82a5.29,5.29,0,0,0-1.36.12C1341.36,1006.19,1341.48,1006.72,1341.56,1006.72Zm-136.49-32.38c0,.09.48.51.66.47a3.91,3.91,0,0,0,1-.63l-1-1.05A6.36,6.36,0,0,0,1205.08,974.34Zm-631.84-15a1.5,1.5,0,0,0,.91-.93c.06-.19-.56-.83-.82-.8s-.71.5-1.24.93C572.58,958.94,573,959.44,573.24,959.38Zm284.53-8.59c-.17.27-.54.66-.46.79a4.27,4.27,0,0,0,.92.88l.62-1ZM682.09,936.31c.14,0,.47-.56.4-.71a3.77,3.77,0,0,0-.81-.87l-.84,1.15A4.43,4.43,0,0,0,682.09,936.31Zm751.89-2a4.29,4.29,0,0,0-.84-.95c-.12-.08-.78.36-.76.43a6,6,0,0,0,.59,1.11Zm-960.87-1.22c0-.15-.52-.24-.81-.36a6.16,6.16,0,0,0-.33,1.31c0,.1.52.24,1,.43A5.28,5.28,0,0,0,473.11,933.12Zm440.69-70.52a1.5,1.5,0,0,0,.94.92c.21.05.85-.57.83-.84s-.51-.72-1-1.26C914.25,861.93,913.75,862.33,913.81,862.59Zm-305.36-5.29,1-.82-1-.84-.48.82Zm543.36-2.63a1,1,0,0,0,.73-.32c-.06-.36-.19-.91-.42-1s-.76.17-1.45.38A5.42,5.42,0,0,0,1151.81,854.67Zm-1001.13-21c.19.06.5-.24.76-.38-.18-.33-.31-.88-.56-1s-.73.23-1.39.47A5.32,5.32,0,0,0,150.68,833.66Zm726.61-7.45c.13,0,.48-.53.42-.68a3.75,3.75,0,0,0-.75-.9l-.91,1.09A4.74,4.74,0,0,0,877.29,826.21Zm409-6.55c-.1,0-.49.51-.44.68.11.36.4.86.69.91s.79-.26,1.64-.6A11.44,11.44,0,0,0,1286.25,819.66Zm-751.4-26.48c.07,0,.52-.62.45-.74a4.39,4.39,0,0,0-.93-.86l-.61,1A5.7,5.7,0,0,0,534.85,793.18Zm70.55-9.1c0,.09.44.52.61.49a4,4,0,0,0,1-.57l-.9-1.08A6.37,6.37,0,0,0,605.4,784.08Zm-416.94-7.9c.07,0,.53-.63.45-.74a4.39,4.39,0,0,0-.94-.86l-.61,1A5.61,5.61,0,0,0,188.46,776.18Zm1219.38-2c.09,0,.51-.47.46-.64a3.86,3.86,0,0,0-.63-1l-1,.94A6.4,6.4,0,0,0,1407.85,774.18Zm-72-694.33c0-.09-.5-.49-.68-.43-.36.11-.85.4-.91.69s.26.79.59,1.64A11.55,11.55,0,0,0,1335.83,79.85Zm-1105,648c0-.15-.52-.25-.81-.37a6.1,6.1,0,0,0-.34,1.31c0,.11.52.24,1,.44A5.28,5.28,0,0,0,230.83,727.87Zm381.4-.71c.08.38.58.67.89,1,.31-.3.87-.62.86-.9s-.5-.71-.94-1.25C612.67,726.51,612.17,726.9,612.23,727.17Zm510.05.25c.15,0,.24-.53.35-.81a6.28,6.28,0,0,0-1.31-.33c-.1,0-.23.52-.42,1A5.36,5.36,0,0,0,1122.28,727.42Zm66.34-8.3c.1,0,.5-.51.44-.69-.12-.36-.41-.86-.7-.92s-.79.27-1.64.61A11.4,11.4,0,0,0,1188.62,719.12Zm-451.44-.81c.38-.09.66-.58,1-.9-.31-.3-.63-.85-.91-.83s-.7.51-1.24,1C736.52,717.9,736.91,718.37,737.18,718.31ZM1194.9,72.79c.19.06.74-.31.72-.37-.1-.36-.26-.9-.52-1s-.74.22-1.4.47A5.34,5.34,0,0,0,1194.9,72.79ZM765.56,702c0,.09.44.54.61.5a4.1,4.1,0,0,0,1.06-.57l-.9-1.1A6.34,6.34,0,0,0,765.56,702Zm1117.8-4.86c.09,0,.53-.44.49-.6a4,4,0,0,0-.57-1l-1.09.9A6.29,6.29,0,0,0,1883.35,697.12ZM1530.08,661c.15,0,.47-.56.4-.71a3.77,3.77,0,0,0-.81-.86l-.83,1.16A4.31,4.31,0,0,0,1530.08,661ZM493.32,634.05a4.29,4.29,0,0,0,.94-.84c.08-.12-.36-.77-.43-.75a5.88,5.88,0,0,0-1.1.58ZM351.17,65.8c-.09,0-.49.5-.44.68.11.36.4.85.69.91s.78-.26,1.63-.6A11.44,11.44,0,0,0,351.17,65.8Zm904-.49c.27.16.67.53.8.45a4.17,4.17,0,0,0,.87-.92l-1-.61ZM979.84,618.92c0,.09.47.51.64.46a3.85,3.85,0,0,0,1-.62l-.94-1A6.37,6.37,0,0,0,979.84,618.92Zm569.25-12.73c-.06.2.25.51.39.77.34-.19.88-.31,1-.57s-.23-.74-.49-1.4A5.33,5.33,0,0,0,1549.09,606.2ZM499.91,595.46c-.27-.16-.66-.52-.8-.44a4,4,0,0,0-.88.9l1,.61Zm999.55-6.36c0,.28.54.61.84.91.32-.33.81-.61.9-1s-.41-.67-.76-1.17C1500,588.39,1499.5,588.72,1499.47,589.09ZM647,572.93c.07,0,.53-.62.45-.74a4.38,4.38,0,0,0-.93-.87l-.61,1A5.68,5.68,0,0,0,647,572.93ZM360.9,566.36a1,1,0,0,0,.74-.33c-.05-.36-.19-.93-.42-1s-.77.17-1.48.38A5.52,5.52,0,0,0,360.9,566.36Zm799.4-1.17a5,5,0,0,0,1.23-.15c-.12-.35-.17-.94-.38-1s-.77.14-1.19.24C1160.1,564.7,1160.18,565.18,1160.3,565.19Zm-614.9-5.74c.08.31.06.79.25.88a6.47,6.47,0,0,0,1.48.36l-1.06-1.77Zm-29.56-7.55c.07,0,.53-.62.46-.74a4.45,4.45,0,0,0-.93-.87l-.61,1A5.57,5.57,0,0,0,515.84,551.91ZM832.48,47.38a1.46,1.46,0,0,0,.9.93c.23.05.87-.54.85-.82s-.5-.7-.94-1.25C832.92,46.73,832.42,47.12,832.48,47.38Zm862.73,474.54c.16-.27.53-.66.45-.79a4.2,4.2,0,0,0-.91-.86l-.59,1Zm-939.58-9.76a1.44,1.44,0,0,0,.91.91c.21.06.85-.54.82-.8s-.49-.71-.91-1.24C756.08,511.51,755.57,511.89,755.63,512.16Zm236.49-3a5,5,0,0,0,1.23-.14c-.12-.35-.17-.94-.38-1s-.77.14-1.19.24C991.92,508.63,992,509.12,992.11,509.13ZM183.93,40.26c0,.09.47.51.64.47a3.87,3.87,0,0,0,1-.63l-.95-1A6.28,6.28,0,0,0,183.93,40.26ZM591.65,865.54a5,5,0,0,0,1.22-.14c-.12-.35-.17-.94-.38-1s-.77.14-1.18.24C591.46,865,591.53,865.53,591.65,865.54ZM417.81,498.07c.38-.09.66-.58,1-.9-.3-.3-.63-.86-.9-.84s-.7.51-1.23,1C417.16,497.64,417.55,498.13,417.81,498.07Zm-79.64-10.82c-.17.27-.53.66-.46.79a4.23,4.23,0,0,0,.91.87l.62-1ZM1765.05,472.1a6.62,6.62,0,0,0,1.3-.3c-.1-.28-.17-.79-.31-.81a5.31,5.31,0,0,0-1.35.11C1764.85,471.57,1765,472.1,1765.05,472.1ZM373.12,466.71c0,.09.44.53.6.49a4,4,0,0,0,1-.57l-.89-1.09A6.28,6.28,0,0,0,373.12,466.71Zm831-13.52c-.17.27-.53.66-.46.79a4.26,4.26,0,0,0,.92.87l.62-1Zm-604-3c-.09-.38-.58-.67-.9-1-.3.31-.87.63-.85.91s.52.71,1,1.25C599.76,450.85,600.25,450.45,600.18,450.19ZM416,440.17c0,.28.52.6.82.9.33-.32.83-.59.92-1s-.43-.67-.79-1.17C416.5,439.47,416,439.8,416,440.17Zm410.36-2.42c.28,0,.61-.53.92-.83-.32-.32-.6-.82-1-.91s-.67.42-1.17.76C825.66,437.23,826,437.72,826.35,437.75Zm-262-410.26c0-.21-.27-.5-.42-.75-.32.23-.84.4-.92.69s.3.7.61,1.32A5.16,5.16,0,0,0,564.34,27.49Zm69.15,408.73c-.1,0-.5.51-.44.69.12.36.41.87.7.92s.79-.27,1.65-.61A11.57,11.57,0,0,0,633.49,436.22Zm820.69-13.06c-.09-.38-.59-.67-.91-1-.3.31-.87.64-.84.92s.52.71,1,1.26C1453.76,423.83,1454.24,423.43,1454.18,423.16Zm-288.33-24c.19.06.5-.24.76-.38-.18-.33-.31-.87-.57-.95s-.73.23-1.39.47A5.33,5.33,0,0,0,1165.85,399.15Zm334.41-9c.21.05.51-.25.76-.39-.21-.33-.36-.86-.63-.93s-.71.26-1.37.55A5.19,5.19,0,0,0,1500.26,390.13Zm247.19-7.71c0,.15.52.25.81.36a6.38,6.38,0,0,0,.34-1.3c0-.1-.52-.23-1-.42A5.12,5.12,0,0,0,1747.45,382.42Zm-343.27-7.73a1.48,1.48,0,0,0,.92-.92c.06-.2-.55-.85-.81-.82s-.71.5-1.25.92C1403.53,374.24,1403.92,374.75,1404.19,374.69ZM342.66,341.84a1.5,1.5,0,0,0-.93-.92c-.2-.06-.85.55-.82.82s.5.72.92,1.26C342.21,342.49,342.72,342.1,342.66,341.84Zm398.46-7.72c0-.13-.53-.48-.69-.42a3.74,3.74,0,0,0-.9.75l1.1.91A4.79,4.79,0,0,0,741.12,334.11Zm741.25-28.27c.27,0,.89-.6.83-.81a1.47,1.47,0,0,0-.9-.94c-.27-.06-.67.44-1.17.81C1481.67,305.34,1482,305.81,1482.37,305.84Zm43.63-4.17c.16-.27.53-.66.45-.8a4.17,4.17,0,0,0-.92-.86l-.59,1Zm-152.69-9.77a1.45,1.45,0,0,0,.92.91c.21.06.86-.54.83-.8s-.49-.72-.91-1.26C1373.78,291.24,1373.27,291.63,1373.32,291.9ZM456.2,284.78c0-.21-.27-.5-.42-.75-.32.22-.84.4-.91.68s.29.69.6,1.31A5.11,5.11,0,0,0,456.2,284.78Zm924.37-15.38c.28.16.82-.11,1.24-.19-.13-.42-.15-1-.44-1.23s-.81,0-1.51,0C1380.18,268.64,1380.26,269.22,1380.58,269.4Zm-847.29.15c.27.16.67.53.8.45a4.23,4.23,0,0,0,.87-.93l-1-.61ZM1395.09,256a1,1,0,0,0,.74-.33c-.06-.36-.19-.92-.42-1s-.76.18-1.47.38A5.47,5.47,0,0,0,1395.09,256Zm-194.47,70.57c0-.18-.59-.55-.69-.49a4.92,4.92,0,0,0-.87.92l1.14,1A5.26,5.26,0,0,0,1200.62,326.56ZM557.49,873.41a4.21,4.21,0,0,0,.91-.78c.08-.12-.22-.5-.34-.75l-1,.62Zm0,70.67.91-.66c-.2-.23-.36-.58-.61-.66s-.44.3-.67.47Zm601.71-218.84c.26.12.62.42.75.34a4.05,4.05,0,0,0,.79-.88l-.9-.46ZM550.85,218.93l-.84.31.42,1.13.7-.59ZM324,789.22c.16.05.69-.4.66-.52a4.64,4.64,0,0,0-.59-1.11l-1.34.77A5.81,5.81,0,0,0,324,789.22ZM698.5,211.75c-.07.15.32.74.45.72.4-.05,1-.21,1.1-.5s-.27-.74-.55-1.38A5.77,5.77,0,0,0,698.5,211.75Zm653.58-17.22c.15.07.73-.31.72-.44-.05-.4-.2-1-.49-1.1s-.74.26-1.38.53A5.69,5.69,0,0,0,1352.08,194.53ZM1105.78,909.35c.15.07.72-.31.7-.44-.05-.39-.21-1-.49-1.08s-.73.26-1.35.53A5.62,5.62,0,0,0,1105.78,909.35Zm327.78-726.66a7.77,7.77,0,0,0,1.17-.43,1.47,1.47,0,0,0-.21-.71,6.58,6.58,0,0,0-1.23.2Zm276.84,38.87c.16.08.77-.25.76-.37,0-.41-.12-1-.4-1.16s-.76.21-1.41.44A5.43,5.43,0,0,0,1710.4,221.56Zm-204.8-6.32.91-.66c-.2-.24-.37-.58-.62-.67s-.45.3-.67.47ZM1051,259.52c.18,0,.54-.59.48-.68a4.82,4.82,0,0,0-.9-.86l-1,1.12A5.18,5.18,0,0,0,1051,259.52Zm221.13,546c-.06.16.36.71.48.69.4-.07,1-.26,1.08-.55s-.31-.73-.61-1.36A5.82,5.82,0,0,0,1272.16,805.49ZM330.69,243.85c.08-.15-.25-.76-.37-.75-.41,0-1,.13-1.14.4s.21.75.43,1.39A5.44,5.44,0,0,0,330.69,243.85ZM612.42,957.71c0,.16.39.68.52.65a4.53,4.53,0,0,0,1.09-.58l-.77-1.33A5.71,5.71,0,0,0,612.42,957.71Zm857.16,63.08c-.15.25-.47.61-.4.71a4.8,4.8,0,0,0,.9.83l.51-.89Zm-261-877.27a4.27,4.27,0,0,0,1.19-.18c-.11-.26-.17-.69-.34-.75a4.54,4.54,0,0,0-1.29,0C1208.38,143,1208.47,143.5,1208.61,143.51Zm124.47,897c.16.06.71-.37.69-.5-.08-.4-.27-1-.56-1.08s-.74.32-1.36.64A5.92,5.92,0,0,0,1333.08,1040.52Zm182.08,38.6c-.25-.14-.62-.47-.72-.4a4.87,4.87,0,0,0-.83.91l.92.49ZM660.29,108.81a4.72,4.72,0,0,0-.92-.82c-.13.26-.43.59-.36.76a4.25,4.25,0,0,0,.82,1C660.06,109.29,660.37,108.92,660.29,108.81ZM213.71,552.94c.25,0,.76-.3.74-.41,0-.4-.18-1-.46-1.11s-.73.25-2.23.85A11.21,11.21,0,0,0,213.71,552.94Zm960.88,32.92c0-.18-.59-.55-.69-.49a4.86,4.86,0,0,0-.88.91l1.13,1A5.24,5.24,0,0,0,1174.59,585.86ZM388.75,507.15c.08-.16-.25-.77-.36-.76-.41,0-1,.12-1.15.4s.21.75.43,1.41C388.17,507.73,388.56,507.5,388.75,507.15ZM1347.25,75.67c-.05.16.39.68.52.65a4.59,4.59,0,0,0,1.1-.58l-.77-1.33A5.75,5.75,0,0,0,1347.25,75.67ZM1261.13,428c.15.07.48-.23.73-.37a4.27,4.27,0,0,0-.8-.89c-.12-.08-.49.22-.9.43A4.61,4.61,0,0,0,1261.13,428ZM1759.75,67.58c-.07.15.31.72.44.7.39-.05,1-.21,1.08-.48s-.26-.73-.53-1.35A5.65,5.65,0,0,0,1759.75,67.58Zm-1404,551.67c0-.24-.3-.77-.42-.75-.41,0-1,.18-1.13.47s.25.75.79,2.09A9.44,9.44,0,0,0,355.73,619.25Zm1470.7,2c.08-.16-.25-.78-.37-.77-.41,0-1,.13-1.16.41s.22.76.44,1.42C1825.85,621.88,1826.24,621.64,1826.43,621.29Zm-69.69-212.23c-.05.16.39.68.52.65a4.6,4.6,0,0,0,1.1-.58l-.76-1.33A5.74,5.74,0,0,0,1756.74,409.07ZM595.3,49.9a4.2,4.2,0,0,0,.78.9c.12.08.49-.22.75-.34l-.62-1Zm646.91-5.17c.1,0,.2-.46.31-.71l-1.15-.47-.37.91A5.85,5.85,0,0,0,1242.22,44.74ZM647,392.12a1,1,0,0,0,.88-.16c.16-.14.09-.54.13-.82h-1.32C646.81,391.61,646.83,392.06,647,392.12ZM611.41,673.37c0,.16.4.68.53.65a4.63,4.63,0,0,0,1.11-.59l-.78-1.34A5.82,5.82,0,0,0,611.41,673.37ZM225.21,506.64c.06.08.49-.13.75-.21a8.63,8.63,0,0,0-.42-1.18,5.8,5.8,0,0,0-.9.27A6,6,0,0,0,225.21,506.64ZM373.72,379c.08-.15-.24-.76-.36-.75a4.75,4.75,0,0,0-1.19.36l.48,1.42A5.36,5.36,0,0,0,373.72,379Zm-46.63-1.07c-.07.15.31.72.44.7.39-.05,1-.21,1.08-.49s-.26-.73-.53-1.35A5.67,5.67,0,0,0,327.09,377.94Zm321.51,394.5c-.1.12-.29.33-.27.35a6.4,6.4,0,0,0,.59.55l.29-.36ZM517,775.84s-.16-.24-.24-.37a6.41,6.41,0,0,0-.61.5,2.29,2.29,0,0,0,.25.36A5.28,5.28,0,0,0,517,775.84Zm128.52-462a6.31,6.31,0,0,0,.61-.51,2.25,2.25,0,0,0-.25-.36l-.62.48ZM1567,776.31c.05,0,.25-.26.22-.3a4.37,4.37,0,0,0-.47-.56l-.43.59A4.21,4.21,0,0,0,1567,776.31ZM487.43,308.9c-.09.12-.29.33-.27.35a6.22,6.22,0,0,0,.59.53l.29-.36Zm527.2,468.85c-.12-.1-.33-.29-.35-.27a6.35,6.35,0,0,0-.54.59l.36.29Zm319.44.3a5.83,5.83,0,0,0,.8.1s.07-.28.11-.43l-.8-.13ZM984,481.09s-.3.24-.28.29a4.39,4.39,0,0,0,.41.65l.55-.54A4.77,4.77,0,0,0,984,481.09Zm505.2,51.37s-.23-.29-.28-.27a4.17,4.17,0,0,0-.62.39l.52.51A4.39,4.39,0,0,0,1489.17,532.46ZM1275,779.05a5.58,5.58,0,0,0,.79.1s.08-.27.11-.42l-.79-.13Zm567,2.41c-.09.12-.29.32-.27.34a6.28,6.28,0,0,0,.58.54l.29-.35Zm-388.13,7.91s.3-.24.28-.29a4.3,4.3,0,0,0-.4-.64l-.53.53A4.51,4.51,0,0,0,1453.85,789.38ZM1344,294.63c.22,0,.45-.34.68-.53-.22-.19-.43-.53-.65-.53s-.45.32-.68.5C1343.61,294.27,1343.82,294.62,1344,294.63Zm143.55-1.75c-.09.12-.29.33-.27.35a6.27,6.27,0,0,0,.59.53l.29-.36ZM1075.8,478.68a5.73,5.73,0,0,0,.78.09s.07-.27.1-.42l-.78-.13ZM373,798.74a6.38,6.38,0,0,0,.5.62,2.31,2.31,0,0,0,.36-.25l-.47-.62ZM225.81,292.48a5.73,5.73,0,0,0,.8.1s.08-.28.11-.43l-.8-.13ZM600.14,800.79c-.12-.1-.34-.3-.36-.28a6.45,6.45,0,0,0-.56.6l.37.3Zm459.95-324.68c-.09.12-.29.32-.27.34a6.23,6.23,0,0,0,.58.53l.29-.35ZM759.93,808.37s.24-.16.37-.24a6.31,6.31,0,0,0-.5-.61,2.29,2.29,0,0,0-.36.25A5.29,5.29,0,0,0,759.93,808.37Zm633.83-526.61c.1-.12.29-.33.27-.35a6.31,6.31,0,0,0-.59-.54l-.29.36ZM519.66,812.39s.24-.16.37-.24a6.34,6.34,0,0,0-.51-.61,2.22,2.22,0,0,0-.36.25A5.38,5.38,0,0,0,519.66,812.39Zm-139.78,7.42c-.12-.09-.33-.29-.35-.27a6.36,6.36,0,0,0-.54.59l.36.29ZM1589,279.77c.1-.12.3-.34.28-.36a6.46,6.46,0,0,0-.6-.56l-.3.37ZM1071.67,821.87s-.15-.24-.24-.37a6.43,6.43,0,0,0-.62.5,2.33,2.33,0,0,0,.25.36A5.26,5.26,0,0,0,1071.67,821.87Zm537.06,5.63c-.09.12-.29.33-.27.35a6.27,6.27,0,0,0,.59.53l.29-.36ZM295.14,840.41a6.26,6.26,0,0,0,.61-.51s-.16-.24-.25-.36l-.62.49Zm85.13-565.65a6.49,6.49,0,0,0,.62-.5,2.36,2.36,0,0,0-.25-.36l-.62.47Zm185.86-1.61c-.12-.1-.33-.3-.35-.28a6.52,6.52,0,0,0-.55.59l.36.3Zm828.67-.37s.29-.23.27-.28a4.2,4.2,0,0,0-.39-.63l-.52.52A4.42,4.42,0,0,0,1394.78,272.77ZM1060.08,845.52s-.29.23-.27.28a4.16,4.16,0,0,0,.39.62l.53-.52A4.55,4.55,0,0,0,1060.08,845.52ZM1835.27,474c.1-.12.29-.32.27-.35a6.28,6.28,0,0,0-.58-.54l-.29.36ZM814.11,536.09c.1-.12.3-.34.28-.36a6.62,6.62,0,0,0-.6-.56l-.3.37ZM331.44,269.74s.24-.16.37-.24a6.37,6.37,0,0,0-.5-.61,2.29,2.29,0,0,0-.36.25A5.25,5.25,0,0,0,331.44,269.74Zm1161.72,581.2s-.16-.25-.24-.38a6.64,6.64,0,0,0-.63.51,2.39,2.39,0,0,0,.26.37A5.39,5.39,0,0,0,1493.15,850.94Zm-1127.32,6s-.15-.23-.23-.36a6.12,6.12,0,0,0-.59.48,2.19,2.19,0,0,0,.24.35A5.09,5.09,0,0,0,365.84,856.94Zm554.06.6s-.29.23-.27.28a4.22,4.22,0,0,0,.39.63l.51-.52A4.38,4.38,0,0,0,919.9,857.54Zm423.21,3.6a5.68,5.68,0,0,0,.79.1s.07-.28.11-.42l-.79-.13ZM666.93,264.89c-.28-.12-.58-.37-.83-.32s-.33.43-.49.67l.81.39Zm723.54,714.79c-.1.12-.29.34-.27.36a6.4,6.4,0,0,0,.6.54l.29-.37ZM1088.85,871.23c0,.05.26.26.31.23a4.47,4.47,0,0,0,.57-.48l-.6-.44A4.29,4.29,0,0,0,1088.85,871.23Zm-202-611.5a6.53,6.53,0,0,0,.62-.51,2.3,2.3,0,0,0-.25-.36l-.63.48Zm534.61-1a6.43,6.43,0,0,0,.62-.51,2.24,2.24,0,0,0-.25-.37l-.63.48ZM1206.94,873.17a5.36,5.36,0,0,0,.78.1s.08-.27.12-.42l-.78-.13ZM1407.7,255.75s.25-.16.38-.25a6.6,6.6,0,0,0-.52-.63,2.31,2.31,0,0,0-.37.26A5.51,5.51,0,0,0,1407.7,255.75Zm-909.58,254a5.69,5.69,0,0,0,.78.1s.07-.27.11-.42l-.78-.13Zm981.16,363.09a6.41,6.41,0,0,0,.5.62,2.29,2.29,0,0,0,.36-.25l-.48-.62Zm42.53,3.62s.24-.16.37-.24a6.39,6.39,0,0,0-.5-.61,2.29,2.29,0,0,0-.36.25A5.29,5.29,0,0,0,1521.81,876.44Zm-958.63-627a5.56,5.56,0,0,0,.79.1s.08-.28.12-.43l-.79-.13Zm185.77,652s.24-.16.37-.24a6.36,6.36,0,0,0-.51-.62,2.23,2.23,0,0,0-.36.25A5.34,5.34,0,0,0,748.95,901.49ZM1342.4,537.06s.35,0,.36-.07a3.83,3.83,0,0,0,.09-.7l-.71.08A5,5,0,0,0,1342.4,537.06ZM517,242.14c-.12-.09-.32-.29-.34-.27a6.27,6.27,0,0,0-.53.58l.35.29ZM1446.12,902s-.16-.25-.25-.38a6.59,6.59,0,0,0-.63.52,2.35,2.35,0,0,0,.26.37A5.48,5.48,0,0,0,1446.12,902Zm150.18,3.93c-.12-.1-.33-.29-.35-.27a6.39,6.39,0,0,0-.54.6l.36.29ZM562.49,237.83c-.1.12-.3.33-.28.35a6.43,6.43,0,0,0,.59.55l.3-.36ZM1080.4,907.48c.09-.12.29-.32.27-.34a6.2,6.2,0,0,0-.57-.53l-.29.35Zm430.93,1.36a6.33,6.33,0,0,0,.51.61,2.27,2.27,0,0,0,.36-.26l-.49-.62ZM1359.56,540.67c.16.1.49-.1.75-.17l-.43-1.06-.64.5C1359.35,540.2,1359.38,540.56,1359.56,540.67Zm-901.2,6.53s-.29.23-.27.28a4.15,4.15,0,0,0,.39.63l.5-.53A4.22,4.22,0,0,0,458.36,547.2ZM675.93,234.7c.1-.12.29-.33.28-.35a6.37,6.37,0,0,0-.59-.55l-.3.36Zm601.6,676.8s.24-.16.37-.24a6.41,6.41,0,0,0-.51-.62,2.29,2.29,0,0,0-.36.26A5.4,5.4,0,0,0,1277.54,911.5ZM972.67,225.07a6.46,6.46,0,0,0,.51.62,2.27,2.27,0,0,0,.37-.25l-.48-.63ZM584.82,918.51c.1-.12.29-.34.28-.36a6.47,6.47,0,0,0-.6-.55l-.3.37Zm388.75,2.4c-.12-.1-.33-.29-.35-.27a6.29,6.29,0,0,0-.54.58l.36.29ZM604.51,222.69a6.41,6.41,0,0,0,.62-.51,2.28,2.28,0,0,0-.25-.36l-.62.48Zm1006.2,697.93c-.1.12-.3.34-.28.36a6.44,6.44,0,0,0,.6.56l.3-.37Zm-490.18,1.86c.05,0,.25-.26.23-.3a4.42,4.42,0,0,0-.47-.57l-.44.59A4.24,4.24,0,0,0,1120.53,922.48ZM1359,220.19s-.16-.24-.24-.37a6.47,6.47,0,0,0-.62.51,2.31,2.31,0,0,0,.25.36A5.34,5.34,0,0,0,1359,220.19ZM920.21,927.5c.1-.12.29-.33.27-.35a6.33,6.33,0,0,0-.59-.55l-.3.36Zm101.41-709.33s-.16-.24-.24-.37a6.47,6.47,0,0,0-.62.51,2.3,2.3,0,0,0,.25.37A5.33,5.33,0,0,0,1021.62,218.17ZM1253.87,929s-.15-.23-.23-.36a6.19,6.19,0,0,0-.59.49,2.22,2.22,0,0,0,.24.35A5.1,5.1,0,0,0,1253.87,929ZM824,936.5a.63.63,0,0,0,.36-.25.6.6,0,0,0-.06-.42,5.57,5.57,0,0,0-.78.06A5.15,5.15,0,0,0,824,936.5Zm-253.77,2.8c0,.05.27.26.32.23a4.56,4.56,0,0,0,.58-.49l-.62-.45A4.36,4.36,0,0,0,570.25,939.31Zm-259.83,1.24s.24-.16.37-.24a6.37,6.37,0,0,0-.51-.61,2.25,2.25,0,0,0-.36.26A5.44,5.44,0,0,0,310.42,940.54Zm1196.18,1.09c-.1.12-.3.34-.28.36a6.49,6.49,0,0,0,.61.55l.3-.37Zm-944.4,1.27a6.43,6.43,0,0,0,.5.61,2.29,2.29,0,0,0,.36-.25l-.47-.62Zm85.1-736.51a5.56,5.56,0,0,0,.79.11s.08-.28.12-.43l-.8-.14ZM598.76,944.54s.24-.16.37-.24a6.35,6.35,0,0,0-.51-.61,2.19,2.19,0,0,0-.36.25A5.34,5.34,0,0,0,598.76,944.54ZM265.36,204.68s.25-.16.38-.25a6.56,6.56,0,0,0-.52-.63,2.34,2.34,0,0,0-.37.26A5.45,5.45,0,0,0,265.36,204.68Zm391.56-1c.1-.12.29-.33.27-.35a6.45,6.45,0,0,0-.6-.55l-.29.36Zm707.52-4.89c-.1.12-.29.33-.27.35a6.32,6.32,0,0,0,.59.55l.29-.36Zm-846.71-1.11c.06,0,.32-.2.3-.25a4.72,4.72,0,0,0-.36-.67l-.56.5A3.82,3.82,0,0,0,517.73,197.69ZM355.21,947.53a6.48,6.48,0,0,0,.62-.52,2.3,2.3,0,0,0-.26-.37l-.63.49ZM1442.25,196a6.45,6.45,0,0,0,.5.62,2.34,2.34,0,0,0,.36-.25l-.48-.62ZM1337,947.95c-.12-.1-.33-.29-.35-.27a6.33,6.33,0,0,0-.54.59l.36.29ZM72.23,951.55s.29-.23.27-.28a4.14,4.14,0,0,0-.39-.62l-.53.51A4.54,4.54,0,0,0,72.23,951.55ZM1180.91,190.38a5.47,5.47,0,0,0,.79.11s.08-.28.12-.42l-.79-.14Zm-629.42-3.63c-.1.12-.3.34-.28.36a6.45,6.45,0,0,0,.6.55l.3-.37Zm529.32,776.17a6.54,6.54,0,0,0,.52.63,2.33,2.33,0,0,0,.37-.26l-.49-.63ZM1557.26,466.4c-.12-.1-.33-.29-.35-.27a6.36,6.36,0,0,0-.54.59l.36.29ZM474.59,185.64s.24-.15.37-.24a6.36,6.36,0,0,0-.5-.61,2.28,2.28,0,0,0-.36.25A5.26,5.26,0,0,0,474.59,185.64Zm790.67,362.44a6.34,6.34,0,0,0,.61-.51,2.22,2.22,0,0,0-.25-.36l-.62.48ZM623.81,967.56s.25-.16.38-.24a6.43,6.43,0,0,0-.51-.62,2.25,2.25,0,0,0-.37.25A5.34,5.34,0,0,0,623.81,967.56Zm-82.33,3.08c-.1.12-.3.34-.28.36a6.46,6.46,0,0,0,.61.55l.3-.37ZM386,974.94a6.38,6.38,0,0,0,.5.61,2.26,2.26,0,0,0,.36-.25l-.48-.62ZM491.13,176.35a5.61,5.61,0,0,0,.8.11s.08-.28.12-.43l-.8-.14ZM913.86,981.58a6.55,6.55,0,0,0,.63-.52,2.33,2.33,0,0,0-.26-.37l-.63.49Zm484.61-.88c-.1.12-.29.33-.27.35a6.33,6.33,0,0,0,.59.54l.29-.36ZM889.61,986a6.39,6.39,0,0,0,.49.61,2.3,2.3,0,0,0,.36-.25l-.47-.61Zm734.71-816.85s-.15-.24-.24-.37a6.37,6.37,0,0,0-.62.5,2.26,2.26,0,0,0,.25.36A5.26,5.26,0,0,0,1624.31,169.11ZM323.18,989.56a6.35,6.35,0,0,0,.61-.5,2.26,2.26,0,0,0-.25-.36l-.62.48ZM820.38,991c-.12-.1-.33-.29-.35-.27a6.34,6.34,0,0,0-.55.59l.36.29ZM462.7,996.62s.29-.23.27-.28a4.19,4.19,0,0,0-.39-.62l-.52.52A4.33,4.33,0,0,0,462.7,996.62ZM468,999c0-.06-.2-.32-.24-.3a4.68,4.68,0,0,0-.66.35l.49.55A3.78,3.78,0,0,0,468,999ZM1473.75,166.64s.25-.16.38-.25a6.59,6.59,0,0,0-.52-.63,2.36,2.36,0,0,0-.37.26A5.49,5.49,0,0,0,1473.75,166.64Zm-824.83-.16c-.22-.21-.43-.56-.66-.57s-.45.34-.68.54l.65.59Zm810.83-2.87s.24-.15.36-.23a6.19,6.19,0,0,0-.49-.6,2.19,2.19,0,0,0-.35.24A5.14,5.14,0,0,0,1459.75,163.61Zm-377.37,838c.06,0,.32-.2.31-.25a4.74,4.74,0,0,0-.36-.67l-.56.5A3.83,3.83,0,0,0,1082.38,1001.62Zm128.08,10s.24-.16.37-.25a6.35,6.35,0,0,0-.51-.61,2.29,2.29,0,0,0-.36.26A5.41,5.41,0,0,0,1210.46,1011.62Zm-741.38,4.73a5.43,5.43,0,0,0,.79.11s.08-.28.12-.42l-.79-.14Zm588.29,2.26c.09-.12.28-.32.26-.34a6.14,6.14,0,0,0-.57-.52l-.28.35Zm-235.61-857a6.41,6.41,0,0,0,.61-.51,2.29,2.29,0,0,0-.25-.36l-.62.48ZM589.11,1020.12s-.15-.24-.24-.37a6.37,6.37,0,0,0-.61.5,2.26,2.26,0,0,0,.25.36A5.28,5.28,0,0,0,589.11,1020.12Zm133.86.53c.1-.12.29-.34.27-.36a6.32,6.32,0,0,0-.6-.54l-.29.36Zm-79.16,1s.25-.16.38-.25a6.53,6.53,0,0,0-.52-.63,2.33,2.33,0,0,0-.37.26A5.42,5.42,0,0,0,643.81,1021.62Zm-100.33-868s.35,0,.37-.07a3.89,3.89,0,0,0,.09-.71l-.72.07A5,5,0,0,0,543.48,153.63Zm712.83,359.52c-.1.12-.29.33-.27.35a6.33,6.33,0,0,0,.59.54l.29-.36ZM563.73,1022.62s.24-.16.37-.24a6.35,6.35,0,0,0-.5-.61,2.23,2.23,0,0,0-.36.25A5.29,5.29,0,0,0,563.73,1022.62Zm1033.56-301.9c0-.06-.2-.32-.24-.3a4.71,4.71,0,0,0-.66.35l.49.56A3.77,3.77,0,0,0,1597.29,720.72Zm-929.66,303c-.09.12-.29.33-.27.35a6.27,6.27,0,0,0,.59.53l.29-.36ZM318.83,145.1s-.16-.24-.25-.37a6.38,6.38,0,0,0-.61.51,2.23,2.23,0,0,0,.26.36A5.43,5.43,0,0,0,318.83,145.1Zm288.42-.77a5.34,5.34,0,0,0,.78.1s.08-.27.12-.42l-.78-.13Zm-248,.27a6.52,6.52,0,0,0,.63-.52,2.33,2.33,0,0,0-.26-.37l-.64.5Zm875.72-.63c.23,0,.46-.28.69-.44l-.9-.68-.47.67C1234.47,143.68,1234.7,144,1234.93,144Zm292.7,577.44c-.1.12-.29.32-.27.35a6.27,6.27,0,0,0,.58.54l.29-.36Zm-250.09,303.2s.25-.16.38-.24a6.55,6.55,0,0,0-.51-.62,2.38,2.38,0,0,0-.37.25A5.34,5.34,0,0,0,1277.54,1024.61Zm58.17,0s.29-.23.27-.28a4.21,4.21,0,0,0-.4-.63l-.52.52A4.44,4.44,0,0,0,1335.71,1024.64Zm-498.58-884c.1-.12.29-.33.27-.35a6.4,6.4,0,0,0-.59-.55l-.29.36ZM710.26,140c-.12-.1-.33-.29-.35-.27a6.3,6.3,0,0,0-.54.59l.36.29ZM559.08,1027c-.12-.1-.33-.29-.35-.27a6.34,6.34,0,0,0-.54.59l.36.29Zm-132,10.3a5.36,5.36,0,0,0,.75.1s.07-.26.11-.4l-.75-.13Zm898.62,1.3c.1-.12.29-.33.27-.35a6.3,6.3,0,0,0-.59-.54l-.29.36ZM1294.36,365c-.1.12-.29.33-.27.35a6.34,6.34,0,0,0,.59.54l.29-.36ZM1639,1040.66c.1-.12.29-.33.27-.35a6.35,6.35,0,0,0-.59-.54l-.29.36ZM637.18,135.11s-.16-.25-.25-.38a6.53,6.53,0,0,0-.63.52,2.34,2.34,0,0,0,.26.37A5.42,5.42,0,0,0,637.18,135.11Zm130.26,910.24a5.64,5.64,0,0,0,.78.1s.07-.27.11-.42l-.78-.13Zm726.88-497.56.7-.4-.59-1-.52.62Zm-768.64,500c-.1.12-.3.33-.28.36a6.48,6.48,0,0,0,.6.56l.3-.37ZM988,130.71c-.09.12-.28.33-.27.35a6.23,6.23,0,0,0,.58.53l.29-.35ZM1203,1049.37a5.51,5.51,0,0,0,.78.11s.08-.27.12-.42l-.78-.14Zm-929,9.06c0,.05.26.25.3.22a4.32,4.32,0,0,0,.56-.47l-.59-.43A4.17,4.17,0,0,0,273.91,1058.44ZM129.21,549.07s.24-.16.37-.24a6.35,6.35,0,0,0-.5-.61,2.29,2.29,0,0,0-.36.25A5.31,5.31,0,0,0,129.21,549.07ZM1347.42,124.7c-.09.12-.28.32-.27.34a6.27,6.27,0,0,0,.58.53l.29-.35Zm-826.74,936s.24-.15.37-.24a6.35,6.35,0,0,0-.5-.61,2.24,2.24,0,0,0-.36.25A5.29,5.29,0,0,0,520.68,1060.66ZM627.32,1062a6.44,6.44,0,0,0,.51.62,2.3,2.3,0,0,0,.36-.26l-.49-.62Zm98.07,6.33a5.73,5.73,0,0,0,.79.1s.07-.28.11-.42l-.79-.13Zm92.7,5.31c.1-.12.29-.33.27-.35a6.34,6.34,0,0,0-.59-.54l-.29.36ZM527.18,119a6.42,6.42,0,0,0,.5.62,2.33,2.33,0,0,0,.36-.25l-.48-.62Zm430.06,958.74c.09-.12.29-.33.27-.35a6.31,6.31,0,0,0-.59-.53l-.29.36Zm-914.65.71a5.5,5.5,0,0,0,.78.1s.08-.27.11-.42l-.78-.13ZM1029.64,116c-.12-.09-.33-.28-.35-.27a6.27,6.27,0,0,0-.53.59l.36.29Zm53.44,247.85a6.42,6.42,0,0,0,.61-.5,2.32,2.32,0,0,0-.25-.36l-.62.47ZM522.67,114.56s.25-.16.38-.24a6.64,6.64,0,0,0-.51-.63,2.42,2.42,0,0,0-.37.26A5.37,5.37,0,0,0,522.67,114.56Zm892.52,346.12a5.5,5.5,0,0,0,.77.1s.07-.27.11-.41l-.77-.13ZM823.1,113.57c.1-.12.29-.33.27-.35a6.29,6.29,0,0,0-.58-.54l-.29.36ZM551.46,551.06a6.46,6.46,0,0,0,.61-.5,2.31,2.31,0,0,0-.25-.36l-.62.47Zm-1-438.37c-.1.12-.29.33-.27.35a6.34,6.34,0,0,0,.58.54l.29-.36ZM870.17,457s.3-.23.27-.28a4.24,4.24,0,0,0-.4-.64l-.53.53A4.51,4.51,0,0,0,870.17,457Zm612.77,277.37c0,.22.33.45.52.67.2-.22.56-.44.57-.66s-.35-.45-.55-.67C1483.28,733.91,1482.94,734.13,1482.94,734.35ZM592.24,108.28a5.4,5.4,0,0,0,.77.11s.08-.27.12-.41l-.77-.14ZM846.85,456.1c-.1.12-.29.33-.27.35a6.39,6.39,0,0,0,.59.54l.29-.36Zm774.61-94.87a6.53,6.53,0,0,0,.52.63,2.34,2.34,0,0,0,.37-.26l-.49-.63ZM1498.6,97.67c-.09.12-.29.33-.27.35a6.29,6.29,0,0,0,.59.54l.29-.36ZM1388.07,98s-.16-.25-.25-.38a6.49,6.49,0,0,0-.63.52,2.3,2.3,0,0,0,.26.37A5.57,5.57,0,0,0,1388.07,98Zm-688.73.4c.22,0,.43-.32.65-.5l-.93-.62-.42.68C698.87,98.17,699.11,98.46,699.34,98.45Zm-250,417.7c-.1.12-.29.33-.27.35a6.35,6.35,0,0,0,.58.54l.29-.36ZM611.77,455s.25-.16.38-.25a6.58,6.58,0,0,0-.52-.63,2.33,2.33,0,0,0-.37.26A5.54,5.54,0,0,0,611.77,455ZM736.39,561.8a5.6,5.6,0,0,0,.78.1s.07-.27.11-.42l-.78-.13Zm1131.32,4.66a6.45,6.45,0,0,0,.51.62,2.24,2.24,0,0,0,.36-.25l-.49-.63Zm-115.22,6.13s-.16-.25-.25-.38a6.48,6.48,0,0,0-.63.52,2.27,2.27,0,0,0,.26.37A5.48,5.48,0,0,0,1752.48,572.59ZM859.57,735.67a6.33,6.33,0,0,0,.49.61,2.29,2.29,0,0,0,.36-.25l-.46-.61Zm887-285.34a6.39,6.39,0,0,0,.5.62,2.26,2.26,0,0,0,.36-.25l-.48-.62Zm-797.91,47a6.47,6.47,0,0,0,.51.62,2.27,2.27,0,0,0,.37-.26l-.49-.63Zm-823,92.11a6.47,6.47,0,0,0,.51.62,2.3,2.3,0,0,0,.37-.25l-.48-.63Zm829,0a6.44,6.44,0,0,0,.51.62,2.29,2.29,0,0,0,.36-.25l-.48-.62Zm-264,5.74c-.1.12-.29.33-.27.35a6.32,6.32,0,0,0,.59.54l.29-.36Zm604-505.67c.06,0,.32-.2.31-.25a4.72,4.72,0,0,0-.35-.67l-.56.49A3.83,3.83,0,0,0,1294.65,89.56ZM1176.2,597.25s-.29.23-.27.28a4.16,4.16,0,0,0,.39.63l.51-.52A4.34,4.34,0,0,0,1176.2,597.25ZM1371.64,444s.25-.16.38-.25a6.45,6.45,0,0,0-.52-.62,2.29,2.29,0,0,0-.37.26A5.45,5.45,0,0,0,1371.64,444ZM374.23,87.54a6.33,6.33,0,0,0,.61-.51,2.21,2.21,0,0,0-.25-.36l-.62.48Zm730.11,355.39s.24-.15.37-.24a6.41,6.41,0,0,0-.5-.61,2.3,2.3,0,0,0-.36.25A5.23,5.23,0,0,0,1104.34,442.93Zm-535.53-1c.1-.12.3-.34.28-.36a6.48,6.48,0,0,0-.6-.56l-.3.37Zm916.52,295.11c0,.05.26.25.3.22a4.36,4.36,0,0,0,.56-.47l-.59-.43A4.2,4.2,0,0,0,1485.33,737.07ZM161.74,607.84a5.62,5.62,0,0,0,.78.1s.07-.27.11-.42l-.78-.13Zm1310.78-256a6.53,6.53,0,0,0,.62-.51,2.33,2.33,0,0,0-.26-.37l-.63.48ZM1445.72,518s.25-.16.38-.25a6.64,6.64,0,0,0-.52-.63,2.37,2.37,0,0,0-.37.26A5.4,5.4,0,0,0,1445.72,518Zm-826.45,5.71a5.66,5.66,0,0,0,.78.1s.07-.27.11-.42l-.78-.13ZM1602,610.14c.1-.12.29-.32.27-.34a6.32,6.32,0,0,0-.58-.54l-.29.36ZM933.64,72.9a6.61,6.61,0,0,0,.51.63,2.41,2.41,0,0,0,.37-.26l-.48-.63Zm602.6,362.42s-.23-.3-.29-.28a4.28,4.28,0,0,0-.64.4l.54.52A4.48,4.48,0,0,0,1536.24,435.33ZM470.36,612.12a6.43,6.43,0,0,0,.62-.51,2.27,2.27,0,0,0-.25-.36l-.62.48Zm850,5.13c-.1.12-.29.34-.28.36a6.45,6.45,0,0,0,.6.55l.3-.37Zm229,1.28a6.29,6.29,0,0,0,.49.6,2.25,2.25,0,0,0,.35-.25l-.47-.61ZM676.64,428c-.1.12-.29.33-.27.35a6.31,6.31,0,0,0,.59.54l.29-.36Zm538.9,105c.09-.12.28-.32.26-.34a6.18,6.18,0,0,0-.58-.53l-.28.35Zm136.55,212a5.73,5.73,0,0,0,.8.1s.07-.28.11-.43l-.8-.13ZM1092.85,484.38a6.3,6.3,0,0,0,.49.6,2.26,2.26,0,0,0,.35-.25l-.46-.61ZM474.36,425.94a6.35,6.35,0,0,0,.61-.5,2.24,2.24,0,0,0-.25-.36l-.62.48ZM1434.48,66.52a6.67,6.67,0,0,0,.63-.51,2.4,2.4,0,0,0-.26-.37l-.64.49Zm112.73,460s-.16-.25-.24-.38a6.67,6.67,0,0,0-.63.5,2.44,2.44,0,0,0,.25.37A5.34,5.34,0,0,0,1547.21,526.55Zm79.73-462s.24-.16.37-.24a6.46,6.46,0,0,0-.51-.62,2.31,2.31,0,0,0-.36.25A5.35,5.35,0,0,0,1626.94,64.51ZM220.39,422.93c.09-.12.29-.33.27-.35a6.26,6.26,0,0,0-.58-.54l-.29.36Zm384.87-88.4a5.43,5.43,0,0,0,.77.1s.07-.27.11-.41l-.77-.13ZM567.52,416c-.09.12-.29.33-.27.35a6.28,6.28,0,0,0,.59.53l.29-.36Zm-78.4,207.48a6.41,6.41,0,0,0,.51.62,2.23,2.23,0,0,0,.36-.25l-.49-.62Zm1050.09,3.16s-.15-.24-.24-.37a6.46,6.46,0,0,0-.62.5,2.32,2.32,0,0,0,.25.36A5.29,5.29,0,0,0,1539.21,626.67ZM498.15,629.54a6.52,6.52,0,0,0,.51.62,2.31,2.31,0,0,0,.36-.25l-.48-.63ZM679.65,57.63c-.09.12-.29.33-.27.35a6.27,6.27,0,0,0,.59.54l.29-.36ZM566.13,630.57s-.23-.29-.28-.27a4.23,4.23,0,0,0-.63.4l.52.53A4.55,4.55,0,0,0,566.13,630.57ZM440.58,58.5s.24-.16.37-.24a6.42,6.42,0,0,0-.5-.62,2.33,2.33,0,0,0-.36.25A5.23,5.23,0,0,0,440.58,58.5Zm-14.64-3.57c-.12-.09-.33-.29-.35-.27a6.31,6.31,0,0,0-.54.59l.36.29Zm55.84,693.33c.05,0,.25-.26.22-.31a4.4,4.4,0,0,0-.48-.56l-.44.6A4.25,4.25,0,0,0,481.78,748.25Zm787.5-340.32a6.48,6.48,0,0,0,.63-.51,2.28,2.28,0,0,0-.26-.37l-.63.49Zm-212-357.43s.25-.16.38-.25a6.47,6.47,0,0,0-.51-.62,2.35,2.35,0,0,0-.37.26A5.38,5.38,0,0,0,1057.27,50.5Zm414.58,704.81c.09-.12.28-.32.26-.34a6.19,6.19,0,0,0-.57-.53l-.28.35ZM1153.14,407.92a6.54,6.54,0,0,0,.63-.51,2.32,2.32,0,0,0-.26-.37l-.63.49Zm446.29,228.62a6.59,6.59,0,0,0,.52.63,2.33,2.33,0,0,0,.37-.26l-.5-.64ZM1161.16,323.8a6.23,6.23,0,0,0,.6-.49,2.22,2.22,0,0,0-.25-.35l-.6.47ZM1389.4,43.48A6.38,6.38,0,0,0,1390,43a2.26,2.26,0,0,0-.26-.36l-.62.49ZM358.08,637.27c0,.22.32.43.49.64l.62-.92-.67-.41C358.36,636.81,358.07,637,358.08,637.27Zm832.74,8.4s-.15-.24-.24-.37a6.37,6.37,0,0,0-.61.5,2.25,2.25,0,0,0,.25.36A5.29,5.29,0,0,0,1190.81,645.67ZM1312.38,399c-.1.12-.29.33-.27.35a6.29,6.29,0,0,0,.58.54l.29-.36Zm167.9-359.85a5.62,5.62,0,0,0,.8.1s.08-.28.11-.43l-.79-.13Zm-85.79-.59c-.1.12-.29.33-.27.35a6.37,6.37,0,0,0,.6.54l.29-.36Zm-799.71.92s.25-.16.38-.25a6.54,6.54,0,0,0-.53-.63,2.25,2.25,0,0,0-.37.26A5.59,5.59,0,0,0,594.78,39.51Zm400.51-1c.09-.12.28-.32.26-.34a6.14,6.14,0,0,0-.57-.52l-.28.35ZM462.11,492.72a5.45,5.45,0,0,0,.77.1s.08-.27.11-.42l-.77-.14ZM590.24,36.18a5.56,5.56,0,0,0,.78.1s.07-.27.11-.42l-.78-.13Zm722.15,611.13c-.1.12-.29.33-.27.35a6.34,6.34,0,0,0,.59.54l.29-.36ZM1269.91,395.4s-.16-.24-.24-.37a6.46,6.46,0,0,0-.62.51,2.31,2.31,0,0,0,.26.37A5.37,5.37,0,0,0,1269.91,395.4ZM1145.38,34.48s.25-.16.38-.25a6.58,6.58,0,0,0-.52-.63,2.33,2.33,0,0,0-.37.26A5.43,5.43,0,0,0,1145.38,34.48ZM940.54,654.61s-.23-.29-.28-.27a4.21,4.21,0,0,0-.63.4l.52.53A4.66,4.66,0,0,0,940.54,654.61Zm502.57,4.09s-.16-.24-.24-.37a6.41,6.41,0,0,0-.62.51,2.27,2.27,0,0,0,.25.36A5.35,5.35,0,0,0,1443.11,658.71ZM766.32,32s-.16-.25-.24-.38a6.43,6.43,0,0,0-.62.51,2.29,2.29,0,0,0,.25.37A5.32,5.32,0,0,0,766.32,32ZM1567.39,758a5.46,5.46,0,0,0,.78.1s.08-.27.11-.42l-.78-.13ZM222.71,390.38s-.16-.25-.25-.38a6.53,6.53,0,0,0-.63.52,2.25,2.25,0,0,0,.26.37A5.5,5.5,0,0,0,222.71,390.38ZM1501.89,491c.06,0,.32-.2.3-.24a4.69,4.69,0,0,0-.35-.67l-.56.49A3.79,3.79,0,0,0,1501.89,491Zm-54.68,167.9a5.64,5.64,0,0,0,.79.1s.07-.28.11-.42l-.79-.13Zm-280.4,11.18c.23,0,.47-.26.71-.41l-.85-.7-.5.61C1166.39,669.78,1166.59,670.09,1166.81,670.1ZM853.84,383c-.1.12-.29.33-.27.35a6.42,6.42,0,0,0,.6.55l.29-.36Zm370.63,387.33s.24-.16.37-.24a6.49,6.49,0,0,0-.51-.62,2.31,2.31,0,0,0-.36.25A5.36,5.36,0,0,0,1224.47,770.32ZM714.27,320.24c-.12-.09-.33-.29-.35-.27a6.27,6.27,0,0,0-.53.58l.36.29ZM365,674.92a5.67,5.67,0,0,0,.77.1s.07-.27.11-.41l-.77-.13Zm884.93-651c-.12-.09-.33-.29-.35-.27a6.3,6.3,0,0,0-.54.59l.36.29ZM961.69,379.25a6.28,6.28,0,0,0,.49.6,2.24,2.24,0,0,0,.35-.25l-.47-.61ZM497.42,318.93c-.1.12-.29.33-.27.35a6.32,6.32,0,0,0,.58.54l.29-.36ZM339.23,13.56c-.1.12-.29.33-.28.35a6.46,6.46,0,0,0,.59.55l.3-.36Zm-13-.09a6.49,6.49,0,0,0,.62-.51,2.29,2.29,0,0,0-.25-.37l-.63.48Zm1369.93-1c.09-.12.29-.33.27-.35a6.32,6.32,0,0,0-.58-.54l-.29.36Zm36,306.34c.09-.12.29-.33.27-.35a6.25,6.25,0,0,0-.58-.53l-.29.36Zm-1200,58.76a5.79,5.79,0,0,0,.79.1s.07-.27.11-.42l-.79-.13Zm127-1.28c-.12-.1-.33-.29-.35-.27a6.35,6.35,0,0,0-.54.59l.36.29ZM853.42,704.74s-.16-.24-.24-.37a6.47,6.47,0,0,0-.62.5,2.3,2.3,0,0,0,.25.36A5.34,5.34,0,0,0,853.42,704.74ZM1459.78,488c.08-.14-.15-.48-.25-.73l-1,.49.53.58C1459.3,488.26,1459.67,488.22,1459.78,488Zm149.94,217.35c-.09.12-.29.32-.27.34a6.26,6.26,0,0,0,.58.54l.29-.35ZM383.25,711.24a6.34,6.34,0,0,0,.61-.5,2.27,2.27,0,0,0-.25-.36l-.62.48Zm900.3,6s.24-.15.36-.24a6.27,6.27,0,0,0-.49-.6,2.25,2.25,0,0,0-.35.25A5.16,5.16,0,0,0,1283.55,717.25ZM82.24,370.88c.06,0,.32-.2.3-.24a4.66,4.66,0,0,0-.35-.66l-.55.49A3.76,3.76,0,0,0,82.24,370.88Z"/></g></g></svg>